<?xml version="1.0" standalone="no"?>
<!DOCTYPE svg PUBLIC "-//W3C//DTD SVG 20010904//EN"
 "http://www.w3.org/TR/2001/REC-SVG-20010904/DTD/svg10.dtd">
<svg version="1.0" xmlns="http://www.w3.org/2000/svg"
 width="700.000000pt" height="700.000000pt" viewBox="0 0 700.000000 700.000000"
 preserveAspectRatio="xMidYMid meet">
<metadata>
Created by potrace 1.14, written by Peter Selinger 2001-2017
</metadata>
<g transform="translate(0.000000,700.000000) scale(0.100000,-0.100000)"
fill="#000000" stroke="none">
<path d="M1375 6243 c-51 -9 -65 -14 -79 -29 -21 -20 -20 -68 0 -85 9 -8 60
-21 113 -30 223 -39 325 -119 361 -281 43 -198 45 -275 45 -1638 0 -1100 -4
-1415 -19 -1495 -2 -11 -6 -41 -10 -66 -27 -187 -67 -292 -144 -380 -45 -51
-138 -101 -217 -119 -103 -22 -136 -52 -112 -100 19 -38 40 -40 217 -25 41 3
93 8 115 11 69 8 630 7 840 -1 340 -15 404 -13 421 9 8 11 14 32 14 48 0 31
-22 47 -73 53 -17 2 -58 6 -89 10 -76 8 -202 41 -255 66 -53 26 -118 98 -150
166 -26 57 -51 163 -58 250 -6 82 -5 3185 1 3258 7 72 28 112 74 140 30 17 54
20 157 21 108 1 147 -2 268 -21 68 -11 95 -18 191 -50 297 -99 544 -310 663
-567 67 -144 85 -236 85 -433 -1 -142 -4 -183 -23 -250 -61 -227 -194 -398
-398 -513 -73 -41 -203 -91 -258 -99 -16 -2 -36 -6 -44 -9 -26 -8 -155 -18
-246 -18 -99 0 -188 9 -250 23 -42 10 -85 -2 -93 -26 -13 -41 127 -98 288
-119 25 -3 53 -8 62 -10 23 -7 273 -7 295 0 10 2 39 7 64 10 25 4 80 15 123
26 368 97 692 344 838 640 19 39 58 137 63 160 41 177 47 216 48 320 2 162 -9
238 -56 379 -133 406 -567 703 -1122 769 -80 9 -488 8 -595 -1 -429 -40 -607
-41 -890 -7 -119 15 -142 17 -165 13z"/>
<path d="M3477 4793 c-2 -1 -125 -9 -297 -19 -115 -6 -459 -5 -612 2 -148 7
-192 -1 -203 -37 -9 -26 3 -57 25 -69 11 -6 54 -13 96 -15 43 -3 96 -10 118
-16 156 -42 252 -164 299 -378 25 -116 17 -111 145 -86 52 11 116 35 200 77
67 33 122 63 123 67 0 3 2 36 4 72 4 71 28 154 52 181 9 10 35 25 60 34 40 16
62 20 115 23 23 1 54 63 61 124 l7 48 -96 -3 c-53 -2 -96 -4 -97 -5z"/>
<path d="M4195 4733 c-4 -21 -20 -66 -37 -101 -16 -35 -28 -65 -26 -66 1 -1
36 -16 76 -34 203 -87 392 -266 483 -457 61 -125 82 -226 82 -385 0 -110 -4
-150 -22 -215 -52 -185 -153 -301 -321 -368 -132 -52 -205 -60 -600 -61 -392
-1 -410 2 -429 56 -7 20 -11 177 -11 443 l0 413 -95 -33 c-52 -18 -95 -32 -95
-30 0 2 -15 -1 -32 -6 -18 -5 -73 -12 -123 -15 -49 -4 -92 -8 -94 -10 -2 -2
-5 -547 -6 -1211 -1 -664 -5 -1219 -8 -1233 -3 -14 -8 -54 -12 -90 -16 -173
-56 -275 -129 -335 -43 -35 -143 -75 -187 -75 -11 0 -33 -7 -49 -15 -39 -20
-42 -67 -5 -91 26 -17 95 -16 301 5 114 11 437 4 669 -14 229 -18 695 -27 795
-14 352 44 614 165 841 389 175 173 273 358 314 597 40 230 14 468 -72 652
-94 203 -273 388 -458 472 -52 23 -165 60 -210 68 -67 12 -116 37 -109 55 3 8
49 44 102 82 136 95 195 147 256 223 91 114 143 228 164 361 11 70 11 70 12
178 3 436 -296 756 -823 881 -126 30 -133 29 -142 -16z m90 -1906 c11 -3 51
-12 89 -21 78 -19 212 -78 282 -127 82 -56 193 -169 249 -254 81 -121 130
-243 156 -385 15 -82 19 -269 8 -341 -5 -30 -11 -72 -15 -94 -8 -56 -52 -180
-86 -245 -106 -198 -305 -341 -548 -394 -145 -31 -337 -39 -552 -22 -293 24
-443 99 -474 239 -3 12 -5 375 -4 807 1 586 4 791 13 809 7 14 23 28 37 32 30
7 816 4 845 -4z"/>
</g>
</svg>
