<?xml version="1.0" encoding="utf-8"?>
<!-- Generator: Adobe Illustrator 27.1.1, SVG Export Plug-In . SVG Version: 6.00 Build 0)  -->
<svg version="1.1" id="Layer_1" xmlns="http://www.w3.org/2000/svg" xmlns:xlink="http://www.w3.org/1999/xlink" x="0px" y="0px"
	 viewBox="0 0 200 200" style="enable-background:new 0 0 200 200;" xml:space="preserve">
<style type="text/css">
	.st0{fill:#1C92A7;}
</style>
<g>
	<g>
		<g>
			<path class="st0" d="M62.5,174.9c-13,0-25.5-1.1-37.1-3.3l-3-0.6L10.5,59.9l90.1-38.4l90.1,38.4l-11.8,110.4l-4.3-0.7
				c-10-1.7-21.3-2.5-32.7-2.5c-13.7,0-27.2,1.3-39.2,3.9C90.4,173.5,76.5,174.9,62.5,174.9z M30,164c10.2,1.8,21.2,2.7,32.5,2.7
				c13.4,0,26.8-1.3,38.5-3.8c12.5-2.7,26.6-4.1,40.9-4.1c10.3,0,20.5,0.7,29.8,2L181.8,65l-81.3-34.7L19.3,65L30,164z"/>
		</g>
	</g>
	<g>
		<path class="st0" d="M42.9,116c0.2,0,0.3,0.1,0.5,0c0.7-0.3,1.3-0.2,2-0.2c0.6,0,1.2,0,1.7,0.2c0.1,0,0.3-0.1,0.5-0.1
			c0.2,0,0.3,0,0.5,0c-0.1,0.1-0.2,0.3-0.3,0.4c-0.4,0.2-0.7,0.4-1.2,0.1c-0.3-0.1-0.7,0-1,0c-0.5,0-1,0-1.4,0.1
			c-0.5,0.1-0.9,0.2-1.3,0.4c-0.3,0.1-0.5,0.2-0.8-0.1c-0.1-0.1-0.2-0.1-0.3-0.1c-0.2,0-0.3-0.3-0.1-0.3c0.6-0.3,0.7-0.8,1-1.3
			c0.1-0.1,0.2-0.2,0.4-0.2c0.1,0,0.2,0.2,0.2,0.3c0,0.1-0.1,0.3-0.1,0.4C43,115.8,42.9,115.9,42.9,116z"/>
		<g>
			<path class="st0" d="M41.8,97.7c-0.7-0.2-0.7-0.2-0.5-1.1c-0.4,0.2-0.8,0.3-1.1,0.4c-0.4,0.2-0.7,0.4-1.1,0.6
				c-0.4,0.2-0.5,0.1-0.6-0.3c-0.1-0.8,0.4-1.1,0.9-1.5c1.1-1,2.2-1.8,3.3-2.8c1.4-1.2,3.1-2.2,4.7-3.2c0.3-0.2,0.8-0.3,1.2-0.5
				c0.1,0,0.3,0,0.4,0.1c0,0,0,0.1,0,0.1c-0.3,0.2-0.5,0.3-0.8,0.5c-1,0.6-2,1.3-3,1.9c-0.2,0.1-0.2,0.2-0.1,0.4
				c0.4,0.8,0.8,1.5,1.2,2.3c0.1,0.2,0.3,0.3,0.5,0.2c0.5-0.3,1-0.7,1.6-1c0.6-0.3,1.2-0.5,1.8-0.8c0.1,0,0.2,0.1,0.3,0.1
				c-0.1,0.1-0.1,0.4-0.2,0.4c-0.5,0.2-1,0.5-1.5,0.6c-0.4,0.1-0.7,0.3-1,0.5c-0.4,0.3-0.8,0.6-1.2,0.8c-0.2,0.2-0.4,0-0.6-0.2
				c-0.2-0.2-0.3-0.5-0.5-0.5c-0.2,0-0.5,0.2-0.7,0.3c-0.8,0.5-1.6,1-2.4,1.5c-0.2,0.1-0.3,0.2-0.1,0.5c0.1,0.2,0,1.4-0.3,1.3
				c-0.6,1-1.7,1.6-2.1,3c0.3-0.1,0.5-0.2,0.7-0.2c0.6-0.2,1.2-0.3,1.8-0.5c0.7-0.2,1.3-0.6,2-0.9c0.4-0.2,0.9-0.2,1.3-0.5
				c1-0.5,1.9-1.1,2.8-1.6c0.7-0.4,1.4-0.7,2.1-1.1c0.4-0.2,0.9-0.4,1.3-0.6c0-0.5-0.3-1-0.5-1.5c-0.5-1.1-1-2.3-1.4-3.4
				c-0.1-0.3-0.2-0.7-0.3-1.1c0-0.1-0.1-0.2-0.1-0.3c-0.1-0.1-0.2-0.2-0.2-0.4c0-0.3-0.2-0.7,0.2-0.8c0.4-0.2,0.5,0.2,0.7,0.4
				c0.6,0.6,0.7,1.4,1,2.2c0.8,1.6,1.5,3.3,1.9,5.1c0.3,1.7,1.1,3.2,1.8,4.8c0.5,1.2,1,2.5,1.5,3.7c0.1,0.3,0.3,0.4,0.6,0.4
				c0.7-0.1,1.4-0.3,2.1-0.3c0.9-0.1,1.8-0.1,2.7-0.1c0.7,0,1.4-0.1,2.2-0.1c0.3,0,0.5,0,0.8,0c0.4,0,0.8-0.1,1.1-0.1
				c0.6-0.1,1.3-0.1,1.9-0.1c0.9,0,1.7,0.2,2.6,0.2c0.8,0,1.5-0.1,2.3-0.1c1.2-0.1,2.4-0.2,3.6-0.3c1.7-0.1,3.4-0.2,5.2-0.3
				c0.9,0,1.8-0.2,2.7-0.3c0.9,0,1.3-0.6,1.8-1.1c1.3-1.3,2.6-2.7,3.9-4c1.8-1.8,3.7-3.5,5.7-5c1.3-1,2.7-2,4-3
				c0.5-0.4,1-0.9,1.5-1.3c0.3-0.2,0.6-0.4,0.9-0.4c0.4,0,0.7-0.3,1.1-0.4c0.6-0.1,1.2-0.2,1.8-0.2c1.2-0.2,2.4-0.3,3.6-0.5
				c1.1-0.1,2.3-0.3,3.4-0.4c0.8-0.1,1.7-0.3,2.5-0.4c0.3,0,0.5-0.1,0.8-0.1c1.6-0.2,3.2-0.2,4.7-0.5c1.4-0.2,2.7,0,4,0.3
				c0.5,0.1,1,0.1,1.6,0.2c0.9,0.1,1.7,0.3,2.6,0.4c1.1,0.2,2.1,0.4,3.2,0.6c0.7,0.1,1.4,0.3,2.1,0.5c0.2,0.1,0.4,0.2,0.5,0.4
				c0.4,0.5,0.9,1.1,1.2,1.6c1,1.5,1.9,3.1,2.9,4.7c0.8,1.2,1.6,2.3,2.4,3.5c0,0.1,0.2,0.1,0.3,0.1c1.2-0.1,2.5-0.2,3.7-0.2
				c1.1,0,2.3,0,3.4-0.1c1.4,0,2.8-0.1,4.3-0.2c1.5-0.1,3-0.1,4.5-0.1c0.5,0,0.9-0.1,1.4-0.1c0.1,0,0.2-0.1,0.3-0.2
				c0.3-0.6,0.6-1,1.2-1.3c0.6-0.4,1.1-0.8,1.7-1c0.7-0.2,1.2-0.1,1.5,0.4c0.1,0.3,0.2,0.6,0.3,0.9c0,0,0,0.1,0,0.2
				c0,0.4,0.2,0.5,0.6,0.4c1.4-0.1,2.7-0.3,4.1-0.3c0.6,0,1.1,0.1,1.7,0.2c0.4,0.1,0.5,0.5,0.4,0.9c-0.2,0.5-0.5,1-0.9,1.4
				c-0.1,0.1-0.2,0.2-0.2,0.3c-0.7,1.1-1.4,2.1-2,3.3c-0.4,0.7-0.7,1.5-1.1,2.2c-0.6,1.4-1.3,2.7-1.9,4.1c-0.7,1.5-1.4,3.1-2.1,4.6
				c-0.4,0.8-0.7,1.6-1.1,2.4c-0.5,1.3-1,2.6-1.5,4c-0.4,1.1-0.9,2.3-1.3,3.4c-0.1,0.4-0.2,0.7-0.4,1.1c0.4,0,0.9,0.1,1.3,0.1
				c0.8,0.1,1.6,0.1,2.3,0.2c0.9,0.1,1.8,0.3,2.7,0.5c0.2,0,0.3,0.1,0.5,0.2c0.2,0.1,0.4,0.3,0.2,0.5c-0.1,0.2-0.3,0.2-0.5,0.1
				c-0.3-0.1-0.5-0.4-0.8-0.4c-0.6-0.2-1.3-0.3-1.9-0.4c-0.7-0.1-1.4-0.2-2.2-0.2c-0.9-0.1-1.8-0.1-2.8-0.1c-0.1,0-0.1,0-0.2,0
				c-0.5-0.3-1-0.2-1.5-0.3c-1.7-0.1-3.3-0.2-4.9-0.5c-2-0.4-4-0.6-6-0.9c-0.4-0.1-0.9,0-1.3,0c-1.7,0.1-3.5,0.1-5.2,0.2
				c-1.4,0.1-2.9,0.2-4.3,0c-0.9-0.1-1.7-0.3-2.6-0.3c-1.4-0.1-2.8,0-4.3-0.1c-1.2,0-2.3-0.1-3.5-0.1c-0.6,0-1.2,0-1.7,0
				c-1.5,0.1-3,0-4.5-0.1c-1.5,0-3,0.1-4.5,0.1c-1.1,0.1-2.3,0.2-3.4,0.2c-1.1,0-2.3,0-3.4,0c-1.4,0-2.8,0.1-4.2,0.1
				c-0.9,0-1.8-0.1-2.7-0.1c-0.6,0-1.1,0.1-1.7,0.1c-0.4,0-0.8,0.1-1.2,0.1c-0.7-0.1-1.4-0.2-2.1-0.3c-0.7-0.1-1.4-0.1-2-0.1
				c-1.3,0-2.6,0.1-3.9,0.2c-0.9,0-1.9,0.1-2.8,0.1c-0.5,0-1-0.1-1.5-0.1c-0.3,0-0.6,0-0.9,0.1c-1.1,0.2-2.1-0.1-3.1-0.2
				c-0.6-0.1-1.2-0.1-1.8-0.1c-0.7,0-1.3,0-2,0c-0.3,0-0.5-0.1-0.8-0.1c-0.8,0-1.6-0.1-2.3-0.1c-1.1,0.1-2.3,0.3-3.4,0.4
				c0,0,0,0.1,0,0.1c0.4,0.1,0.7,0.2,1.1,0.3c0,0,0,0.1,0,0.1c-0.1,0-0.3,0.2-0.4,0.1c-1.5-0.4-3-0.3-4.6-0.2c-1.2,0.1-2.4,0-3.5,0
				c-1.2,0-2.4,0.1-3.7,0.2c-0.6,0-1.2,0-1.8-0.1c-1.1-0.1-2.2-0.1-3.2-0.3c-0.9-0.1-1.8-0.3-2.6-0.4c-0.3,0-0.6,0-0.9,0
				c-1,0.2-2,0.4-3,0.5c-1,0.1-1.9,0.2-2.9,0.4c-1.1,0.1-2.1,0.2-3.2,0.3c-0.1,0-0.2,0-0.3,0c-0.1-0.1-0.2-0.2-0.3-0.3
				c0.1-0.1,0.2-0.2,0.3-0.2c1.9-0.2,3.8-0.4,5.7-0.6c0.5,0,1.4-1.1,0.5-1.2c-0.8-0.1-1.5-0.2-2.3,0c-1.4,0.3-2.8,0.5-4.3,0.7
				c-0.2,0-0.3,0.2-0.5,0.2c-0.1,0-0.1,0.1-0.2,0.2c-0.5,0.1-1,0.1-1.5,0.1c-0.3,0-0.5-0.2-0.5-0.5c0-0.3,0.3-0.4,0.5-0.4
				c0.7-0.1,1.4,0,2.1-0.1c0.7-0.1,1.3-0.3,2-0.4c0.4-0.1,0.7-0.1,1.1-0.2c0.4-0.1,0.7-0.1,1.1-0.2c0-0.1,0-0.1,0-0.2
				c-0.8-1.8-1.5-3.7-2.5-5.5c-0.3-0.6-0.4-1.3-0.7-2c-0.4-1-0.8-1.9-1.2-2.9c-0.1-0.3-0.2-0.5-0.2-0.8c0-0.3-0.2-0.4-0.4-0.4
				c-0.3,0-0.9-0.6-0.8-1c0-0.2,0.2-0.4,0.3-0.4c0.6-0.3,1.3-0.6,2-0.8c0.9-0.3,1.8-0.6,2.7-0.8c0.8-0.2,1.7-0.2,2.5-0.3
				c1.4-0.2,2.7-0.4,4-0.6c0.7-0.1,1.4-0.3,2.1-0.3c1.3-0.2,2.6-0.3,3.8-0.4c0.5-0.1,0.5-0.1,0.3-0.6c-0.4-1-0.7-2.1-1.1-3.1
				c-0.5-1.5-1-3-1.6-4.5C52.4,97,52.4,96.9,52,97c-1.3,0.4-2.5,1-3.6,1.7c-0.8,0.5-1.6,1-2.4,1.3c-1.1,0.3-2.1,0.9-3.2,1.3
				c-0.9,0.3-1.8,0.5-2.7,0.8c-0.2,0-0.5,0-0.6-0.2c-0.1-0.2-0.1-0.4,0-0.6c0.3-1,1.1-1.8,1.7-2.6C41.4,98.4,41.6,98,41.8,97.7z
				 M43.2,119.6c0.3,0.8,0.3,0.8,0.9,0.8c0.6,0,1.2,0,1.7,0c1.3,0,2.5,0.1,3.8,0.1c1.5,0,3,0.1,4.5,0.1c0.7,0,1.4-0.1,2,0
				c0.9,0,1.8,0.2,2.8,0.2c1.1,0.1,2.3,0.1,3.4,0.1c1.5,0,3,0.1,4.5,0.1c1.1,0,2.2,0,3.2,0.1c1.4,0,2.8,0.1,4.3,0.1
				c2.3,0,4.5,0,6.8,0c2.1,0,4.2,0.2,6.4,0.2c1.5,0,3,0,4.5,0c1.4,0,2.7,0,4.1,0.1c1.1,0,2.3,0.1,3.4,0.1c1.6,0,3.2-0.1,4.8-0.1
				c2.2,0,4.4,0.2,6.5,0c0.9-0.1,1.8-0.1,2.7-0.2c0.8-0.1,1.7-0.1,2.5-0.1c0.8,0,1.6,0.1,2.4,0.1c0.1,0,2.3,0,2.2,0.1
				c0.3,0,4.3,0,6.1,0.1c2.5,0,4.9,0.1,7.4,0.1c2,0,4.1,0,6.1,0c2.2,0,4.3-0.1,6.5,0c1.5,0.1,3,0,4.5-0.1c1.5-0.1,2.9-0.2,4.4-0.2
				c0.2,0,0.5-0.1,0.7-0.1c0.4,0,0.7-0.1,1.2-0.1c0.2-0.7,0.5-1.6,0.8-2.5c-0.8,0.1-1.5,0.2-2.2,0.3c-0.9,0.1-1.7,0.2-2.6,0.3
				c-0.2,0-0.3-0.1-0.5-0.2c0.2-0.1,0.2-0.6,0.4-0.6c0.2-0.1,0.4,0,0.7,0c1.3-0.2,2.7-0.4,4-0.5c0.3,0,0.5-0.1,0.6-0.4
				c0.2-0.4,0.4-0.5,0.5-1c0.1-0.3,0.9-1.9,1.1-2.6c0.2-0.5,0.5-1,0.7-1.5c0.2-0.5,0.4-1,0.6-1.5c-0.5,0-0.8,0.1-1.2,0.1
				c-0.9,0.1-1.8,0.2-2.7,0.3c-1.3,0.2-2.6,0.6-3.9,0.8c-1.5,0.2-3,0.4-4.6,0.6c-1.2,0.1-2.5,0.2-3.7,0.3c-1.1,0.1-2.3,0.1-3.4,0.2
				c-0.4,0-0.8,0.2-1.2-0.2c0.2-0.1,0.3-0.4,0.5-0.4c0.4-0.1,0.7-0.1,1.1-0.1c1.4-0.1,2.8-0.2,4.1-0.4c1-0.1,1.9-0.1,2.9-0.2
				c1.4-0.1,2.7-0.3,4.1-0.5c0.8-0.1,1.7-0.4,2.5-0.5c0.5-0.1,1.1-0.3,1.6-0.4c0.9-0.1,1.8-0.2,2.7-0.3c0.4-0.1,0.8-0.2,1.1-0.2
				c0.3,0,0.4,0.2,0.5-0.1c0.4-0.9,0.9-1.7,1.3-2.6c0,0,0.7-1.1,0.9-1.5c0.4-0.8,0.7-1.6,1.1-2.4c0.1-0.1,0.1-0.3,0.1-0.5
				c-0.6,0.2-1.1,0.3-1.6,0.4c-0.6,0.1-1.1,0.3-1.7,0.4c-1.4,0.3-2.8,0.6-4.2,0.8c-1.2,0.2-2.4,0.3-3.6,0.5
				c-1.7,0.2-3.4,0.4-5.1,0.7c-1,0.1-2.1,0.3-3.1,0.4c-1.4,0.2-2.7,0.3-4.1,0.4c-0.5,0-1,0.1-1.4,0.2c-0.7,0.1-1.5,0.3-2.2,0.4
				c-1.1,0.2-2.3,0.2-3.4,0.4c-1.9,0.2-3.8,0.4-5.7,0.6c-1.6,0.2-3.2,0.3-4.9,0.5c-1.9,0.2-3.8,0.3-5.7,0.4c-1,0.1-2.1,0.1-3.1,0.2
				c-1.6,0.1-3.2,0.3-4.8,0.5c-1.8,0.2-3.6,0.1-5.5,0.3c-0.2,0-0.4,0-0.7,0c-1,0.1-2.1,0.2-3.1,0.2c-0.9,0.1-1.8,0.1-2.7,0.2
				c-0.9,0-1.9,0-2.8,0.1c-0.4,0-0.8,0-1.2,0.1c-0.6,0.2-1.3,0.2-1.9,0.2c-0.9,0-1.7,0-2.6,0.1c-0.4,0-0.9,0.1-1.3,0.1
				c-1.3,0.1-2.6,0.1-3.9,0.2c-1,0-1.9,0-2.9,0.1c-1.5,0.1-2.9,0.2-4.4,0.3c-1.6,0.1-3.3,0.1-4.9,0.2c-2,0.2-3.9,0.1-5.9,0.3
				c-1.1,0.1-2.2,0.1-3.3,0.2c-1.8,0.1-3.6,0.2-5.4,0.3c-0.7,0-1.4,0-2.2,0.1c-1.1,0-2.1,0.1-3.2,0.2c-1.5,0-3,0-4.5,0.1
				c-1,0-2,0.2-3.1,0.2c-1,0-1.9,0.1-2.9,0c-0.4,0-0.8-0.1-1.3-0.2c-0.4-0.1-0.8-0.1-1.2-0.2c0,0.2,0,0.3,0,0.4
				c0.6,1.9,1.4,3.7,2.4,5.4c0.1,0.1,0.2,0.2,0.3,0.2c1.2,0,2.3,0,3.5,0c0.8,0,1.5,0.1,2.3,0.1c1.1,0,2.1,0,3.2,0
				c1.7,0,3.4,0.1,5.1,0.1c2.3,0,4.7-0.1,7-0.1c0.8,0,1.5,0,2.3,0c0.9,0,1.8,0,2.7,0c0.2,0,0.4,0.1,0.4,0.4c0,0.2-0.1,0.4-0.4,0.4
				c-0.5,0-0.9,0.1-1.4,0.1c-1.8,0.1-3.6,0.2-5.4,0.2c-1.1,0-2.2,0-3.2,0c-1.1,0-2.2,0.1-3.2,0.1c-1.4,0-2.8,0-4.3,0
				c-0.9,0-1.7,0.1-2.6,0c-1.4-0.1-2.8-0.2-4.3-0.2C44.2,119.4,43.7,119.5,43.2,119.6z M166.7,100c-0.2,0-0.3,0-0.5,0
				c-1.2,0.2-2.3,0.4-3.5,0.6c-1.1,0.2-2.3,0.4-3.4,0.6c-0.5,0.1-1,0.2-1.5,0.3c-1.3,0.2-2.6,0.3-3.8,0.4c-1.7,0.2-3.3,0.4-5,0.6
				c-0.9,0.1-1.7,0.1-2.6,0.2c-0.6,0.1-1.3,0.2-1.9,0.2c-1,0.1-2,0.1-3,0.2c-1.7,0.2-3.4,0.4-5.2,0.6c-1.2,0.2-2.5,0.3-3.7,0.5
				c-1.3,0.2-2.6,0.4-4,0.6c-1.4,0.2-2.7,0.3-4.1,0.4c-1.6,0.1-3.2,0.2-4.8,0.3c-1.1,0.1-2.1,0.2-3.2,0.3c-0.7,0.1-1.3,0.2-1.9,0.3
				c-2.1,0.2-4.3,0.3-6.4,0.4c-0.7,0-1.5,0.1-2.2,0.2c-0.7,0.1-1.4,0.1-2.1,0.2c-1,0.1-2,0.2-3,0.3c-1.4,0.1-2.8,0.3-4.3,0.4
				c-0.1,0-0.3,0-0.4,0c-0.3,0-0.6,0-1,0c-0.4,0-0.7,0.1-1.1,0.2c-0.6,0-1.2,0.1-1.9,0.1c-0.6,0-1.2,0.1-1.9,0.1
				c-0.1,0-0.2,0-0.3,0.1c-0.2,0-0.4,0.1-0.5,0.1c-0.9,0-1.8,0.1-2.7,0.1c-0.3,0-0.5,0-0.8,0c-0.7,0.1-1.4,0.1-2.1,0.2
				c-1.8,0.1-3.6,0.2-5.3,0.3c-1.7,0.1-3.4,0.2-5.1,0.3c-0.8,0.1-1.6,0.1-2.4,0.1c-1,0-2,0-3,0c-1.4,0.1-2.7,0.2-4.1,0.3
				c-0.2,0-0.4,0.1-0.7,0.2c-0.1,0-0.1,0-0.2,0c-0.5,0-1-0.1-1.4,0c-1.4,0.1-2.8,0.3-4.3,0.3c0,0-0.1,0-0.1,0
				c-0.7,0.1-1.4,0.2-2.2,0.2c-1.3,0.1-2.6,0.1-3.9,0.2c-0.4,0-0.8,0-1.3,0c-0.6,0-1.2-0.1-1.8,0c-0.7,0.1-1.5-0.1-2.1,0.4
				c0,0-0.1,0-0.2,0c-0.4-0.1-0.7-0.1-1.1-0.1c-0.3,0-0.6,0-0.6,0.4c-0.1-0.1-0.3-0.1-0.3-0.1c-0.3-0.4-0.6-0.3-1-0.3
				c-0.1,0-0.2,0-0.4,0c-1-0.1-2-0.2-3-0.2c-0.1,0-0.3,0.1-0.3,0.2c-0.1,0.3,0.5,1.3,0.8,1.4c0.8,0.2,1.5,0.4,2.3,0.5c1,0.1,2,0,3,0
				c1.6,0,3.3-0.1,4.9-0.2c1.5-0.1,3-0.2,4.6-0.2c2.3-0.1,4.7-0.1,7-0.2c1,0,2,0,3-0.1c1.5-0.1,3-0.2,4.5-0.3c2-0.1,4.1-0.2,6.1-0.3
				c2.7-0.1,5.4-0.3,8-0.4c1.1-0.1,2.2-0.1,3.3-0.1c2.2-0.1,4.4-0.2,6.5-0.3c1.2-0.1,2.5-0.1,3.7-0.2c1.1-0.1,2.3-0.2,3.4-0.3
				c0.8-0.1,1.6-0.1,2.4-0.2c1.5-0.1,3-0.1,4.6-0.2c1.6-0.1,3.2-0.2,4.8-0.4c1.9-0.2,3.9-0.4,5.8-0.5c2-0.1,4-0.1,6.1-0.4
				c0.9-0.1,1.9-0.2,2.9-0.3c1.9-0.2,3.7-0.4,5.6-0.6c3-0.3,6.1-0.5,9-1.1c0.6-0.1,1.2-0.1,1.8-0.2c1.3-0.2,2.7-0.4,4-0.6
				c1.7-0.2,3.4-0.5,5.1-0.7c1.7-0.2,3.5-0.5,5.2-0.7c2.2-0.2,4.3-0.9,6.4-1.3c0.5-0.1,1-0.3,1.5-0.4c0.1,0,0.2-0.1,0.2-0.2
				C166.2,101.4,166.4,100.7,166.7,100z M106.8,90.8C106.8,90.8,106.8,90.8,106.8,90.8c-0.2-0.1-0.4-0.1-0.5,0
				c-0.5,0-0.6,0.1-0.3,0.6c0.3,0.6,0.7,1.3,1,1.9c0.9,1.6,1.8,3.1,2.7,4.7c0.4,0.7,0.8,1.3,1.2,2c0.3,0.4,0.6,0.6,1.1,0.5
				c1.1-0.2,2.1-0.4,3.2-0.6c1.1-0.2,2.2-0.5,3.3-0.7c1.1-0.1,1.9-0.6,2.7-1.3c1-0.9,2-1.7,3-2.6c0.1-0.1,0.2-0.2,0.2-0.3
				c0-0.3-0.1-0.6-0.1-0.8c-0.1-1-1.1-1.5-1.3-2.5c0,0-0.1-0.1-0.1-0.1c-0.3-0.4-0.6-0.8-0.8-1.3c-0.4-0.7-1-1.3-1.9-1.2
				c-0.8,0.1-1.6,0.1-2.4,0.3c-0.2,0-0.5,0-0.7,0c-0.3,0-0.7,0.1-1,0.2c-0.5,0.1-1.1,0.1-1.6,0.1c-0.5,0-1,0.1-1.4,0.2
				c-1.1,0.1-2.2,0.3-3.2,0.4C108.8,90.5,107.8,90.7,106.8,90.8z M90.8,102.2c0.1,0.2,0.2,0.4,0.4,0.5c0.2,0.1,0.5,0.1,0.8,0.1
				c0.9,0,1.9-0.1,2.8-0.1c1.9-0.1,3.8-0.2,5.6-0.2c1.8-0.1,3.6-0.2,5.4-0.3c0.5,0,0.7-0.3,0.6-0.8c-0.2-1-0.7-1.9-1.1-2.8
				c-0.4-0.8-0.8-1.6-1.2-2.4c-0.5-1-1-2.1-1.5-3.1c-0.2-0.3-0.3-0.6-0.5-0.9c-0.2-0.3-0.4-0.3-0.6-0.2c-1.1,0.8-2.2,1.7-3.3,2.5
				c-0.7,0.6-1.4,1.2-2.1,1.8c-0.6,0.5-1.1,1.1-1.7,1.6c-0.9,0.9-1.9,1.8-2.8,2.7C91.2,100.9,90.9,101.5,90.8,102.2z M157,122.7
				 M137.6,98.4C137.6,98.4,137.7,98.4,137.6,98.4c0-0.2-0.1-0.4-0.1-0.5c-0.8-1.2-1.6-2.5-2.5-3.7c-0.1-0.2-0.3-0.4-0.4-0.6
				c-0.5-0.6-1-1.1-1.6-1.7c-0.1-0.1-0.3-0.1-0.4-0.1c-1.2,0.8-2.4,1.6-3.7,2.4c-0.4,0.3-0.6,0.5-0.5,1c0.1,0.3,0.1,0.6,0.2,0.8
				c0.3,0.8,0.6,1.5,1.6,1.5c0,0,0,0,0,0c1.4,0.3,2.7,0.5,4.1,0.4c0.7,0,1.4,0.1,2.2,0.2C136.9,98.3,137.3,98.4,137.6,98.4z
				 M130.6,91.1c-0.4-0.2-0.7-0.3-1.1-0.4c-0.9-0.1-1.8-0.2-2.7-0.3c-0.2,0-0.4-0.1-0.6-0.1c-0.1,0-0.2,0-0.3-0.1
				c0.1,0.1,0.1,0.2,0.1,0.3c0.5,0.8,1.1,1.7,1.7,2.5c0,0.1,0.2,0.1,0.3,0.1C128.9,92.6,129.8,91.9,130.6,91.1z M41.1,95.2
				c0,0.1,1,1.1,1.3,0.9c0.9-0.4,1.7-0.9,2.5-1.4c0.2-0.1,0.3-0.2,0.5-0.3c-0.3-0.7-0.5-1.3-0.8-2C43.4,93.4,42.2,94.3,41.1,95.2z"
				/>
		</g>
	</g>
</g>
</svg>
