<?xml version="1.0" encoding="utf-8"?>
<!-- Generator: Adobe Illustrator 27.1.1, SVG Export Plug-In . SVG Version: 6.00 Build 0)  -->
<svg version="1.1" id="Layer_1" xmlns="http://www.w3.org/2000/svg" xmlns:xlink="http://www.w3.org/1999/xlink" x="0px" y="0px"
	 viewBox="0 0 200 200" style="enable-background:new 0 0 200 200;" xml:space="preserve">
<style type="text/css">
	.st0{fill:#A13F36;}
</style>
<g>
	<path class="st0" d="M103.4,67.6l0.2,0l0-0.1c0.1-0.3,0.3-0.6,0.4-0.9l0.1-0.3l0,0l0.1-0.1c0.1-0.3,0.2-0.5,0.3-0.8
		c0-0.2,0.1-0.3,0.1-0.5l0-0.2v0c0.1-0.6,0.1-1.3,0.2-1.9c-1.4,0-2.9,0.1-4.5,0.2l-9.2,0.6c-2.2,0.1-5.3,0.2-9.4,0.2
		c-2.9,0-5.2-0.1-6.8-0.2c-2.4-0.1-3.7-0.2-4.2-0.2c-2.2,0-3.3,0.6-3.3,1.8c0,1.2,1.1,1.8,3.4,1.8c4.5,0,7.8,1.7,9.9,5.1
		c1.4,2.2,2.3,5.3,2.8,9.1c1.9-0.1,3.8-0.4,5.6-1c2.7-0.8,4.9-2.3,7.3-3.6v-0.8c0-3.4,0.6-5.6,1.8-6.7c0.1-0.1,0.3-0.2,0.5-0.3
		l0.2-0.1c0.1-0.1,0.2-0.1,0.3-0.2l0.3-0.1l0.3-0.1c0.1,0,0.3-0.1,0.4-0.1l0.3-0.1c0.2,0,0.3-0.1,0.5-0.1l0.3-0.1
		c0.2,0,0.4-0.1,0.6-0.1l0.3,0c0.2,0,0.5-0.1,0.7-0.1L103.4,67.6z"/>
	<path class="st0" d="M151.2,125.3c-3.9-5.2-8.8-8.5-14.8-9.8c-2.8-0.6-4.2-1.2-4.3-1.7c-0.1-0.3,0.3-0.7,1.1-1.2l3.5-2.5
		c7.2-4.8,10.8-11.6,10.8-20.3c0-8.4-3.5-15.1-10.4-19.9c-4.5-3.2-10.2-5.3-17-6.3c-0.3,2.1-1.1,4.2-2.3,5.9c0.8,0.3,1.7,0.6,2.5,1
		l0.3,0.1c0.8,0.4,1.5,0.8,2.2,1.2c0.1,0.1,0.2,0.1,0.4,0.2c0.7,0.4,1.4,0.9,2.1,1.4l0.3,0.2c0.7,0.5,1.4,1.1,2.1,1.7
		c5.9,5.2,8.8,11.6,8.8,19.2c0,12.4-6.9,18.5-20.6,18.5h-13.6c-2.5,0-4-0.2-4.6-0.7c-0.6-0.5-0.9-1.7-0.9-3.6V86.8
		c-3.8,2-8.2,2.6-12.6,2.7v61.9c0,5.8-0.4,10.7-1.2,14.6c-0.9,4.5-3.6,7.1-8.3,7.7c-1.6,0.2-2.5,0.8-2.5,1.7c0,1.2,0.8,1.8,2.3,1.8
		c1.1,0,3-0.2,5.6-0.5c1.8-0.2,4-0.3,6.6-0.3c2.6,0,6,0.1,10.4,0.4l6.6,0.4l7.6,0.3l6.3,0.2c11.4,0,20.8-3.3,28.3-9.8
		c7.4-6.5,11.1-14.8,11.1-24.9C157,136.4,155.1,130.5,151.2,125.3 M137.9,166.5c-4.8,4.5-11.4,6.8-20,6.8c-6.7,0-11.6-0.5-14.8-1.5
		c-3.2-1-5.2-2.7-6-5l-0.5-3.2l0.2-3.8v-37.8c0-1.4,0.3-2.2,0.8-2.6c0.5-0.4,1.8-0.5,3.7-0.5h16.2c7.9,0,14.5,2.7,19.8,8.2
		c5.2,5.5,7.8,12.3,7.8,20.6C145,155.7,142.6,162,137.9,166.5"/>
	<path class="st0" d="M108.6,30.2c-7.6-5.9-17.6-8.8-29.8-8.8c-2.3,0-5.4,0.1-9,0.4c-7.1,0.6-12.6,1-16.3,1c-2.4,0-5.4-0.3-9.1-0.8
		c-1.9-0.3-3.4-0.4-4.5-0.4c-2.2,0-3.4,0.7-3.4,2.1c-0.1,1.1,0.7,1.7,2.3,1.8c5.9,0.6,9.5,2.6,11,5.8c1.5,3.2,2.2,11,2.2,23.3v53.2
		c0,11.6-0.8,19.6-2.5,24c-1.7,4.4-4.8,7-9.3,7.7c-1.9,0.3-2.9,1-2.9,2.1c0,1.1,0.8,1.7,2.3,1.7c1.1,0,2.7-0.1,5-0.4
		c1.8-0.2,4.4-0.4,7.8-0.4l6.8-0.1l6.2,0.2c4.2,0,7.3,0.1,9.1,0.2c2.9,0.2,4.9,0.4,5.9,0.4c2.2,0,3.2-0.7,3.1-2.2
		c-0.1-1-1-1.5-2.7-1.5c-1.6,0-4.1-0.4-7.3-1.3c-4.6-1.2-7.3-5.3-7.9-12.4l-0.3-7.4l0.1-8.5V36.5l0.1-2.5c0-2.5,0.4-4.1,1.3-5
		c0.9-0.9,2.5-1.3,4.8-1.3c10.2,0,18.7,2.9,25.3,8.7c6.7,5.8,10,13.1,10,22c0,1.5-0.1,2.9-0.3,4.3c-0.2,1.7-0.6,3.3-1.1,4.8
		c-1.2,3.6-3.3,6.7-6.1,9.4c-0.8,0.7-1.6,1.4-2.5,2c-3.6,2.5-7.8,4.1-12.7,4.7c-1.6,0.2-3.2,0.3-5,0.3c-3,0-5.1-0.2-6.5-0.6
		c-0.7-0.2-1.3-0.3-1.8-0.3c-1,0-1.5,0.4-1.7,1c-0.1,0.9,1.4,1.8,4.4,2.6c3.1,0.8,6.4,1.2,10.1,1.2c0.2,0,0.3,0,0.5,0
		c4.3-0.1,8.5-0.9,12.6-2.4c3.2-1.2,6.3-2.8,9.3-4.9c4.6-3.2,8-7,10.4-11.4c1-1.8,1.7-3.7,2.3-5.7c0.9-3.1,1.4-6.4,1.4-10
		C120,43.8,116.2,36.1,108.6,30.2"/>
</g>
</svg>
