<?xml version="1.0" encoding="utf-8"?>
<!-- Generator: Adobe Illustrator 27.1.1, SVG Export Plug-In . SVG Version: 6.00 Build 0)  -->
<svg version="1.1" id="Layer_1" xmlns="http://www.w3.org/2000/svg" xmlns:xlink="http://www.w3.org/1999/xlink" x="0px" y="0px"
	 viewBox="0 0 200 200" style="enable-background:new 0 0 200 200;" xml:space="preserve">
<style type="text/css">
	.st0{fill:#CBC87C;}
</style>
<g>
	<path class="st0" d="M113,161.2c0.1,0.4,0.2,0.8,0.4,1.3c0.5-0.4,1-0.8,1.5-1.2c2-1.6,3.6-3.5,5.3-5.4c0.1-0.2,0.4-0.2,0.6-0.4
		c0.1,0,0.1,0.1,0.2,0.1c-0.1,0.2-0.1,0.4-0.3,0.6c-1,1.2-2,2.5-3,3.7c-2.2,2.5-4.8,4.5-8,5.6c-0.7,0.3-1.5,0.4-2.3,0.5
		c-2.6,0.5-5.2,1.1-7.8,1.5c-1.4,0.2-2.9,0.2-4.3,0.3c-0.5,0-1,0.1-1.5,0.1c-0.7,0-1.4,0.2-2.1-0.2c-0.4-0.2-1.1-0.1-1.7,0
		c-0.9,0.2-1.9-0.1-2.8,0.4c0,0-0.1,0.1-0.2,0c-0.5-0.3-1-0.2-1.5-0.2c-0.7,0-1.5-0.2-2.2-0.2c-3,0-6-0.2-8.9-0.6
		c-0.9-0.1-1.9-0.1-2.8-0.2c-1.1-0.1-2.3-0.2-3.4-0.3c-0.5-0.1-1.1-0.3-1.6,0c-0.2,0.1-0.5,0-0.7,0c-1.1-0.3-2.2-0.5-3.3-0.8
		c-0.3-0.1-0.5-0.2-0.8-0.3c-0.6-0.3-1.3-0.5-1.9-0.8c-0.7-0.4-1.3-0.8-1.9-1.3c-1-0.9-2.1-1.8-3-2.9c-0.7-0.8-1.1-1.8-1.7-2.6
		c-1.1-1.6-1.1-3.4-1.2-5.2c0-0.3-0.1-0.7-0.1-1c-0.1-0.6-0.2-1.2-0.2-1.9c0.1-2.5,0.2-5,0.3-7.4c0.1-2.4,0-4.8,0.1-7.2
		c0-1.6,0.2-3.1,0.3-4.7c0.1-2,0.1-4,0.1-5.9c0-0.1,0-0.3-0.1-0.3c-0.7-0.4-0.4-1.1-0.3-1.6c0.1-0.6,0.4-1.3,0.4-1.9
		c0.2-2.6,0.3-5.2,0.4-7.8c0-0.6,0-1.2,0-1.8c0-0.1-0.1-0.3-0.2-0.4c-0.5-0.2-0.5-0.6-0.4-1c0.2-1.1,0.5-2.2,0.7-3.4
		c0.2-1.1,0.2-2.1,0.3-3.2c0.1-1.9,0.2-3.9,0.3-5.8c0-1.8-0.1-3.6,0-5.3c0-2.5,0.2-5,0.2-7.5c0-1.6,0-3.3,0.1-4.9
		c0.1-1.6,0.2-3.3,0.3-4.9c0.1-2.9,0.1-5.9,0.2-8.8c0-0.2-0.2-0.4-0.4-0.5c-0.3-0.3-0.4-0.6,0-0.7c0.4-0.2,0.5-0.5,0.5-0.8
		c0-1.8-0.1-3.6-0.1-5.4c0-2.9,0.1-5.7,0.2-8.5c0-1.6,0.1-3.3,0.1-4.9c0-1.8,0-3.6,0.1-5.4c0-0.5,0.4-1.1,0.7-1.5
		c0.4-0.5,0.9-1,1.5-1.4c0.8-0.6,1.6-1.2,2.7-1.2c1,0,1.6-0.8,2.3-1.3c0,0,0.1-0.1,0.1-0.1c1.4-0.6,2.6-1.8,4.3-2
		c0.9-0.1,1.7-0.5,2.5-0.7c0.6-0.2,1.2-0.4,1.8,0.1c0.4,0.4,0.9,0.2,1.3,0c1.2-0.4,2.4-0.5,3.6-0.4c1.7,0,3.3-0.1,5-0.2
		c0.7,0,1.3,0.1,2,0.1c1.3,0,2.6,0.3,3.8-0.3c1-0.4,2.1-0.4,3.2-0.1c1,0.3,2.1,0.4,3.1,0.4c1.4,0.1,2.7,0,4.1,0
		c0.9,0,1.9-0.1,2.8-0.1c0.7,0,1.3,0.1,2,0.2c0.2,0,0.3,0.1,0.5,0.1c0.8-0.3,1.6-0.2,2.5-0.1c0.4,0.1,0.9,0,1.2,0.4
		c0,0.1,0.1,0.1,0.2,0.1c1.1,0.3,2.3,0.4,3.4,0.8c1.4,0.5,2.8,0.8,3.9,1.9c0.7,0.6,1.5,1.1,2.2,1.7c0.8,0.6,1.2,1.2,1.4,2.1
		c0.1,0.4,0.2,0.9,0.4,1.3c0.6,1.2,0.5,2.6,0.4,3.8c-0.3,2.9,0.1,5.8,0.2,8.7c0,0.4,0.3,0.7,0.5,1.1c0.1,0.3,0.3,0.6,0.5,0.8
		c0.4,0.5,0.8,1,1.3,1.3c0.9,0.6,1.9,1.1,3.1,1.1c0.7,0,0.9,0.3,0.8,1c-0.1,0.5,0,0.9,0.5,1c0.1,0,0.2,0.3,0.2,0.4
		c0.1,0.4,0.1,0.8,0.2,1.2c0.3,1-0.1,1.9-1,2.4c-0.3,0.1-0.5,0.3-0.8,0.4c-0.4,0.2-0.8,0.2-1-0.3c-0.2-0.5,0.2-0.6,0.5-0.8
		c0.9-0.4,1.2-1.4,0.7-2.2c-0.1-0.2-0.2-0.5-0.3-0.7c-1.8,0.4-2.5,1.2-2.5,3c0,1.2,0,2.4,0,3.6c0,0.1,0,0.3,0.1,0.6
		c0.4-0.4,0.8-0.7,1.1-1.1c0.4-0.3,0.8-0.6,1.3-0.3c0.5,0.2,0.4,0.7,0.3,1.1c0,0.1,0,0.1,0,0.2c0.7-0.4,1.3-0.9,2-1.3
		c0.2-0.1,0.5-0.2,0.8-0.3c0.3-0.1,0.7,0,0.7,0.3c0,0.2-0.2,0.6-0.4,0.6c-0.9,0.1-1.3,0.6-1.8,1.2c-0.6,0.8-1.4,1.6-2,2.4
		c-0.3,0.3-0.5,0.7-0.7,1.1c-0.4,0.9-1,1.6-1.8,2.2c-0.3,0.2-0.6,0.5-0.8,0.9c-0.2,0.5-0.5,0.8-1.2,0.5c0,0.5,0,1,0,1.5
		c0,1.4-0.1,2.8-0.1,4.2c0,0.3,0,0.5,0.3,0.6c0.1,0,0.3,0.3,0.3,0.4c-0.3,2.5,0.1,5,0.2,7.5c0.1,2.8,0.2,5.5,0.3,8.3
		c0.1,2.2,0,4.4,0.1,6.6c0,1.8,0.2,3.5,0.2,5.3c0,1.2-0.1,2.4,0,3.6c0.1,1.9,0.2,3.8,0.3,5.7c0.1,1.3,0.2,2.6,0.3,3.8
		c0.1,1.4,0.8,2.4,2.3,2.8c0.5,0.1,0.9,0.2,1.4,0c0.5-0.2,1.1-0.1,1.7,0c1.5,0.2,2.9,0.5,4.3,0.8c2.1,0.4,4.1,0.3,5.9-1
		c0.4-0.3,1-0.3,1.4-0.6c1-0.7,2-1.5,2.9-2.3c0.4-0.3,0.6-0.9,0.8-1.4c0.7-1.9,1.5-3.8,2-5.8c0.5-1.8,0.8-3.7,1-5.6
		c0.3-3.2,0.5-6.3,0.7-9.5c0.2-3,0.3-6.1,0.3-9.1c0-2.1-0.3-4.3-0.4-6.4c-0.1-1.2-0.2-2.4-0.5-3.6c-0.2-1.2-0.5-2.3-0.8-3.5
		c-0.2-1-0.4-2.1-0.8-3c-0.5-1.5-1.5-2.8-2.5-3.9c-0.5-0.6-1-1.2-1.7-1.6c-0.4-0.3-1-0.5-1.5-0.8c-0.2-0.1-0.4-0.3-0.5-0.5
		c-0.1-0.1-0.2-0.3-0.4-0.4c-1.7-0.4-3.4-0.8-5.1-1.3c-0.3-1-0.3-1,0.7-1.4c1.3-0.5,2.7-0.7,4.2-0.4c1.3,0.2,2.5,0.5,3.7,1.2
		c0.2,0.1,0.5,0.3,0.6,0.5c1.6,1.6,2.9,3.6,4,5.5c0.5,0.8,1.1,1.6,1.5,2.5c0.5,1.2,1.1,2.3,1.4,3.6c0.5,2,1,3.9,1.7,5.9
		c0.4,1.2,0.6,2.5,0.7,3.8c0.2,3.1,0.2,6.2,0.3,9.4c0,1.9,0.1,3.7,0,5.6c-0.1,2.6-0.4,5.3-0.9,7.9c-0.3,1.3-0.5,2.6-0.8,3.9
		c-0.6,2.5-1.1,4.9-2.2,7.2c-0.6,1.3-1.3,2.6-2,3.8c-0.2,0.3-0.5,0.6-0.9,0.8c-1.8,1.2-3.5,2.6-5.6,3.1c-1.1,0.3-2.3,0.2-3.5,0.3
		c-1.1,0-2.1,0.1-3.2,0c-1.4-0.1-2.8-0.2-4.2-0.4c-1.3-0.1-2.5-0.4-3.7-0.5c-0.5-0.1-0.8,0.1-1,0.7c-0.5,2-0.6,3.9-0.2,5.9
		c0,0.1,0.1,0.2,0.1,0.3c2-1.2,4.3-1.4,6.5-1.6c1.7-0.2,3.4-0.2,5.2-0.3c0.7,0,1.3,0,2,0c1.7,0.1,3.4,0.1,5,0.4
		c1.6,0.2,3.2,0.6,4.6,1.4c0.1,0,0.1-0.1,0.1-0.1c0.1-1.2,1-2.1,1.4-3.2c0.2-0.7,0.4-1.5,0.4-2.2c0.1-1.5,0.7-2.8,1.1-4.1
		c0.6-1.8,1-3.6,1.5-5.4c0.3-1.1,0.6-2.2,0.9-3.3c0.1-0.5,0.3-1.1,0.4-1.6c0.3-1.6,0.7-3.1,1-4.7c0.2-1.2,0.3-2.4,0.5-3.6
		c0.4-2.1,0.2-4.2,0.3-6.3c0-1.4-0.1-2.9-0.1-4.3c0-1.2,0.2-2.3,0.2-3.5c-0.1-2.5-0.3-5-0.5-7.4c-0.1-0.8-0.2-1.7-0.3-2.5
		c-0.1-0.6-0.2-1.1-0.5-1.7c-0.3-0.7-0.3-1.6-0.5-2.4c-0.4-1.8-0.3-3.7-1-5.4c-0.3-0.7-0.5-1.5-0.5-2.3c-0.1-1.5-0.8-2.7-1.4-4
		c-0.5-1-1-1.9-1.6-2.8c-1.1-1.5-2.2-3-3.7-4.2c-1.1-0.8-1.5-2.1-1.9-3.3c-0.3-0.8-0.3-1.8-1.3-2.1c-0.3-0.1-0.7-0.1-1.1,0
		c-0.9,0.1-1.9-0.2-2.8,0.4c-0.2,0.1-0.5,0.4-0.6,0.6c-0.6,1.1-1.2,2.2-2.2,2.9c0,0-0.1,0.1-0.1,0.1c-1.5,0.5-3.1,1.2-4.7,0.8
		c-0.4-0.1-0.8-0.4-1.2-0.7c-0.1-0.1-0.2-0.2-0.2-0.2c-0.1-0.1-0.3-0.2-0.4-0.3c0.2-0.1,0.3-0.3,0.5-0.4c0.3-0.2,0.6-0.2,0.9-0.4
		c0.5-0.2,0.8-0.6,0.9-1.2c0.3-1.2,1.1-2.1,2-2.9c0.6-0.6,1.3-0.9,2.1-1c1.2-0.2,2.4-0.4,3.6-0.2c0.3,0.1,0.6,0,0.9,0
		c1.5,0,3.1-0.1,4.6,0c1.7,0.1,3.3,0.6,4.6,1.8c0.8,0.7,1.1,1.8,0.7,2.8c-0.1,0.2,0,0.4,0,0.6c0,0.1,0.1,0.2,0.1,0.3
		c0.1,1.5,1.1,2.5,1.8,3.6c0.9,1.6,2.1,3.2,2.8,4.9c0.4,1,1,1.9,1.4,2.9c0.6,1.5,1.1,3.1,1.5,4.6c0.5,1.7,0.9,3.3,1.1,5
		c0.4,2.8,0.8,5.7,1,8.5c0.2,2.8,0.2,5.5,0.2,8.3c0,2,0,3.9-0.1,5.9c-0.3,4.9-0.5,9.8-1.5,14.6c-0.8,3.5-1.8,7-2.8,10.5
		c-0.6,2.2-1.2,4.3-1.8,6.5c-0.5,1.5-1,3.1-1.5,4.6c0,0.1-0.1,0.3-0.3,0.4c-0.8,0.4-1.3,1.1-1.8,1.7c-0.2,0.2-0.5,0.1-0.8,0.2
		c-0.5,0-0.9,0-1.4,0c-0.2,0-0.3,0.1-0.5,0c-1.5-0.5-3.1-0.5-4.7-0.6c-2.7-0.1-5.3-0.1-8,0.4c-1.7,0.3-3.3,0.6-4.9,1
		c-1.6,0.4-3.2,0.9-4.8,1.3c-0.8,0.2-0.8,0.4-0.7,1.2c0.1,1.2,0.2,2.5,0.3,3.7c0.1,1.5,0.2,3,0.4,4.5c0,0.1,0,0.2,0,0.3
		c0,1.1,0,1.1-1,1.3c-0.3,0.1-0.6,0.1-0.7,0.6c0,0.1-0.3,0.3-0.3,0.3c-0.4-0.1-1-0.2-1.2-0.5c-0.5-0.6-1.1-1.2-0.8-2.2
		c0.1-0.3,0-0.7-0.1-1c0-0.4,0-0.8,0.4-0.8c0.5-0.1,0.6,0.3,0.7,0.6c0,0.1,0,0.2,0,0.3c0.1,0.1,0.2,0.1,0.3,0.2
		c0-0.1,0.1-0.3,0.1-0.4c-0.1-0.3-0.3-0.5-0.3-0.8c-0.2-1.6-0.4-3.2-0.6-4.8c-0.1-1.1-0.3-2.1-0.5-3.2c0-0.1-0.1-0.2-0.1-0.3
		c-0.1,0-0.1,0-0.2,0c0,0.3-0.1,0.7-0.1,1c0,0.6,0.1,1.2,0.1,1.9c0,0.4-0.1,0.9-0.2,1.3c0,0.4,0,0.7-0.1,1.1c0,0.3-0.2,0.5-0.3,0.7
		c-0.2-0.2-0.4-0.3-0.5-0.5c-0.1-0.6-0.2-1.1-0.3-1.7c-0.2-1.8-0.4-3.6-0.6-5.4c0-0.3-0.1-0.7-0.1-1c0-0.8,0.1-0.9,1-0.8
		c0.1-1.1,0.1-2.2,0.2-3.5c-0.1,0.3-0.2,0.5-0.3,0.5c-0.2,0.1-0.5,0.3-0.7,0.3c-0.1,0-0.2-0.4-0.3-0.6c0-0.1,0-0.2,0.1-0.3
		c0.8-1.1,0.6-2.4,0.5-3.6c-0.1-1.5-0.2-2.9-0.3-4.4c0-0.4,0.1-0.6,0.5-0.7c0.4-0.1,0.5,0.3,0.5,0.6c0.1,2.2,0.2,4.5,0.4,6.7
		c0,0.2,0,0.4,0,0.6c0.7,0,0.8,0.4,0.8,1c0.2,2,0.5,4.1,0.8,6.1c0.2,1.7,0.5,3.3,0.7,5c0,0.1,0.1,0.3,0.2,0.4c0-0.2,0-0.5,0-0.7
		c0.1-1,0.2-2,0.2-3c0-0.4,0-0.8-0.1-1.3c-0.1-0.8-0.3-1.6-0.4-2.4c0-0.2,0.2-0.4,0.3-0.7c0.1-0.2,0.2-0.4,0.2-0.6
		c-0.1-1.2-0.2-2.5-0.3-3.7c-0.2-1.8-0.2-3.5,0.3-5.2c0.1-0.3,0.1-0.5-0.2-0.6c-0.1,0-0.2-0.2-0.2-0.3c-0.3-1.3-0.6-2.6-0.7-3.9
		c-0.2-1.5-0.2-3.1-0.4-4.6c-0.1-1.2-0.4-2.4-0.5-3.7c-0.1,0-0.1,0-0.2,0c0.1,1.5,0.1,3,0.2,4.4c0,0.4,0,0.7,0,1.1
		c0,0.4,0,0.7,0.1,1.1c0.2,1.6,0.4,3.1,0.6,4.7c0,0.4,0,0.7-0.5,0.8c-0.4,0.1-0.5-0.3-0.6-0.7c-0.1-1.1-0.1-2.2-0.2-3.2
		c-0.1-1.1-0.5-2.1-0.6-3.1c-0.1-2.2-0.1-4.4,0-6.6c0-1.2,0.1-2.4,0.2-3.7c0.3-3,0.6-6.1,1-9.1c0.1-1.1,0.4-2.1,0.5-3.2
		c0.1-0.5,0-1-0.1-1.5c0-0.8,0-1.6,0-2.4c0-1.2,0.1-2.5,0.1-3.7c0-0.1,0-0.3-0.1-0.3c-0.5-0.2-0.5-0.6-0.5-1c0-1.6-0.1-3.3-0.1-4.9
		c0-0.2-0.1-0.4-0.1-0.6c-0.1,0-0.1,0-0.2,0c-0.1,0.6-0.2,1.2-0.2,1.8c-0.1,1.8-0.1,3.6-0.3,5.3c-0.2,2.5-0.5,5-0.8,7.5
		c-0.5,3.5-0.5,7-0.5,10.5c0,0.9,0.1,1.8-0.4,2.7c-0.2,0.3,0,0.8-0.1,1.2c-0.1,1.2,0.1,2.3-0.3,3.5c-0.3,0.8,0,1.7,0,2.5
		c0,1.2,0,2.4,0,3.6c0.1,2,0.2,3.9,0.4,5.9c0,0.5,0.2,1.1-0.5,1.4c-0.1,0-0.1,0.3-0.1,0.5c0,0.6,0.1,1.2,0,1.7
		c-0.2,1.4-0.2,2.8,0,4.1c0.2,1.9,0.4,3.8,0.6,5.7c0,0.2,0.1,0.4,0,0.6c-0.1,0.2-0.2,0.5-0.3,0.7c-0.2,0.2-1.6-0.1-1.7-0.5
		c-0.2-0.5-0.4-1.1-0.5-1.7c-0.3-1.4-0.5-2.7-0.8-4.1c0-0.2-0.1-0.3-0.3-0.5c0.1,0.8,0.2,1.6,0.2,2.5c0,0.4,0.1,0.9,0.2,1.3
		c0.1,0.2,0.2,0.5,0.3,0.7c0.1,0.1,0.2,0.3,0.1,0.4c-0.5,0.9-0.1,1.8-0.2,2.6c0,0.1,0,0.3,0,0.3c-0.1,0.1-0.2,0.3-0.4,0.4
		c-0.1,0-0.3-0.1-0.4-0.2c-0.1-0.2-0.2-0.4-0.2-0.7c-0.1-0.6-0.5-1-1.1-0.9c-0.4,0.1-0.7,0.3-1.1,0.4c-0.2,0-0.5-0.1-0.8-0.1
		c-0.1,0.1-0.2,0.5-0.5,0.1c-0.1,0.1-0.1,0.1-0.1,0.1c-0.1,0.4-0.3,0.8-0.7,0.6c-0.2-0.1-0.3-0.6-0.2-0.9c0.6-1.7,1.3-3.4,1.9-5.1
		c0.1-0.3,0.1-0.7,0-1c-0.1-0.4-0.4-0.8-0.6-1.3c-0.2-0.3-0.4-0.4-0.5,0c-0.5,1.1-0.9,2.3-1.4,3.4c0.1,0.1,0.2,0.1,0.3,0.2
		c0.2-0.3,0.5-0.6,0.7-0.9c0.2-0.2,0.3-0.6,0.6-0.3c0.1,0.1,0.1,0.5,0,0.7c-0.4,0.6-0.9,1.2-1.3,1.7c-0.1,0.2-0.3,0.3-0.5,0.4
		c-0.5-0.4-0.4-1-0.2-1.4c0.4-1.2,0.7-2.4,1.2-3.6c0.3-0.8,0.6-1.6,0.2-2.4c-0.1-0.2-0.1-0.5,0-0.8c0.2,0.3,0.5,0.5,0.7,0.8
		c0.7-0.7,0.8-1.4,0.3-2.1c-0.2-0.4-0.5-0.8-0.7-1.1c-0.1-0.1-0.2-0.2-0.5-0.4c-0.3,0.7-0.6,1.4-0.9,2c-0.2,0.5-0.3,1-0.5,1.6
		c-0.1,0.2,0,0.5,0,0.7c-0.1,0.4-0.2,0.7-0.3,1.1c0,0.1-0.3,0.2-0.4,0.2c-0.1-0.1-0.3-0.2-0.3-0.4c0-0.2,0-0.4,0.1-0.6
		c0.6-1.6,1.2-3.2,1.8-4.9c0.1-0.2,0-0.5,0-0.8c-0.1-0.5-0.1-1-0.2-1.5c0.1,0,0.2,0,0.3-0.1c0.2,0.3,0.3,0.6,0.6,1.1
		c0.5-0.9,0.9-1.7,1.4-2.5c0-0.1,0-0.2,0-0.3c-0.3-0.4-0.6-0.9-0.9-1.3c-0.1,0-0.1,0-0.2,0c-0.3,0.8-0.7,1.6-1,2.5
		c-0.2,0.6-0.4,1.3-0.6,1.9c-0.1,0.4-0.2,0.6,0.2,0.9c0.2,0.1,0.4,0.4,0.1,0.7c-0.2,0.2-0.5,0.4-0.8,0.6c-0.1-0.3-0.4-0.6-0.4-0.8
		c0.2-1.1,0.6-2.2,0.9-3.3c0.3-0.9,0.7-1.8,1-2.7c0.3-0.7,0.2-0.9-0.5-1.3c-0.5,0.8-1.1,1.5-1.6,2.2c-0.2,0.3-0.6,0.4-0.9,0.6
		c0-0.4-0.2-0.8-0.1-1.1c0.3-1,0.6-1.9,0.9-2.8c0.3-0.9,0.6-1.9,1.2-2.7c0.5-0.7,0.4-1.5,0.1-2.3c0-0.1-0.1-0.2,0-0.3
		c0.2,0.2,0.3,0.5,0.5,0.7c0.5-0.4,0.7-0.9,0.4-1.4c-0.3-0.5-0.6-1-0.9-1.6c-0.1,0.2-0.3,0.3-0.3,0.4c-0.6,1.3-1.2,2.7-1.8,4
		c-0.1,0.2-0.1,0.5-0.1,0.7c0,0.1,0.1,0.2,0,0.3c-0.1,0.3-0.3,0.5-0.4,0.8c0,0-0.3,0-0.3,0c-0.1-0.3-0.2-0.6-0.1-0.8
		c0.4-1.2,0.9-2.5,1.4-3.7c0.3-0.6,0.5-1.3,0.9-1.9c0.4-0.6,0.1-1-0.3-1.5c-0.4,0.6-0.7,1.2-0.8,1.9c-0.1,0.5-0.4,1-0.7,1.4
		c0,0.1-0.3,0.1-0.4,0.1c-0.1,0-0.2-0.2-0.1-0.3c0.2-0.6,0.4-1.2,0.6-1.8c0.1-0.2,0.2-0.4,0.4-0.7c0.4-0.7,0.8-1.4,0.7-2
		c0.3-0.3,0.5-0.5,0.7-0.7c0.1-0.1,0.1-0.2,0.2-0.3c0.5-0.8,0.9-1.7,0.3-2.7c-0.2-0.4-0.2-0.9-0.1-1.3c0.2,0.5,0.5,1.1,0.8,1.7
		c0.5-0.9,0.9-1.6,1.3-2.4c0-0.1,0-0.2,0-0.3c-0.4-0.7-0.7-1.3-1.2-2.1c-0.3,0.6-0.6,1-0.8,1.5c-1,1.9-2,3.9-2.9,5.8
		c-0.2,0.3-0.2,0.8-0.3,1.1c-0.1,0.2-0.4,0.4-0.5,0.5c-0.1-0.2-0.3-0.5-0.2-0.7c0.2-0.5,0.5-1,0.7-1.4c0.9-1.8,1.8-3.7,2.7-5.6
		c0,0,0-0.1,0-0.3c-0.2,0.1-0.2,0.2-0.3,0.3c-0.1,0.1-0.3,0.1-0.4,0.2c-0.1-0.2-0.2-0.3-0.2-0.5c0-0.3,0.1-0.5,0.2-0.8
		c0.4-1,0.8-2.1,1.2-3.1c0.5-1,1-1.9,1.5-2.8c0.2-0.4,0.3-0.7,0-1.1c-0.3-0.5-0.6-1-0.9-1.7c-0.7,1.1-1.1,2.2-1.3,3.4
		c0.4-0.5,0.8-0.9,1.2-1.4c0,0,0.1,0,0.1,0.1c0,0.1,0.1,0.3,0,0.4c-0.5,0.8-1.1,1.6-1.6,2.4c-0.1,0.1-0.3,0.2-0.5,0.2
		c-0.1-0.2-0.2-0.4-0.2-0.5c0.3-1.1,0.6-2.2,1-3.3c0.2-0.5,0.5-1,0.7-1.5c0.3-0.6,0.3-1.2-0.1-1.8c-0.1,0-0.1,0-0.1,0
		c-0.8,0.2-0.9,0.2-0.7-0.6c0.3-1,0.6-2,1.1-2.9c0.4-0.8,0.3-1.4-0.2-2c-0.3-0.4-0.5-1-0.7-1.5c-0.1-0.2-0.2-0.4-0.3-0.8
		c-0.6,1-1,1.9-1.1,2.9c0,0,0.1,0.1,0.1,0.1c0.3-0.3,0.6-0.7,0.9-1c0.1-0.1,0.3-0.2,0.4-0.3c0,0.2,0.1,0.4,0.1,0.5
		c-0.4,0.6-0.8,1.2-1.3,1.8c-0.1,0.2-0.4,0.2-0.6,0.3c-0.1-0.2-0.3-0.4-0.2-0.6c0.2-0.9,0.3-1.9,0.7-2.7c0.6-1.3,1.4-2.6,2.2-3.8
		c0.5-0.9,0.4-1.2-0.5-1.8c-0.5,0.7-0.9,1.5-0.9,2.4c0,0.4-0.1,0.6-0.5,0.7c-0.3-0.3-0.4-0.7-0.2-1.1c0.3-0.7,0.6-1.5,1-2.2
		c0.2-0.4,0.1-0.7-0.1-1c-0.8-1.1-0.8-1.1-1.5,0.1c-0.2,0.3-0.2,0.7-0.4,1c-0.1,0.2-0.3,0.3-0.5,0.4c0-0.2-0.1-0.5,0-0.7
		c0.3-0.6,0.6-1.1,0.9-1.7c0.2-0.3,0.3-0.7,0.2-1.1c-0.1-0.2,0-0.4,0-0.8c0.3,0.2,0.4,0.3,0.7,0.5c0.6-0.8,1.1-1.6,1.7-2.5
		c0.1-0.1,0.1-0.2,0-0.3c-0.3-0.6-0.6-1.2-0.9-1.8c-0.3,0.4-0.6,0.7-0.9,1.1c-0.6,0.9-1.2,1.8-1.7,2.7c-0.1,0.1-0.3,0.2-0.5,0.3
		c0-0.2-0.2-0.5-0.1-0.7c0.7-1.1,1.5-2.2,2.3-3.2c0.7-0.9,0.7-1.4-0.1-2.5c-0.3,0.4-0.6,0.9-0.9,1.3c0,0,0,0.1-0.1,0.2
		c-0.2,0.2-0.4,0.3-0.5,0.5c0,0-0.2-0.1-0.2-0.2c0.1-0.2,0.1-0.4,0.3-0.6c0.4-0.4,0.8-0.8,1.2-1.3c0.1-0.1,0.2-0.4,0.2-0.5
		c0-0.1-0.3-0.2-0.5-0.2c-1.4,0.1-2.8,0.2-4.2,0.2c-1.4,0.1-2.8,0.1-4.2,0.1c-1.5,0-3.1,0-4.6,0.1c-0.8,0-0.9,0.2-0.8,1
		c0.3,2.1,0.6,4.1,0.9,6.2c0.3,2.7,0.1,5.3,0,8c-0.1,2.2-0.3,4.5-0.4,6.7c-0.1,2.9-0.3,5.8-0.3,8.7c0,2,0.2,3.9,0.3,5.9
		c0.1,2.2,0.1,4.3,0.1,6.5c0,1.1,0,2.2,0,3.3c0,1.8,0,3.6,0,5.5c0.1,2.4,0.2,4.9,0.3,7.3c0.2,3.2,0.4,6.5,0.6,9.7c0.1,2,0.4,4,0.5,6
		c0,0.1,0.1,0.3,0.1,0.6c0.3-0.5,0.5-0.8,0.7-1.1c0.2-0.3,0.3-0.9,0.9-0.6c0.2,0.1,0.3,0.7,0.4,1c0.3-0.1,0.7-0.3,1,0.4
		c0.4-0.4,0.7-0.7,1-1c0.5-0.4,0.6-0.4,0.9,0.2c0.1,0.3,0.9,0.4,1.2,0.2c0.2-0.1,0.3-0.3,0.5-0.4c0.2-0.1,0.4-0.1,0.6,0
		c0.3,0.1,0.5,0.2,0.7,0.3c0.8,0.3,1.6,0,2.4-0.3c0.5-0.2,1-0.2,1.5-0.3c0.3-0.1,0.7-0.2,1-0.3c0.3-0.1,0.6-0.2,0.7-0.1
		c0.2,0.2,0.2,0.5,0.2,0.8c0,0.1,0,0.2,0,0.3c-0.2,0.3-0.4,0.7-0.7,0.9c-0.1,0.1-0.5-0.3-0.7-0.4c-0.4,0.1-0.8,0.2-1.2,0.3
		c-0.1,0-0.2,0.1-0.2,0.2c-0.3,0.4-0.6,0.7-1.1,0.2c0,0-0.2,0-0.4,0.1c-0.3,0-0.5,0-0.8,0.1c-0.2,0-0.4,0.1-0.6,0.3
		c-0.3,0.3-0.6,0.6-1,0.2c-0.1,0-0.2,0-0.3,0c-0.3,0-0.5,0-0.8,0c-0.2,0-0.4,0-0.5,0.1c-0.4,0.3-0.7,0.6-1.1,0.1
		c-0.2-0.2-0.6-0.2-0.9-0.3c-0.1-0.1-0.1-0.2-0.2-0.3c-0.1,0.2-0.3,0.5-0.4,0.7c-0.3,0.4-0.7,0.5-1.1,0.2c-0.1-0.1-0.3-0.1-0.4,0
		c-0.5,0.4-0.8,0.2-1.1-0.2c0,0-0.1,0-0.2-0.1c-0.1,0.6-0.3,1.2-0.1,1.8c0.2,0.9-0.1,1.7,0,2.6c0,1,0.1,2,0.1,3.1
		c0.1,1.5,0.1,3,0.1,4.5c0,1-0.1,2-0.1,3c0,0.4,0.1,0.9,0.2,1.3c0.9,0.6,1.4-0.2,2-0.5c0.2-0.1,0.5-0.1,0.8-0.2
		c-0.1,0.3-0.1,0.5-0.2,0.8c-0.1,0.2-0.3,0.4-0.5,0.7c0.6-0.3,1.1-0.5,1.6-0.7c0.5-0.3,0.9-0.5,1.2,0.3c0.6-0.2,1.1-0.4,1.6-0.5
		c0.2,0,0.5,0.1,0.7,0.2c0.2,0,0.3,0.1,0.5,0.1c0.3,0,0.6-0.2,0.9-0.2c0.2,0,0.4,0,0.5,0.1c0.4,0.6,0.8,0.2,1.2,0.1
		c1.3-0.3,2.6-0.6,3.9-0.8c0.2,0,0.4,0.3,0.8,0.6c0.2-0.1,0.5,0,0.9,0.2c0.7,0.3,1.3,0.9,2.2,0.6c0.4-0.1,0.7,0.1,1,0.5
		c0.1,0.1,0.3,0.2,0.5,0.3c0.3,0.1,0.6,0.2,0.9,0.3c0.2,0.1,0.4,0.1,0.6,0.1C112.1,161.1,112.5,161.1,113,161.2
		C113,161.1,113,161.1,113,161.2z M87.6,140.1c0-0.9-0.5-1.2-1.4-1.2c-0.1,0.1-0.3,0.3-0.4,0.5c-0.6,0.9-0.5,0.9,0.3,1.6
		c0.3,0.2,0.5,0.2,0.7-0.1C87.1,140.6,87.4,140.3,87.6,140.1c-0.1,0.4-0.3,0.9-0.5,1.4c-0.2,0.4,0.1,0.7,0.4,0.8
		c0.1,0.1,0.4-0.2,0.5-0.3c0.1-0.1,0.2-0.2,0.2-0.3c0.1,0,0.1,0,0.2,0c0,0.3,0,0.6-0.1,1c-0.1,0.6,0.1,1,0.9,1.2
		c0-2.6-0.3-5.1-0.6-7.6c-0.4,0.5-0.7,1-1.1,1.5c-0.2,0.3-0.2,0.5,0,0.8c0.4,0.7,0.7,1.3,1,2c0.2,0.3,0.1,0.6-0.2,0.9
		c-0.1-0.3-0.2-0.6-0.4-0.9C87.9,140.4,87.8,140.2,87.6,140.1z M95.3,34.4c0.3,0.1,0.6,0.1,0.8,0.2c0.5,0.3,0.8,0.1,0.8-0.6
		c-0.2,0-0.5,0.2-0.6,0.1c-0.2-0.1-0.4-0.4-0.5-0.5c0.2-0.2,0.5-0.5,0.6-0.5c0.5,0.2,0.6-0.2,0.9-0.3c0.5-0.2,1.1-0.3,1.6-0.2
		c0.5,0.1,0.1,0.6,0.1,0.9c0,0,0,0.1,0.1,0.2c0.3-0.2,0.5-0.4,0.8-0.6c0.2-0.2,0.4-0.4,0.6-0.4c0.1,0,0.3,0.3,0.4,0.5
		c0.1,0.1,0.1,0.2,0.2,0.4c0.3-0.2,0.6-0.4,1-0.6c0.2-0.1,0.4,0,0.6-0.1c0,0.2,0,0.4,0,0.5c0,0.1-0.1,0.3-0.2,0.6
		c0.5-0.2,0.8-0.3,1-0.5c0.4-0.2,0.7-0.4,1,0.1c0.1,0.1,0.2,0.1,0.3,0.2c0.3,0,0.6,0,0.8,0.1c0.6,0.1,1.3,0.2,1.9,0.2
		c0.4,0,0.6,0.1,0.6,0.5c0,0.2,0,0.3-0.1,0.6c0.5-0.2,1-0.3,1.4-0.4c0.5-0.1,0.6-0.1,0.6,0.5c0,0.1,0,0.2,0,0.3
		c0.1,0,0.2,0.1,0.3,0.1c0.7,0.1,1.1,0.4,1,0.8c-0.1,0.7-0.6,0.6-1.1,0.5c-0.1,0-0.4,0.1-0.4,0.2c0,0.2,0.1,0.4,0.2,0.5
		c0.2,0.1,0.5,0.1,0.7,0.1c0.6,0,1.2,0,1.9,0c0.9,0,1.8,0.1,2.8,0.1c0-1.1-0.2-1.3-1.1-1.6c-0.2-0.1-0.5-0.3-0.5-0.5
		c-0.1-0.5-0.3-0.7-0.7-0.8c-0.2-0.1-0.4-0.2-0.5-0.4c-0.8-0.8-1.7-1.3-2.9-1.3c-0.3,0-0.6-0.3-0.9-0.4c-0.1-0.1-0.2-0.2-0.4-0.2
		c-1.1-0.2-2.3-0.4-3.4-0.6c-0.1,0-0.2-0.1-0.4-0.2c-0.7-0.2-1.3-0.6-1.9-0.5c-0.9,0.2-1.6,0.1-2.5,0c-2.1-0.1-4.2,0-6.3-0.1
		c-0.9,0-1.7,0.1-2.6,0c-0.8-0.1-1.6-0.3-2.4-0.6c-0.6-0.2-1.2-0.4-1.8-0.2c-0.2,0.1-0.4,0.1-0.6,0.2c-1.3,0.7-2.7,0.3-4.1,0.3
		c-0.6,0-1.1-0.1-1.7-0.1c-1,0.1-2,0.2-3.1,0.3c-0.6,0.1-1.3,0.1-1.9,0.1c-0.4,0-0.9-0.2-1.3-0.2c-1,0.1-2,0.4-2.9,0.6
		c-0.5,0.1-0.9,0.2-1.4-0.1c-0.3-0.2-0.7-0.3-1-0.2c-0.9,0.2-1.9,0.6-2.8,0.8c-1.6,0.3-2.9,1.2-4.2,2.1c-0.9,0.7-1.7,1.4-2.9,1.5
		c-0.3,0-0.6,0.2-1.1,0.3c0.4,0.3,1-0.1,1,0.5c0,0.5-0.4,1.2-0.8,1.2c-0.8,0-0.7-0.7-0.9-1.3c-0.8,0.7-1.6,1.3-2.4,1.9
		c0.7,0,1.3-0.2,1.9-0.3c2-0.2,4.1-0.3,6.1-0.4c3.3-0.2,6.7-0.5,10-0.4c2.4,0.1,4.9-0.2,7.3-0.2c1.5,0,3,0.1,4.5,0.1
		c2.4,0,4.7,0.1,7.1,0.1c0.3,0,0.6,0,0.8-0.1c0.1,0,0-0.4,0-0.6c0-0.1,0-0.2,0.1-0.3c0.1-0.6,0.2-1.2,0.3-1.7c-0.5,0-1-0.1-1.4-0.1
		c-0.4-0.1-0.7-0.5-0.4-0.8c0.5-0.5,1.1-0.9,1.7-1.2c0.2-0.1,0.6,0.1,0.9,0.2c0,0,0.1,0,0.1,0c0.4-0.1,0.6,0,0.8,0.5
		C95,33.8,95.5,34,95.3,34.4c-0.2,0.2-0.4,0.4-0.8,0.7c0.7,0.2,0.8,0.5,0.6,1c0,0.1,0.1,0.4,0.3,0.4c0.2,0,0.5,0,0.7-0.1
		c0.2,0,0.3-0.2,0.4-0.3c-0.1-0.1-0.2-0.3-0.3-0.4C95.8,35.3,95.2,35.1,95.3,34.4z M56.3,142.2c0.9-0.7,1-0.6,1.6,0.2
		c0.3,0.4,0.6,0.6,1.2,0.4c0.4-0.2,0.7-0.2,1.2,0c0.6,0.2,1.3,0.2,2,0.4c0.1-0.4,0.1-0.7,0.2-1c-0.5-0.1-0.5-0.4-0.5-0.8
		c0-1.7,0-3.5-0.2-5.2c-0.4-2.7-0.9-5.5-0.7-8.3c0-0.7,0.2-1.3,0.2-2c0-3,0-5.9,0-8.9c0-3.1,0.2-6.1,0.2-9.2c0-2.4,0-4.7,0-7.1
		c0-0.8-0.1-1.6-0.1-2.4c0-0.9-0.1-1.7-0.1-2.6c0-2.7,0-5.4,0-8.1c0-0.7,0.1-1.3,0.1-2c0-0.6,0.1-1.3,0.1-1.9c-0.1,0-0.1,0-0.2,0
		c-1.4,3-2.8,6-4.2,8.9c0,0-0.1,0-0.1,0c0-0.1,0-0.3,0-0.4c0.8-2,1.6-4,2.5-6c0.5-1.2,1.1-2.4,1.6-3.7c0.6-1.5,0.4-3.2,0.3-4.8
		c0-0.6-0.1-1.2-0.2-1.9c0,0-0.1,0-0.1,0c-1.5,3.3-3,6.5-4.5,9.8c0,0-0.1,0-0.1,0c0-0.1,0-0.3,0-0.4c0.4-1,0.7-2,1.1-3
		c1-2.3,2-4.6,3-6.8c0.3-0.7,0.8-1.3,0.9-2c0.4-1.5,0.3-3.1,0.1-4.7c-0.2,0.7-0.5,1.3-0.5,2c0,1-0.4,1.8-0.8,2.6
		c-1.2,2.1-2.4,4.1-3.6,6.1c-0.1,0.1-0.2,0.1-0.3,0.2c-0.1,0-0.1-0.1-0.2-0.1c0.1-0.3,0.1-0.6,0.3-0.8c1.1-2,2.3-4,3.5-5.9
		c0.5-0.8,0.4-1.5,0.2-2.3c-0.3-1,0-2,0.3-2.9c0.2-0.6,0.8-0.8,1.4-1c0.5-0.2,0.6,0,0.6,0.4c0,0.7,0.1,1.4,0.1,2
		c0.1,2.9,0.2,5.8,0.2,8.7c0,2.3-0.1,4.5-0.2,6.8c-0.1,1.7-0.3,3.4,0.1,5c0.1,0.2,0,0.4,0,0.6c0,2,0.1,4.1,0.1,6.1
		c0,1.6,0.1,3.1,0.2,4.7c0.1,2.5,0,5.1,0.3,7.6c0.3,3.4,0.4,6.9,0.4,10.4c0,1.9,0,3.8,0,5.7c0,1.1,0.1,2.2,0.2,3.4
		c0.2,2.9,0.3,5.8,0.5,8.7c0.1,1.1,0,2.2,0,3.3c0,0.1,0.1,0.3,0.1,0.4c1.2-0.6,1.2-0.6,1.7,0.2c0.2-0.1,0.3-0.2,0.5-0.2
		c0.2,0,0.6-0.1,0.6,0.1c0.4,0.6,0.8,0.2,1.1,0c1-0.5,1-0.5,1.4,0.2c0.5,0.1,1,0.1,1.3,0.2c0.3,0.1,0.4,0.2,0.7,0
		c0.5-0.3,1-0.6,1.4,0c0.5-0.1,0.9-0.3,1.3-0.2c0.3,0.1,0.5,0.1,0.8-0.1c0.5-0.4,0.8-0.3,1,0.3c0,0.1,0.1,0.2,0.1,0.2
		c0.5,0,0.9-0.1,1.3,0c0.3,0.1,0.4,0.2,0.7,0.1c0.1-0.1,0.4-0.1,0.4-0.1c0.4,0.3,0.8,0,1.1-0.2c0.5-0.2,1.1-0.3,1.4-0.7
		c1.2-1.4,2.3-2.8,3.5-4.3c0.1-0.1-0.1-0.4-0.2-0.6c0-0.1-0.4,0-0.5,0c-0.6,0.7-1.1,1.4-1.6,2.1c-0.2,0.2-0.4,0.4-0.6,0.6
		c0-0.3,0.1-0.6,0.1-0.9c0,0,0.1-0.1,0.1-0.1c0.5-0.7,1.1-1.4,1.6-2.1c0.1-0.1,0.2-0.4,0.1-0.5c-0.4-0.5-0.8-1-1.2-1.5
		c-0.3,0.3-0.5,0.5-0.7,0.7c-0.1,0-0.1-0.1-0.2-0.1c0.1-0.7,0.2-1.5,0.3-2.1c0.3-0.2,0.5-0.2,0.6-0.4c0.3-0.4,0.6-0.8,0.8-1.2
		c0.1-0.1,0.2-0.4,0.1-0.5c-0.4-0.8-0.9-1.6-1.4-2.4c-0.1,0-0.2,0-0.3,0c-0.2,0.4-0.3,0.8-0.5,1.2c-0.1,0.2-0.3,0.3-0.4,0.5
		c-0.1-0.2-0.3-0.5-0.2-0.6c0.2-0.5,0.4-0.9,0.7-1.4c0.2-0.3,0.2-0.5,0.1-0.9c-0.2-0.5-0.4-1-0.6-1.5c-0.1-0.2,0-0.5,0.1-0.7
		c0.4-0.8,0.8-1.5,1.3-2.3c0.3-0.5,0.7-1,0.4-1.7c0-0.1,0.1-0.2,0.1-0.3c0.2,0.2,0.3,0.3,0.5,0.5c0.5-0.7,1-1.4,1.5-2.1
		c0.1-0.1,0.1-0.3,0-0.4c-0.2-0.4-0.5-0.9-0.8-1.3c-0.1,0.1-0.2,0.1-0.2,0.2c-0.9,1.3-1.7,2.6-2.6,3.8c-0.1,0.2-0.3,0.2-0.5,0.3
		c0-0.2-0.1-0.5-0.1-0.6c0.7-1.1,1.3-2.2,2.1-3.1c0.7-0.9,1-1.7,0.2-2.6c-0.1-0.1-0.1-0.3-0.2-0.5c-0.2-0.4-0.4-0.7-0.6-1.1
		c-0.1,0-0.1,0-0.2,0c0,0-0.1,0.1-0.1,0.1c-0.5,0.7-1.2,1.4-1.1,2.4c0,0.1-0.2,0.3-0.3,0.4c-0.1-0.1-0.3-0.2-0.4-0.4
		c-0.1-0.1,0-0.3,0-0.4c0.5-0.9,0.9-1.7,1.4-2.6c0.2-0.3,0.3-0.6,0.5-0.9c0.3-0.3,0.6-0.4,0.9-0.7c1.1-1.3,1.2-1,0.2-2.4
		c-0.6-0.8-0.6-0.8-1.2,0c-0.5,0.6-0.9,1.3-1.3,2c-0.1,0.2-0.2,0.4-0.4,0.6c0,0-0.3-0.1-0.3-0.1c0-0.3,0-0.6,0-0.8
		c0-0.1,0.1-0.1,0.1-0.2c0.5-0.7,1-1.4,1.5-2.2c0.2-0.2,0.4-0.6,0.4-0.8c-0.3-0.6-0.7-1.2-1.2-2c-0.2,0.5-0.3,0.9-0.5,1.2
		c-0.1,0.1-0.3,0.2-0.4,0.3c-0.1-0.1-0.2-0.3-0.2-0.4c0-0.1,0-0.3,0.1-0.4c0.5-0.9,1.1-1.7,1.6-2.6c0.1-0.2,0.2-0.4,0.1-0.5
		c-0.2-0.4-0.4-0.8-0.7-1.2c-0.1,0.2-0.2,0.4-0.3,0.5c-0.1,0.1-0.3,0.2-0.5,0.3c-0.1-0.2-0.2-0.4-0.2-0.6c0-0.1,0.1-0.3,0.2-0.4
		c0.3-0.3,0.3-0.6,0.2-1.1c-0.1-0.3-0.1-0.7-0.1-1c0.1,0,0.1,0,0.2,0c0.1,0.3,0.3,0.5,0.4,0.9c0.6-0.9,1.2-1.7,1.6-2.6
		c0.1-0.3-0.4-0.9-0.7-1.3c0,0-0.2,0.1-0.3,0.2c-0.3,0.3-0.6,0.6-0.9,0.8c-0.2,0.1-0.5,0.1-0.8,0.2c0.1-0.2,0.2-0.5,0.3-0.7
		c0.3-0.3,0.7-0.6,1-0.9c0.1-0.1,0.3-0.4,0.2-0.6c-0.1-0.4-0.4-0.9-0.6-1.3c-0.2,0.2-0.4,0.4-0.5,0.6c0,0-0.1,0-0.1-0.1
		c0.1-0.3,0.2-0.6,0.3-0.8c0.4-0.8,0.8-1.7,1.2-2.5c0.1-0.2,0.1-0.5,0.1-0.7c-0.3-0.7-0.6-1.3-1-1.9c-0.1,0-0.1,0.1-0.2,0.1
		c-0.2,0.1-0.3,0.1-0.5,0.2c0-0.2,0-0.4,0-0.6c0-0.1,0.1-0.2,0.2-0.2c0.4-0.6,0.8-1.1,1.2-1.7c0.4-0.6,0.2-1.5-0.4-1.9
		c-0.1,0-0.2-0.1-0.3,0c-0.6,0.2-0.5-0.2-0.5-0.5c0-0.3,0-0.6-0.1-0.9c-0.1-0.4-0.4-0.8-0.6-1.2c-0.1-0.3-0.1-0.7-0.2-1
		c0,0,0.1,0,0.1,0c0.4,0.6,0.8,1.3,1.1,1.9c0.1-0.1,0.2-0.1,0.2-0.1c0.6-0.9,1.1-1.8,1.6-2.7c0.1-0.1,0.1-0.3,0-0.3
		c-0.3-0.4-0.6-0.8-0.8-1.2c-0.1,0-0.1,0-0.2,0c-0.2,0.5-0.3,0.9-0.6,1.4c-0.1,0.2-0.3,0.2-0.4,0.4c-0.1-0.2-0.3-0.4-0.3-0.6
		c0.1-0.3,0.3-0.7,0.5-1c0.1-0.3,0.5-0.7,0.4-0.9c-0.2-0.6-0.6-1.1-1-1.7c0-0.1-0.2,0-0.3,0c-0.4,0.1-0.5-0.2-0.4-0.4
		c0.1-0.4,0.3-0.9,0.6-1.2c0.5-0.7,1.1-1.2,1.7-1.9c0.3-0.3,0.2-0.5,0-0.8c-0.9-1-1.9-2-2.8-3c-0.1-0.1-0.1-0.4-0.2-0.6
		c0.2,0,0.5-0.1,0.7,0c0.3,0.3,0.6,0.6,0.9,0.9c0.7,0.7,1.4,1.5,2.2,2.3c1.2-1.3,2.3-2.5,3.4-3.7c0-0.1-0.1-0.1-0.1-0.2
		c-0.3,0-0.6,0-0.9,0c-1,0-2,0.1-2.9,0.1c-1.7,0-3.5,0-5.2,0c-2.5,0-5,0-7.5-0.1c-2.5-0.1-5-0.2-7.5-0.4c-0.8-0.1-1.7-0.2-2.5-0.3
		c-0.3,0-0.5,0-0.6,0.4c-0.1,0.4-0.3,0.9-0.5,1.3c-0.3,0.5-0.6,0.9-1.2,0.6c-0.7,1.2-1,1.9-0.8,2.6c0.1-0.3,0.2-0.6,0.3-0.9
		c0.1-0.2,0.3-0.2,0.5-0.3c0.1,0.2,0.2,0.4,0.2,0.6c-0.3,1.1-0.7,2.1-1.1,3.2c-0.1,0.3-0.3,0.7-0.5,0.9c-0.1,0.1-0.4,0.2-0.6,0.2
		c0-0.2,0-0.4,0.1-0.5c0.2-0.4,0.3-0.7-0.3-0.8c0,0.4-0.1,0.7-0.1,1c-0.1,3.4-0.1,6.7-0.2,10.1c0,1.5-0.1,3-0.2,4.5
		c-0.1,3.1-0.1,6.2-0.2,9.4c0,0.3-0.1,0.7,0,0.8c0.7,0.3,0.2,0.8,0.2,1.2c0,0.2-0.1,0.6,0,0.7c0.5,0.4,0.2,0.9,0.1,1.3
		c-0.1,0.2-0.2,0.5-0.1,0.6c0.4,0.5,0.2,0.9,0,1.4c-0.2,0.7-0.4,1.4-0.6,2.2c0.3,0,0.5-0.1,0.7-0.1c0,0.2,0.1,0.4,0.1,0.6
		c0,0.3-0.2,0.8,0,0.9c0.7,0.5,0.3,1.1,0.2,1.6c-0.1,0.4-0.2,0.8,0.3,1.1c0.1,0.1,0.2,0.4,0.1,0.6c-0.3,1.5-0.7,3-1,4.5
		c0,0.2-0.1,0.3-0.1,0.5c0.1,0,0.1,0,0.2,0.1c0.1-0.2,0.1-0.3,0.2-0.5c0.3-0.7,0.5-1.5,0.8-2.2c0.1-0.1,0.3-0.2,0.5-0.3
		c0,0.2,0.2,0.4,0.1,0.6c-0.1,0.5-0.3,0.9-0.5,1.4c-0.2,0.7-0.4,1.4-0.6,2.1c0.3-0.1,0.5-0.1,0.7-0.2c0.1,0.3,0.2,0.5,0.1,0.8
		c-0.1,0.4-0.3,0.8-0.4,1.2c-0.1,0.2-0.1,0.6,0,0.7c0.7,0.4,0.4,0.9,0.3,1.4c-0.1,0.3-0.2,0.6-0.3,1.1c0.2-0.1,0.2-0.1,0.3-0.2
		c0.2-0.1,0.5-0.3,0.7-0.4c0,0.3,0.2,0.6,0.1,0.9c-0.2,0.8-0.4,1.5-0.6,2.2c0,0.1,0,0.3-0.1,0.6c0.2-0.2,0.3-0.3,0.5-0.4
		c0.2-0.1,0.4-0.2,0.5-0.1c0.1,0.1,0.2,0.3,0.3,0.5c0,0.2,0,0.3-0.1,0.5c-0.2,0.8-0.5,1.6-0.7,2.4c0,0.1-0.1,0.4-0.1,0.4
		c0.6,0.3,0.5,0.8,0.4,1.3c0.7-0.2,0.9,0,0.8,0.6c-0.1,0.4-0.2,0.7-0.3,1.1c0,0.2-0.1,0.4,0,0.5c0.3,0.4,0.2,0.9,0.1,1.3
		c0,0.2,0,0.4,0,0.6c0,0.5,0.1,1,0.1,1.5c0,0.4-0.2,0.8-0.2,1.1c0,0.1,0.1,0.3,0.1,0.5c0.1,0.3,0.3,0.5,0.4,0.8
		c0.1,0.1,0.1,0.2,0.2,0.3c0.4,0.2,0.8,0.3,1.2,0.5c0.1,0.1,0.2,0.2,0.3,0.3c0.3,0.3,0.6,0.7,1,0.8c0.5,0.1,0.9,0.3,1.2,0.7
		c0.4,0.5,0.5,1.1,0.4,1.7c-0.1,0.5-0.4,0.5-0.8,0.3c-0.3-0.2-0.7-0.4-1-0.5c-0.3-0.1-0.7-0.1-1-0.4c-0.1-0.2-0.6-0.2-0.8-0.3
		c-0.2-0.1-0.4-0.2-0.7-0.3c-0.3-0.2-0.9-0.5-1-0.4c-0.5,0.4-0.8,0.3-1-0.1c-0.3,0.1-0.5,0.2-0.7,0.4c-0.1-0.2-0.2-0.5-0.3-0.7
		c-0.1-0.3-0.3-0.5-0.5-0.8c-0.9,2.1-0.9,2.1-0.7,2.5c0.2-0.1,0.4-0.3,0.7-0.5c-0.1,0.5-0.1,0.8-0.2,1.1c0,0.4,0.1,0.8,0.1,1.2
		c-0.3,1.9-0.8,3.8-0.6,5.8c0,0.4,0,0.9,0,1.3c0.1,0,0.1,0,0.2,0c0.1-0.9,0.3-1.7,0.4-2.6c0.2-1.7-0.1-3.4,0.7-5
		C54.8,141.9,55.5,141.6,56.3,142.2z M114.2,40.5c-0.6,0.4-1.2,0.8-1.9,0.6c-0.5-0.1-0.9-0.3-0.9-0.8c0-0.3,0.2-0.6,0.3-0.9
		c0.4,0.2,1-0.2,1.4,0.3c0.1,0.1,0.4,0.2,0.5,0.1c0.2-0.2,0.4-0.4,0.6-0.6c-0.2-0.1-0.4-0.3-0.6-0.3c-1.2-0.1-2.5-0.1-3.7-0.1
		c-2,0-4-0.1-6-0.2c-1.3,0-2.6,0-4,0c-1.3,0-2.5-0.1-3.8-0.2c-1.1,0-2.2,0.1-3.4,0.1c-2.3,0-4.6-0.1-6.9-0.1c-2.3,0-4.5-0.1-6.8-0.1
		c-1.9,0-3.8,0.2-5.6,0.3c-3.4,0.1-6.9,0.2-10.3,0.3c-2.4,0.1-4.8,0.2-7.3,0.3c-0.8,0-0.9,0.1-0.8,0.9c0,1.9,0.1,3.8,0.1,5.7
		c0,2.3-0.2,4.6-0.3,6.9c0,0.8-0.1,1.5-0.1,2.3c0,2.3,0.1,4.5,0.1,6.8c0,0.9,0,1.7,0,2.5c0.2,0.1,0.2,0.1,0.2,0.1
		c0.9,0.2,2-0.3,2.8,0.5c0,0,0.1,0,0.1,0c1.4,0.1,2.8,0.4,4.3,0.4c4.5,0.2,8.9,0.3,13.4,0.4c2.6,0.1,5.2,0,7.8,0
		c2.1,0,4.3-0.1,6.4-0.1c0.3,0,0.6,0,0.9-0.1c0-1.8,0-1.9,0.7-2c-0.1,0.3-0.2,0.5-0.1,0.8c0,0.2,0.1,0.6,0.2,0.7
		c0.2,0.1,0.5,0,0.9-0.1c-0.2-0.3-0.4-0.4-0.4-0.6c0-0.2,0-0.5,0.1-0.7c0.1-0.1,0.4-0.1,0.6-0.1c0.5,0.1,0.7,0.6,0.5,1.2
		c-0.1,0.2-0.2,0.5-0.4,0.8c0.8,0,1.6,0,2.5,0c-0.6-1.1-0.2-2,0.4-2.9c0.2-0.3,0.6-0.3,0.8-0.1c0.2,0.2,0.3,0.6,0.4,0.9
		c0.1,0.2,0.1,0.4,0.2,0.5c0.1,0.2,0.3,0.4,0.4,0.7c-0.3,0.1-0.5,0.2-0.8,0.3c-0.2,0.1-0.5,0.2-0.7,0.3c0,0.1,0,0.1,0.1,0.2
		c0.1,0,0.1,0.1,0.2,0c2.3-0.2,4.5-0.4,6.8-0.4c1.3,0,2.4-0.8,3.8-0.5c0,0,0,0,0.1,0c1.3-0.2,2.6-0.4,3.8-0.6c0.3,0,0.5-0.2,0.5-0.6
		c0-0.9,0.1-1.7,0.2-2.6c0.1-1.6,0.2-3.1,0.4-4.7c0-0.3,0.2-0.7,0.3-1c0-0.1,0.3-0.2,0.4-0.2c0.1,0,0.3,0.3,0.3,0.3
		c-0.2,0.5,0,1,0.1,1.5c0,0.2-0.2,0.4-0.2,0.6c-0.1,0.3-0.4,0.7-0.4,1c0,0.8,0.1,1.6,0.1,2.4c0,0.3,0.3,0.6,0.3,0.9
		c0.1,0.3,0.1,0.6,0.1,1c-0.2,0-0.5,0-0.8,0.1c0,0-0.1,0.2-0.1,0.3c-0.1,0.7,0,0.8,0.7,0.7c0.9-0.1,1.7-0.3,2.6-0.4
		c0.8-0.1,1.5-0.2,2.4-0.2c0-0.2,0-0.5,0-0.8c0.1-1,0.1-2.1,0.2-3.1c0.1-0.6,0.2-1.2,0.4-1.7c0.1-0.6,0.3-1.2,0.4-1.9
		c-0.4-0.5-0.8-1.1-1.4-1.7c-0.5-0.6-0.8-1.3-0.8-2.1c-0.1-1.6-0.3-3.2-0.3-4.8c0-1.5,0.1-3.1,0.1-4.7c0-0.7-0.1-1.4-0.1-2.1
		c-0.1,0-0.1,0-0.2,0C115.6,41.1,115.3,41.2,114.2,40.5z M64.1,159.1c0.8,0.2,1.5,0.5,2,0.9c0.3,0.3,0.1,1.1-0.3,1.2
		c-0.4,0.1-0.8,0.3-1.2,0.3c-0.4,0-0.5,0.2-0.6,0.5c-0.2,0.5-0.3,1-0.6,1.5c-0.1,0.2-0.4,0.3-0.6,0.5c-0.1-0.2-0.2-0.4-0.3-0.6
		c0-0.1,0-0.3,0-0.4c-0.2,0.1-0.3,0.3-0.3,0.5c-0.5,1.2-0.5,1.2,0.8,1.2c2.5,0,4.9,0.2,7.4,0.2c2.1,0,4.1-0.1,6.2-0.1
		c0.4,0,0.9,0,1.3,0c0.5-0.1,1-0.3,1.6-0.3c1,0,2.1,0.1,3.1,0.1c0.2,0,0.4-0.2,0.7-0.3c-0.1-0.3-0.2-0.6-0.4-0.8
		c-0.1-0.1-0.4,0-0.5,0c-0.3,0.1-0.6,0.4-0.9,0.4c-0.6,0.1-0.8-0.2-0.6-0.8c0.1-0.2,0.2-0.4,0.2-0.6c0,0-0.1-0.1-0.1-0.1
		c-0.2,0.1-0.3,0.2-0.5,0.3c-0.4,0.2-0.8,0.5-1.2,0.7c-0.2,0.1-0.6-0.1-0.7-0.2c-0.1-0.2-0.1-0.5,0-0.7c0-0.2,0.1-0.4,0.2-0.5
		c-0.3-0.2-0.6-0.3-0.7-0.6c-0.1-0.2,0-0.5,0.1-0.8c-1.4,0.3-1.4,0.3-1.4-0.7c-1,0-1.8,0.6-1.9,1.3c-0.3-0.3-0.6-0.5-0.8-0.9
		c-0.1-0.1,0.1-0.5,0.2-0.5c0.7-0.3,1.3-0.6,2-0.7c0.8-0.1,1.6-0.7,2.4,0.1c0.1,0.1,0.2,0,0.3,0c0.3-0.1,0.6-0.2,0.9-0.3
		c0.3-0.1,0.6-0.2,0.8-0.1c0.2,0.1,0.2,0.5,0.3,0.8c0.3-0.1,0.6-0.3,0.9-0.4c0.2-0.1,0.5,0,0.7,0c-0.1,0.2-0.1,0.5-0.3,0.7
		c-0.3,0.3-0.6,0.6-0.9,0.9c0,0,0.1,0.1,0.1,0.1c0.2-0.1,0.3-0.2,0.5-0.3c1.1-0.6,2.2-1.2,3.3-1.8c0.2-0.1,0.4,0,0.6,0
		c0,0.2,0,0.4-0.1,0.5c-0.3,0.3-0.6,0.6-0.9,0.9c-0.3,0.3-0.5,0.5-0.8,0.7c0,0,0.1,0.1,0.1,0.1c0.1,0,0.2-0.1,0.3-0.1
		c0.7-0.4,1.4-0.8,2-1.3c0.5-0.3,0.9-0.4,1.1,0.3c0.4-0.2,0.7-0.4,1-0.5c0.2-0.1,0.6,0,0.7,0.1c0.3,0.7,0.5,0.3,0.8,0
		c-0.5-0.3-0.6-0.8-0.5-1.3c0.1-1.1,0.2-2.2,0.2-3.4c0-0.7-0.1-0.7-0.7-0.5c-1.1,0.3-2.2,0.6-3.4,1c-1.1,0.3-2.2,0.4-3.1,1.3
		c-0.1,0.1-0.5,0-0.7,0c0-0.2,0-0.5,0.2-0.7c0.1-0.1,0.3-0.2,0.5-0.3c1.2-0.4,2.5-0.8,3.7-1.2c0.2-0.1,0.4-0.2,0.6-0.3
		c-0.2-0.1-0.3-0.1-0.4-0.1c-0.7,0-1.4,0.1-2,0c-0.2,0-0.4-0.2-0.6-0.3c0.1-0.2,0.2-0.4,0.3-0.5c0.1-0.1,0.3-0.2,0.6-0.5
		c-0.4,0-0.6,0-0.8,0c-0.3,0-0.7,0-1,0c-0.2,0-0.4-0.2-0.4-0.4c0-0.1,0.2-0.3,0.3-0.4c0.3-0.2,0.8-0.2,1-0.5
		c0.4-0.6,1.1-0.7,1.7-0.9c0.1,0,0.1-0.1,0.3-0.1c-0.2,0-0.3-0.1-0.4-0.1c-0.5,0.1-1,0.2-1.5,0.2c-0.2,0-0.5-0.2-0.7-0.4
		c0.2-0.2,0.4-0.3,0.6-0.5c0.1,0,0.2,0,0.3,0c1.3-0.1,2.5-0.3,3.8-0.4c0.2,0,0.4,0.1,0.6,0.1c0,0.1,0,0.1,0,0.2
		c-0.5,0.2-1,0.4-1.5,0.6c0.8,0.1,1.6,0.3,2.4,0.4c0-0.3,0-0.7,0-1.1c0-0.4-0.2-0.5-0.5-0.5c-1.2,0-2.5,0-3.7-0.1
		c-1.2-0.1-2.3-0.3-3.5-0.1c-0.3,0.1-0.7,0-1.1-0.1c-2.1-0.3-4.3-0.7-6.4-1c-0.7-0.1-1.4-0.2-2.2-0.4c-0.1,0-0.4-0.3-0.3-0.4
		c0.1-0.2,0.3-0.3,0.5-0.4c0.3-0.1,0.5,0,0.8,0c1.4,0.1,2.9,0.3,4.3,0.5c0.7,0.1,1.2-0.1,1.7-0.8c-0.5-0.1-0.8-0.2-1.3-0.3
		c-1.9-0.2-3.7-0.5-5.6-0.7c-0.9-0.1-1.8-0.3-2.7-0.4c-0.5-0.1-1.1,0-1.6,0c-0.5,0-1,0-1.5,0c-0.6-0.1-1.2-0.3-1.7-0.4
		c-0.4-0.1-0.8-0.4-1.1,0.2c0,0.1-0.3,0.1-0.4,0.1c-0.9-0.3-1.9-0.5-2.8-0.8c-0.3-0.1-0.6-0.2-0.9,0c-0.3,0.3-0.7,0.3-1.1,0
		c-0.3-0.2-0.6-0.2-0.8,0.1c-0.2,0.3-0.4,0.6-0.5,0.9c-0.6,1.8-1.1,3.6-1.6,5.3c-0.1,0.2-0.1,0.4-0.3,0.5c-0.6,0.5-0.6,1.5-0.2,2
		c0.5,0,0.9-0.1,1.2,0c0.4,0.2,0.8,0.6,1.2,1c0.1-0.2,0.3-0.4,0.4-0.6c0.3-0.5,0.8-0.7,1.1-0.5c0.5,0.4,1.1,0.8,1.5,1.1
		c0.4-0.4,0.8-0.8,1.3-1.2c0,0,0.1-0.1,0.1-0.2c0-0.7,0.1-1.4-0.1-2c-0.5-1.6-0.7-3.2-0.7-4.9c0-0.3,0.2-0.5,0.3-0.7
		c0,0,0.1,0,0.1,0.1c0,0.7,0.1,1.4,0.1,2.1c0.1,0,0.1,0,0.2,0c0.1-0.4,0.1-0.8,0.2-1.1c0.1-0.2,0.3-0.3,0.4-0.4
		c0.1,0.1,0.3,0.3,0.4,0.4c0.1,0.1,0,0.4,0,0.5c0.1,0.3,0.3,0.7,0.5,1c0.2,0.2,0.5,0.3,0.9,0.5c0.5-0.3,0.5-0.3,0.9,0.6
		c0.3-0.1,0.6-0.2,1-0.2c0.4-0.1,0.6,0.1,0.6,0.5c0,0.5,0,1.1,0,1.6c0,0.3,0,0.7,0.2,1c0.4,0.7,0.5,2.9-0.1,3.5
		c-0.4,0.4-0.5,0.9-0.6,1.4c0,0.1,0,0.2-0.1,0.3c-0.1,0.1-0.2,0.3-0.4,0.3c-0.1,0-0.2-0.2-0.3-0.3c-0.1-0.3-0.2-0.6-0.3-0.9
		c-0.2-0.5-0.5-0.6-0.8-0.1C63.7,156.9,63.7,158,64.1,159.1z M109.3,124.4c0-0.3,0.1-0.5,0.1-0.7c0-1.5-0.1-2.9,0-4.4
		c0.1-2.4,0.2-4.8,0.3-7.3c0.2-3.8,0.4-7.6,0.6-11.4c0.2-3.9,0.4-7.7,0.7-11.6c0-0.2,0-0.4,0-0.5c-0.1,0-0.1,0-0.2,0
		c-0.4,0.5-0.9,1.1-1.3,1.6c-0.3,0.3-0.6,0.6-0.3,1.1c0.3,0.3,0.5,0.8,0.8,1c0.7,0.4,0.7,0.5,0.3,1.1c-0.6,0.7-1.1,1.4-1.7,2.1
		c-0.2,0.3-0.5,0.5-0.2,0.9c0.4,0.6,0.7,1.1,1.1,1.7c0.2,0.3,0.4,0.6,0,1c-0.5-0.8-1-1.6-1.6-2.6c-0.7,1-1.3,1.8-1.9,2.7
		c-0.1,0.1-0.1,0.2,0,0.3c0.3,0.7,0.7,1.3,1.1,2c0.4-0.5,0.8-1,1.1-1.4c0.1-0.1,0.4-0.1,0.5-0.2c0,0.2,0,0.4-0.1,0.5
		c-0.3,0.5-0.5,1-0.8,1.4c-0.2,0.3-0.2,0.6,0,0.9c0.5,0.7,0.9,1.5,1.3,2.2c0.2,0.3,0.2,0.6-0.1,0.9c-0.2-0.2-0.4-0.3-0.6-0.5
		c-0.4,0.7-0.8,1.3-1.3,1.9c-0.2,0.4-0.3,0.7,0,1c0.6,0.8,1.2,1.7,1.8,2.6c0.2,0.3,0.2,0.5-0.1,0.7c-0.2-0.2-0.5-0.4-0.7-0.6
		c-0.3,0.5-0.6,1-0.8,1.4c-0.4,0.5-0.5,1.1,0,1.6c0.4,0.4,0.7,1,1.2,1.3c0.6,0.4,0.7,0.4,0.5,1.1c-0.4,0.9-0.9,1.7-1.3,2.6
		c-0.2,0.4-0.3,0.8-0.1,1.2c0.1,0.3,0.3,0.7,0.4,1c0,0.2,0,0.4,0,0.5c0,0.2,0,0.3,0,0.5c0.2,0,0.3,0,0.5-0.1
		c0.3-0.2,0.5-0.4,0.7-0.6c0.1,0,0.1,0,0.2,0.1C108.3,122.6,108.5,123.5,109.3,124.4z M76.3,142.3c-0.4,0.3-0.9,0.6-1.3,1
		c-0.6,0.5-0.6,0.5-1.1,0c-0.3,0.2-0.6,0.4-0.9,0.6c-0.2-0.3-0.3-0.6-0.6-1c-0.4-0.1-1,1.3-1.3-0.2c-0.4,0.3-0.8,0.5-1.1,0.7
		c-0.2,0.1-0.4,0.1-0.6,0.1c0-0.2,0-0.5,0-0.7c0-0.1,0.1-0.2,0.2-0.3c-0.6,0.1-1.1,0.4-1.6,0.6c-0.1,0.1-0.4,0.1-0.5,0
		c-0.1-0.1-0.1-0.3-0.1-0.5c0-0.1,0.1-0.3,0.2-0.5c-0.4,0.1-0.7,0.3-1,0.3c-0.2,0-0.4,0-0.6-0.1c-0.2,0-0.4-0.1-0.5,0
		c-0.3,0.1-0.6,0.3-0.8,0.5c-0.7,0.5-0.7,0.5-1.3-0.2c-0.2,0.2-0.4,0.4-0.6,0.7c0.2,0.1,0.3,0.2,0.3,0.2c0.9,0.1,1.6,0.6,2.6,0.4
		c0.8-0.1,1.6,0.1,2.4,0.3c1.7,0.3,3.4,0.1,5.1,0.5c1.9,0.5,4,0.5,6,0.8c0.3,0,0.6,0,0.9,0c0.5,0,1.1-0.1,1.6-0.2
		c1.3,0,2.5,0.1,3.8,0c1.1,0,2.2-0.1,3.2-0.2c0.1,0,0.3-0.1,0.4-0.1c-0.2-0.2-0.4-0.4-0.5-0.5c-0.4,0.1-0.8,0.2-0.9,0.1
		c-0.2-0.2-0.3-0.6-0.3-0.9c0.1-0.5-0.1-0.7-0.5-0.9c-0.2,0.3-0.4,0.6-0.6,0.8c-0.1,0.1-0.4,0.2-0.5,0.2c-0.1-0.1-0.2-0.3-0.2-0.5
		c0.1-0.3,0.2-0.6,0.3-0.9c0-0.2,0.1-0.4,0-0.5c-0.3-0.4-0.7-0.7-1.1-1c-0.6,0.6-1.1,1.2-1.6,1.8c-0.3,0.4-0.6,0.6-1,0
		c-0.5,0.5-0.8,0.9-1.3,1.3c-0.1,0.1-0.4,0.2-0.5,0.3c0-0.2-0.2-0.4-0.1-0.6c0.1-0.3,0.3-0.7,0.4-1c0,0-0.1-0.1-0.1-0.1
		c-0.3,0.3-0.6,0.6-0.8,0.9c-0.2,0.3-0.4,0.9-0.8,0.5c-0.5-0.3,0-0.8,0.3-1.1c0.1-0.1,0.2-0.2,0.3-0.3c0.1-0.2,0.2-0.3,0.3-0.5
		c-0.1-0.1-0.1-0.1-0.2-0.2c-0.2,0.3-0.5,0.6-0.7,0.9c-0.3,0.3-0.6,0.5-0.9,0.8c-0.2,0.2-0.3,0.4-0.5,0.5c-0.3,0.3-0.6,0.2-0.7-0.2
		c0-0.1-0.1-0.2-0.1-0.3c-0.3,0-0.5,0-0.7,0C76.2,143.2,76.2,142.8,76.3,142.3z M99.5,164.7c0.3-0.1,0.5-0.3,0.8-0.4
		c0.5-0.2,1-0.4,1.6-0.6c0.1,0,0.4,0,0.4,0c0.3,0.5,0.8,0.4,1.2,0.1c0.8-0.5,1.6,0.2,2.3-0.2c0.1,0,0.2,0.1,0.3,0.2
		c0.1,0,0.3,0.1,0.4,0.1c0.6-0.2,1.1-0.3,1.7-0.5c0.5-0.1,0.9-0.3,1.4-0.4c0.2-0.1,0.3-0.2,0.5-0.3c0-0.1,0-0.1-0.1-0.2
		c-0.3,0-0.6,0.1-0.9,0.1c-0.4,0.1-1.6-0.5-1.7-0.9c0-0.1,0-0.3,0-0.4c0-0.1,0.1-0.2,0.2-0.4c-0.1,0-0.2-0.1-0.3-0.1
		c-0.9-0.2-1.7-0.2-2.6,0c-0.2,0-0.5-0.1-0.7-0.2c0.1-0.2,0.1-0.5,0.3-0.7c0.2-0.2,0.4-0.4,0.7-0.7c-1.9,0.6-3.7,1.2-5.4,1.8
		c-0.4,0.1-0.9,0.3-1.2,0.5c-0.8,0.5-1.5,1.1-2.3,1.7c-0.2,0.1-0.3,0.3-0.4,0.5c0.8,0.3,0.8,0.3,1.5,0.1c0.2-0.1,0.5,0.1,0.7,0.1
		c0.2,0,0.4,0.1,0.5,0.1C99.3,163.9,99.3,163.9,99.5,164.7z M121.6,136.1c0.4,0.6,0.7,1.1,1.1,1.5c0.2,0.1,0.6-0.1,1-0.2
		c0.1,0,0.2,0,0.2,0c1.5-0.3,3-0.7,4.5-1c1.7-0.3,3.5-0.6,5.2-0.7c3-0.1,5.9,0.1,8.9,0.1c0.3,0,0.6,0,1,0c-0.4-0.7-0.9-0.9-1.5-1
		c-0.7-0.1-1.3-0.3-2-0.4c-1.9-0.2-3.8-0.5-5.7-0.4c-2.7,0.1-5.5,0.3-8.2,0.7C124.7,135,123.3,135.6,121.6,136.1z M144.5,134.3
		c-0.4-0.2-0.7-0.3-0.9-0.5c-0.1-0.1-0.2-0.2-0.4-0.3c-1.5-0.5-2.9-1.1-4.4-1.3c-1.9-0.2-3.9-0.2-5.9-0.2c-0.9,0-1.9,0.1-2.8,0.2
		c-0.8,0-1.7,0-2.5,0.1c-1.2,0.1-2.4,0.3-3.6,0.6c-0.9,0.2-1.7,0.7-2.6,1.1c-0.1,0.1-0.1,0.5-0.1,0.8c0,0,0.4,0.1,0.6,0.1
		c0.7-0.2,1.3-0.4,2-0.6c0.8-0.2,1.6-0.5,2.4-0.6c2.4-0.3,4.9-0.6,7.3-0.7c1.7-0.1,3.5,0,5.2,0.2c2,0.3,4.1,0.1,5.9,1.6
		C144.5,134.6,144.5,134.4,144.5,134.3z M92.3,161.5c-1.8,1.5-3.6,3-5.3,4.5c0.1,0.1,0.3,0.2,0.3,0.4c0.1,0.5,0.5,0.4,0.8,0.4
		c0.7,0,1.3,0,2-0.1c0.2,0,0.4-0.1,0.6-0.2c0.2-0.2,0.4-0.4,0.6-0.6c1.5-1.1,2.8-2.3,3.7-3.8c-0.3-0.2-0.6-0.4-0.9-0.7
		C93.5,161.7,93,162.2,92.3,161.5z M115.8,71c-0.1,0-0.2-0.1-0.3-0.1c-0.2,0.1-0.4,0.2-0.5,0.4c-0.3,1.3-0.6,2.5-0.8,3.8
		c-0.2,1.2-0.2,2.4-0.2,3.5c0,0.2,0,0.4,0,0.6c0,1.2,0.1,2.5,0.1,3.7c-0.1,1.8-0.2,3.6-0.3,5.5c0,0.2,0.2,0.3,0.2,0.5
		c0.1-0.1,0.2-0.3,0.3-0.4c0.2-0.7,0.3-1.4,0.4-2.2c0-0.2,0.1-0.5,0.3-0.6c0.6-0.3,0.6-0.8,0.5-1.4c-0.3-2.6-0.2-5.1,0.1-7.7
		c0-0.1,0-0.3,0-0.4c-0.4-0.5-0.2-1-0.1-1.5C115.6,73.5,115.7,72.2,115.8,71z M85.6,107.2c0.4-0.5,0.8-0.9,1.1-1.3
		c0.5-0.7,1.2-1.4,1.1-2.4c-0.2-2.1-0.2-4.2-0.4-6.3c0-0.3-0.2-0.6-0.3-0.9c-0.1,0-0.1,0-0.2,0c-0.5,0.7-1,1.5-1.5,2.2
		c-0.1,0.1-0.2,0.4-0.1,0.5c0.3,0.7,0.5,1.6,1.3,1.7c0.2,0.5,0.4,0.9,0.6,1.3c0.1,0.2,0,0.5-0.1,0.7c-0.1,0-0.1,0-0.2,0
		c-0.2-0.2-0.4-0.4-0.6-0.6c-0.6,0.9-1.2,1.7-1.7,2.6c-0.1,0.1-0.1,0.2,0,0.3C84.8,105.8,85.2,106.4,85.6,107.2z M88.1,76.3
		c-0.6-0.3-1-0.6-1.5-0.8c-0.3-0.2-0.6-0.2-0.8,0.2c-0.4,0.6-0.8,1.1-1.2,1.6c-1.1,1.5-1.2,1,0.2,2.6c0.3,0.3,0.5,0.3,0.7,0
		c0.6-0.9,1.2-1.7,1.8-2.6c0.1-0.2,0.3-0.3,0.4-0.4c0,0,0.1,0.1,0.1,0.1c0,0.1,0,0.3-0.1,0.4c-0.4,0.7-0.7,1.3-1.2,1.9
		c-1.1,1.5-1.1,1.4,0.1,2.6c0,0,0.1,0.1,0.1,0.1c0.2,0.2,0.4,0.2,0.6,0c0.4-0.5,0.7-1.1,0.7-1.8c0-0.4,0-0.8,0-1.2
		C88.1,78.1,88.1,77.1,88.1,76.3z M107.6,80.3c0.2-0.2,0.3-0.3,0.4-0.4c0.7-0.9,1.4-1.8,2.1-2.7c0.6-0.6,0.9-1.2,0.2-1.9
		c0,0,0-0.1-0.1-0.2c-0.3-0.5-0.6-1-1-1.6c-0.5,0.6-0.9,1.1-1.3,1.6c-0.3,0.3-0.3,0.6-0.1,0.9c0.2,0.2,0.2,0.6,0.3,0.9
		c-0.1,0-0.1,0.1-0.2,0.1c-0.2-0.3-0.4-0.6-0.6-1.1c-0.5,0.6-0.9,1.2-1.3,1.8c-0.1,0.1-0.1,0.3,0,0.4
		C106.5,78.8,107,79.5,107.6,80.3z M108.6,90.2c0.9-1.2,1.7-2.2,2.5-3.2c0.1-0.1,0.1-0.2,0.1-0.3c0.1-1.5,0.2-3,0.3-4.7
		c-0.5,0.6-0.9,1.2-1.4,1.7c-0.3,0.3-0.3,0.6,0,0.9c0.3,0.3,0.3,0.6-0.1,0.9c-0.2-0.3-0.4-0.5-0.8-0.9c-0.6,0.9-1.2,1.7-1.8,2.5
		c-0.1,0.1-0.1,0.4-0.1,0.5C107.7,88.5,108.1,89.2,108.6,90.2z M109.4,83.2c0.8-0.6,1.1-1.7,2.2-1.7c0-1.6,0-3.1,0-4.7
		c-0.1,0-0.2,0.1-0.2,0.1c-1,1.2-2,2.4-3,3.6c-0.1,0.2-0.2,0.5-0.1,0.6C108.6,81.8,109,82.5,109.4,83.2z M86.5,90.4
		c-0.1-0.1-0.2-0.3-0.3-0.4c-0.2-0.3-0.4-0.2-0.6,0c-0.4,0.5-0.8,1.1-1.2,1.6c-0.1,0.1-0.1,0.4-0.1,0.6c0.2,0.3,0.4,0.6,0.6,0.8
		c0.2,0.3,0.4,0.2,0.6,0c0.3-0.4,0.7-0.9,1-1.3c0.1-0.1,0.3-0.2,0.6-0.4c-0.1,0.3-0.1,0.4-0.1,0.5c-0.4,0.6-0.8,1.2-1.1,1.8
		c-0.1,0.2-0.1,0.5,0,0.7c0.6,0.9,0.9,0.9,1.4-0.1c0.1-0.2,0.1-0.3,0.1-0.5c0.1-2,0.2-3.9,0.2-5.9c0-0.1,0-0.3-0.1-0.5
		c-0.4,0.6-0.8,1.1-1.2,1.6c-0.2,0.3-0.2,0.4,0.1,0.6C87,89.8,87,90,86.5,90.4z M87.5,66.6c-0.5-0.2-0.9,0-1.3,0.5
		c-0.7,1-1.4,1.9-2.2,2.8c-1,1.1-1.1,1.1-0.1,2.2c0.4,0.5,0.6,0.5,1,0c0.8-1.1,1.7-2.2,2.5-3.3c0.1-0.1,0.2-0.3,0.2-0.5
		C87.5,67.8,87.5,67.2,87.5,66.6z M84.2,86.7c0.1-0.1,0.2-0.2,0.3-0.3c0.6-0.9,1.1-1.7,1.7-2.6c0.6-0.9,0.6-0.9-0.1-1.6
		c-0.2-0.2-0.4-0.4-0.6-0.7c-0.2-0.2-0.4-0.2-0.6,0.1c-0.5,0.6-1,1.2-1.4,1.8c-0.9,1.2-0.9,1.2-0.1,2.4c0.2,0.2,0.3,0.5,0.5,0.7
		C84,86.5,84.1,86.6,84.2,86.7z M105.1,84.3c0.2-0.1,0.3-0.1,0.3-0.2c0.6-0.9,1.2-1.9,1.7-2.8c0.1-0.1,0.1-0.4,0-0.5
		c-0.4-0.6-0.9-1.2-1.4-1.9c-0.2-0.3-0.5-0.2-0.7,0.1c-0.3,0.4-0.6,0.8-0.8,1.3c-0.2,0.5-0.6,1-0.5,1.4
		C104.1,82.5,104.7,83.4,105.1,84.3z M87.1,124.9c-0.1,0.7,0.2,0.7,0.6,0.5c-0.2,0.6-0.5,1.1-0.4,1.5c0.1,0.5,0.5,0.9,0.7,1.4
		c0.1,0,0.1,0,0.2-0.1c0-0.3,0-0.5,0-0.8c-0.1-0.8-0.2-1.7-0.2-2.5c0-1.1-0.1-2.2-0.7-3.1c-0.1-0.2-0.2-0.4-0.3-0.8
		c-0.6,0.9-1.2,1.6-1.7,2.4c-0.1,0.1-0.1,0.2,0,0.3c0.3,0.6,0.6,1.1,0.9,1.6C86.6,125.2,86.8,125.1,87.1,124.9z M87.7,105.9
		c-0.1,0-0.2,0-0.2,0c-0.4,0.5-0.7,1-1.1,1.4c-0.3,0.4-0.4,0.8,0.1,1.1c0.1,0.1,0.2,0.2,0.2,0.3c0,0.2,0,0.3,0,0.5
		c-0.1,0-0.3,0-0.4-0.1c-0.1-0.1-0.2-0.3-0.3-0.5c-0.2-0.3-0.3-0.3-0.6-0.1c-0.6,0.6-0.7,0.8-0.2,1.6c0.1,0.3,0.2,0.5,0.4,0.8
		c0.6,1.2,0.7,1.2,1.4,0.1c0.3-0.5,0.7-1,0.8-1.5c0.1-0.8,0.1-1.6,0.1-2.4C87.8,106.8,87.8,106.3,87.7,105.9z M84.8,124
		c-0.8,0.8-1.5,1.6-2.1,2.3c-0.1,0.1-0.1,0.3,0,0.4c0.4,0.7,0.9,1.5,1.3,2.3c0.8-0.9,1.4-1.8,1.9-2.8c0.1-0.1,0-0.4-0.1-0.5
		C85.6,125.2,85.2,124.6,84.8,124z M105.7,84.9c0.4,0.6,0.7,1.1,1.1,1.7c0,0,0.3-0.1,0.4-0.2c0.5-0.7,1-1.5,1.5-2.2
		c0.1-0.2,0.2-0.4,0.1-0.6c-0.3-0.6-0.6-1.1-0.9-1.7c-0.2-0.4-0.4-0.2-0.6,0c-0.2,0.3-0.4,0.6-0.6,0.9
		C106.4,83.6,106.1,84.2,105.7,84.9z M85.7,88.6c0.9-0.5,1.1-1.7,2-2.1c0,0,0-0.1,0-0.1c0.1-0.8,0.2-1.5,0.2-2.3
		c0-0.2-0.3-0.4-0.5-0.7c-0.2,0.1-0.4,0.2-0.5,0.4c-0.5,0.8-1.1,1.6-1.6,2.4c-0.8,1.2-0.8,1.2,0.2,2.3
		C85.6,88.6,85.6,88.6,85.7,88.6z M84.2,114.9c0.6-0.8,1-1.4,1.5-2.1c0.1-0.1,0.1-0.3,0-0.4c-0.4-0.8-0.9-1.6-1.4-2.5
		c-0.6,0.7-1.2,1.2-1.5,1.9c-0.1,0.3,0.3,0.9,0.5,1.3c0.1,0.2,0.2,0.4,0.3,0.6C83.7,114.1,83.9,114.4,84.2,114.9z M107.9,128.5
		c0.5-0.8,0.9-1.4,1.3-2.1c0-0.1,0.1-0.2,0.1-0.3c-0.2-1-0.7-1.8-1.4-2.7c-0.5,1-1,1.8-1.5,2.6c-0.1,0.1,0,0.3,0,0.4
		C107,127.1,107.4,127.8,107.9,128.5z M84.8,99.6c-0.2,0.1-0.2,0.1-0.2,0.1c-0.4,0.5-0.8,1-1.2,1.4c-0.8,1-0.8,1-0.1,2.1
		c0.1,0.2,0.3,0.4,0.4,0.6c0.2,0.3,0.4,0.4,0.7,0c0.4-0.7,0.9-1.3,1.3-2c0.1-0.2,0.2-0.4,0.1-0.6C85.5,100.7,85.1,100.2,84.8,99.6z
		 M82.2,83.9c0.2-0.2,0.3-0.3,0.4-0.5c0.4-0.5,0.8-1,1.2-1.5c1-1.2,1-1.2-0.2-2.4c0,0-0.1-0.1-0.1-0.1c-0.2-0.3-0.4-0.2-0.6,0.1
		c-0.5,0.8-1,1.6-1.4,2.4c-0.1,0.2-0.2,0.5-0.1,0.6C81.6,83,81.9,83.4,82.2,83.9z M107,88.3c-0.1,0-0.2,0-0.3,0
		c-0.4,0.8-0.9,1.6-1.3,2.4c0,0.1-0.1,0.2,0,0.3c0.3,0.7,0.7,1.4,1.1,2.3c0.6-0.9,1.1-1.6,1.6-2.4c0-0.1,0-0.2,0-0.2
		C107.8,89.8,107.4,89.1,107,88.3z M84.2,139.1c0.6,0.6,0.9,0.3,1.1-0.1c0.2-0.3,0.3-0.6,0.6-0.8c0.4-0.4,0.4-0.8,0-1.3
		c-0.4-0.5-0.5-0.5-0.9,0c-0.5,0.6-1,1.2-1.5,1.8c-0.5,0.6-1,1.2-1.5,1.8c-0.1,0.1,0,0.3-0.1,0.5c0.2,0,0.4,0,0.5-0.1
		c0.2-0.1,0.3-0.3,0.5-0.3c0.2,0,0.4,0,0.6,0.1c-0.1,0.2-0.1,0.4-0.2,0.5c-0.2,0.2-0.4,0.5-0.5,0.7c0,0,0.1,0.1,0.1,0.1
		C83.6,141.2,84.7,140.7,84.2,139.1z M83.9,73.2c0-0.1,0-0.1-0.1-0.2c-0.4-0.4-0.8-0.8-1.2-1.2c-0.1-0.1-0.3,0-0.4,0.1
		c-0.3,0.3-0.6,0.7-0.9,1.1c-0.9,1.3-0.9,1.2,0,2.6c0.3,0.4,0.4,0.4,0.7,0.1c0.5-0.7,1.1-1.3,1.6-2C83.8,73.5,83.9,73.3,83.9,73.2z
		 M111.8,64.8c-0.4,0-0.9,0.1-1.3,0.1c-0.6,0-1,0.3-1.3,0.8c-0.2,0.3-0.3,0.5,0,0.8c0.2,0.3,0.3,0.7,0.8,0.4
		c0.3-0.1,0.6,0.1,0.4,0.4c-0.2,0.4-0.2,0.8,0.2,1.1c0.3,0.3,0.5,0.6,0.8,0.9c0.1,0,0.1-0.1,0.2-0.1c0.1-1.1,0.1-2.2,0.2-3.2
		C111.7,65.6,111.7,65.2,111.8,64.8z M83.4,121.3c-0.1,0.1-0.2,0.1-0.2,0.1c-0.1,0.1-0.2,0.2-0.2,0.3c-0.6,0.8-1,1.7-1.3,2.7
		c-0.2,0.7,0.2,1,0.6,1.6c0.7-0.9,1.4-1.7,2-2.4c0.1-0.1,0.1-0.3,0-0.4C84,122.5,83.7,121.9,83.4,121.3z M87.6,69.4
		c-0.1,0-0.1,0-0.2,0c-0.8,1.1-1.5,2.1-2.3,3.2c-0.4,0.5-0.3,0.8,0.4,1.3c0.5,0.4,0.6-0.1,0.9-0.4c0.4-0.5,0.6-1.2,1.5-1.1
		C87.8,71.3,87.7,70.4,87.6,69.4z M84.7,122.6c0.1,0,0.1,0,0.2,0c0.5-0.7,1-1.4,1.5-2.1c0.1-0.1,0.1-0.3,0.1-0.4
		c-0.3-0.6-0.6-1.1-1-1.8c-0.6,0.8-1.1,1.5-1.6,2.1c-0.1,0.1-0.1,0.3-0.1,0.4C84.1,121.4,84.4,122,84.7,122.6z M83.2,77.9
		c0.6-0.8,1.2-1.5,1.8-2.3c0.7-0.8,0.7-0.8-0.1-1.5c-0.3-0.3-0.5-0.3-0.7,0c-0.4,0.5-0.8,1-1.2,1.5C82,76.7,82,76.7,83,77.9
		C83.1,77.9,83.1,77.9,83.2,77.9z M82.3,101.5c0.6-0.8,1.3-1.7,1.9-2.5c0.1-0.1,0-0.3,0-0.4c-0.3-0.4-0.6-0.8-1-1.4
		c-0.5,0.8-1,1.5-1.4,2.1C81.2,100.2,81.4,100.8,82.3,101.5z M82.2,89.1c0.1,0,0.1,0,0.2,0c0.4-0.6,0.8-1.1,1.2-1.7
		c0.1-0.1,0.1-0.3,0-0.3c-0.4-0.6-0.9-1.2-1.4-1.9c-0.4,0.6-0.7,1.1-1.1,1.6c-0.1,0.1,0,0.2,0,0.3C81.5,87.8,81.9,88.5,82.2,89.1z
		 M87.8,120.9c-0.1-1.9,0-3.7-0.2-5.5c-0.5,0.7-1,1.3-1.5,2c-0.2,0.3-0.2,0.6,0,0.9c0.4,0.8,1.2,1.4,1.5,2.4
		C87.6,120.8,87.6,120.8,87.8,120.9z M111.3,71.1c-0.5,0.6-1,1.2-1.5,1.8c-0.1,0.1,0,0.3,0,0.4c0.4,0.7,0.9,1.3,1.3,2
		c0.1,0.1,0.3,0.2,0.4,0.3c0.1-0.2,0.2-0.4,0.2-0.6C112,73.6,111.4,72.4,111.3,71.1z M106.2,112.4c0.5-0.7,1-1.3,1.4-1.9
		c0.1-0.1,0-0.3,0-0.4c-0.3-0.5-0.6-0.9-1-1.4c-0.1-0.1-0.4-0.1-0.5,0c-0.3,0.4-0.6,0.9-0.9,1.4c-0.1,0.1-0.1,0.4,0,0.5
		C105.5,111.2,105.8,111.8,106.2,112.4z M105.2,66.6c-0.4,0.6-0.8,1.2-1.2,1.7c-0.1,0.1-0.1,0.2-0.1,0.3c0.3,0.6,0.6,1.2,0.9,1.9
		c0.2-0.3,0.4-0.5,0.5-0.7c1.2-1.7,1.3-1.3-0.1-3.1C105.3,66.7,105.3,66.7,105.2,66.6z M109.3,72.2c0.3-0.4,0.6-0.7,0.8-1
		c1-1.2,1-1.2-0.1-2.3c-0.1-0.1-0.1-0.1-0.2-0.2c-0.1,0-0.3-0.1-0.3,0c-0.4,0.5-0.7,1-1.1,1.6c-0.1,0.1,0,0.3,0,0.4
		C108.7,71.1,109,71.6,109.3,72.2z M84.7,98.3c0.6-0.8,1-1.5,1.5-2.2c0.2-0.3,0.2-0.6-0.1-0.8c-0.1-0.1-0.3-0.3-0.4-0.4
		c-0.2-0.3-0.4-0.3-0.7,0c-0.4,0.5-0.8,1-1.2,1.5c-0.1,0.1-0.1,0.4-0.1,0.5C84,97.3,84.3,97.8,84.7,98.3z M104.1,75.9
		c0.4-0.7,0.7-1.2,1-1.7c0.5-0.9,0.4-1.4-0.4-2.2c-0.5,0.7-1.1,1.5-1.6,2.2c-0.1,0.1-0.1,0.4,0,0.5C103.4,75,103.7,75.4,104.1,75.9z
		 M108.8,72.7c-0.2-0.4-0.4-0.9-0.7-1.3c-0.2-0.3-0.4-0.3-0.6,0c-0.2,0.3-0.4,0.7-0.7,1c-0.7,0.9-0.7,1.1,0,2.1
		c0.2,0.3,0.4,0.3,0.6,0c0.4-0.5,0.7-0.9,1-1.4C108.7,73,108.8,72.9,108.8,72.7z M84,130.3c-0.4,0.6-0.8,1.1-1.1,1.6
		c-0.1,0.1-0.1,0.4,0,0.5c0.4,0.6,0.9,1.1,1.5,1.8c0.3-0.6,0.9-1.1,0.8-1.4C85,131.9,84.4,131.2,84,130.3z M85.3,89.2
		c-0.3-0.4-0.7-0.8-1-1.2c0,0-0.2,0-0.3,0c-0.4,0.5-1,1.1-1.2,1.7c-0.1,0.3,0.4,0.9,0.6,1.3c0.2,0.3,0.4,0.3,0.6,0
		c0.4-0.5,0.7-1,1.1-1.5C85.2,89.5,85.2,89.4,85.3,89.2z M85.5,117.1c0.5-0.7,0.9-1.3,1.3-1.9c0.4-0.7,0.4-0.9-0.2-1.6
		c-0.2-0.2-0.4-0.3-0.6,0c-0.4,0.5-0.8,1-1.2,1.5c-0.1,0.2-0.1,0.5,0,0.7C84.9,116.3,85.2,116.6,85.5,117.1z M106.5,94.5
		c-0.6,1-1.2,2-1.5,3.1c-0.1,0.3,0.2,0.7,0.3,1.1c0.2-0.2,0.3-0.2,0.3-0.3c0.4-0.6,0.8-1.1,1.2-1.7
		C107.2,96.2,107.3,95.2,106.5,94.5z M106.3,106.8c0,0,0.1,0,0.1-0.1c0.3-0.5,0.7-1,1-1.5c0.6-0.8,0.6-1.1-0.1-1.8
		c-0.3-0.3-0.4-0.3-0.6,0c-0.3,0.5-0.6,1.1-0.9,1.6C105.5,105.8,105.6,106.3,106.3,106.8z M107.6,94.9c0.1,0,0.1-0.1,0.2-0.2
		c0.5-0.6,1-1.2,1.5-1.8c0.1-0.1,0-0.4-0.1-0.6c-0.2-0.3-0.5-0.5-0.8-0.8c0,0-0.1,0-0.1,0.1c-0.5,0.7-0.9,1.4-1.4,2.1
		C106.8,93.9,107.3,94.9,107.6,94.9z M106.7,69c-0.4,0.5-0.7,0.9-1,1.4c-0.6,0.9-0.6,1.4,0.3,2.2c0.2-0.3,0.4-0.5,0.5-0.8
		c0.2-0.3,0.3-0.6,0.5-0.8C107.6,70.2,107.6,69.8,106.7,69z M83.2,96c0.5-0.6,1-1.2,1.5-1.8c0.1-0.1,0.1-0.2,0.1-0.3
		c-0.3-0.4-0.6-0.9-1-1.4c-0.4,0.6-0.7,1.1-1,1.7C82.3,95,82.4,95.4,83.2,96z M105.1,89.9c0.3-0.6,0.6-1.1,0.9-1.6
		c0.6-0.9,0.2-2-0.8-2.4c-0.3,0.7-0.5,1.3-0.8,2c0.4,0.2,0.7,0.5,0.4,0.9C104.6,89.2,104.8,89.5,105.1,89.9z M82.3,90.4
		c-0.4,0.7-0.8,1.4-1.1,2c0,0.1,0,0.2,0,0.3c0.2,0.5,0.5,0.9,0.7,1.4c0.1,0,0.1,0,0.2,0c0.4-0.7,0.8-1.3,1.2-2c0-0.1,0-0.2,0-0.3
		C83,91.3,82.7,90.9,82.3,90.4z M106,73.9c-0.4,0.7-0.7,1.3-1.1,1.7c-0.5,0.6-0.3,1,0.2,1.4c0.3,0.3,0.4,0.3,0.7,0
		c0.3-0.4,0.7-0.9,1-1.3c0.1-0.1,0.1-0.4,0.1-0.5C106.6,74.8,106.3,74.4,106,73.9z M85.2,131.3c0.2,0,0.2,0,0.2-0.1
		c0.7-0.8,1.4-1.6,2.1-2.4c0.1-0.1,0.1-0.2,0-0.3c-0.2-0.4-0.5-0.8-0.8-1.4C85.9,128.5,85.2,129.7,85.2,131.3z M87,133.9
		c0.3-0.5,0.7-1,1-1.5c-0.9-0.5-1-1-0.2-1.5c0.2-0.1,0.5-0.2,0.5-0.4c0.1-0.3,0.1-0.6,0.1-0.9c0-0.1-0.4-0.2-0.4-0.2
		c-0.4,0.4-0.7,0.8-1,1.2c0.4,0.7-0.1,1-0.4,1.5C86,132.9,86,133.2,87,133.9z M82.2,102.7c-0.3,0.4-0.6,0.7-0.8,1.1
		c-0.1,0.1-0.1,0.4,0,0.5c0.4,0.6,0.8,1.1,1.2,1.7c0.4-0.5,1-0.8,0.8-1.3C83.2,104,82.7,103.4,82.2,102.7z M107.9,130.3
		c-1,1.1-0.8,2.3,0.5,3.4c0.2-0.2,0.3-0.4,0.4-0.6c0.1-0.2,0.4-0.6,0.3-0.7C108.8,131.7,108.4,131,107.9,130.3z M100.8,37.6
		c0,0.1,0,0.1,0,0.2c1.1,0,2.2,0,3.3,0c0.2,0,0.4-0.4,0.5-0.6c-0.2-0.1-0.3-0.2-0.5-0.3c-0.1,0-0.3,0-0.5,0
		c-0.5,0.2-0.8,0.1-1.2-0.3c-0.4-0.4-0.8-0.3-1.1,0.1C101.2,36.9,101,37.3,100.8,37.6z M106.5,117.1c0.4-0.4,0.8-0.7,1.2-1.1
		c0.1-0.1,0.1-0.4,0-0.4c-0.4-0.5-0.8-1-1.3-1.5C105.6,114.9,105.6,115.8,106.5,117.1z M84.1,105.6c-1,0.9-1,1-0.4,2
		c0.1,0.2,0.2,0.4,0.4,0.6c0.2,0.2,0.4,0.3,0.6,0.4c0.2-0.3,0.6-0.7,0.5-1C84.9,106.9,84.4,106.3,84.1,105.6z M106.9,67.7
		c0.4-0.5,0.7-1,1-1.5c0.2-0.3,0-0.9-0.3-0.9c-0.5,0-1,0.1-1.5,0.2c-0.4,0.1-0.6,0.4-0.3,0.8C106.2,66.8,106.5,67.2,106.9,67.7z
		 M108,69.6c0.3-0.4,0.5-0.7,0.7-1c0.5-0.7,0.4-1.2-0.4-1.7C107.1,68,107.1,68.4,108,69.6z M59.4,155.7c0,0.2-0.1,0.4-0.1,0.6
		c-0.1,1-0.3,2-0.4,3c-0.1,0.7-0.1,1.4-0.1,2.1c0.1,0,0.1,0,0.2,0C59.8,159.5,59.9,157.6,59.4,155.7z M107.7,36.4
		c-0.2-0.3-0.3-0.5-0.4-0.6c-0.3-0.7-0.5-0.8-1.3-0.6c-0.5,0.1-0.9,0.5-1.3,0.7C105.7,36.6,106.6,36.4,107.7,36.4z M105.2,106.5
		c-0.3,0.6-0.5,1.1-0.8,1.6c-0.3,0.7-0.3,0.9,0.3,1.4c0,0,0.1,0,0.1-0.1c0.2-0.4,0.4-0.7,0.7-1.1
		C105.9,107.5,105.9,107.4,105.2,106.5z M88,72.9c-0.1,0-0.2,0-0.3,0c-0.3,0.4-0.5,0.8-0.8,1.1c-0.4,0.7-0.4,1,0.4,1.3
		c0.2,0.1,0.4,0.1,0.8,0.2C88.1,74.6,88,73.7,88,72.9z M103.6,67.9c0.5-0.8,1-1.4,1.4-2c0-0.1-0.1-0.1-0.1-0.2
		c-0.7,0.1-1.4,0.2-2.2,0.3C103,66.6,103.2,67.2,103.6,67.9z M58,161.9c-0.1-0.1-0.1-0.3-0.2-0.4c-0.2-0.2-0.4-0.5-0.6-0.7
		c-0.1-0.1-0.2-0.2-0.3-0.3c-0.4-0.1-0.5-0.4-0.5-0.7c0-0.3-0.1-0.6-0.5-0.7c-0.2,0-0.3-0.2-0.4-0.3c-0.2-0.1-0.4-0.2-0.7-0.3
		C55,159.5,56.9,161.5,58,161.9z M87.4,137.2c0.2-0.3,0.3-0.6,0.5-0.8c-0.3-0.4-0.6-0.8-0.8-1.1c-0.4,0.2-0.7,0.4-1.1,0.6
		C86.1,136.5,86.5,137,87.4,137.2z M88.7,151.9c0.2,0.5-0.1,0.8-0.5,0.9c-0.4,0.1-0.7,0.3-1.1,0.5c0.2,0.1,0.2,0.1,0.3,0.1
		c0.4,0,0.9,0,1.3,0c1-0.1,0.8,0,0.9-1C89.6,151.7,89.4,151.6,88.7,151.9z M105.3,116c-0.2,0.5-0.5,1-0.5,1.5c0,0.3,0.3,0.6,0.5,0.9
		c0.2-0.2,0.5-0.4,0.7-0.6C106.2,117.5,105.8,116.5,105.3,116z M118.1,67.1c-0.1,0-0.1,0-0.2,0c-0.1,0.1-0.2,0.2-0.2,0.2
		c-0.2,0.5-0.3,0.9-0.3,1.4c0,0.6-0.2,1.2-0.3,1.8c0,0.1,0.1,0.3,0.2,0.4c0.1-0.1,0.3-0.2,0.3-0.4c0.1-0.6,0.2-1.3,0.3-1.9
		C118,68.2,118.1,67.7,118.1,67.1z M109.3,128.2c-1.1,0.4-1.1,1.8,0,2.9C109.3,130.1,109.3,129.1,109.3,128.2z M88.1,135.7
		c0.6-1,0.7-1.6,0.4-2.3C87.3,134.2,87.2,134.6,88.1,135.7z M109.1,137.7c-0.2,0.4-0.4,0.8-0.6,1.2c0,0.1,0,0.3,0.1,0.5
		c0,0.1,0.3,0.1,0.4,0c0.4-0.3,0.7-0.6,1-0.9c0.1-0.1,0.1-0.3,0.1-0.4C109.7,137.9,109.5,137.8,109.1,137.7z M100,37.7
		c0.1-0.5,0.1-0.9,0.2-1.5c-0.3,0-0.7,0-0.8,0.1c-0.3,0.4-0.5,0.9-0.7,1.4C99.3,37.7,99.7,37.7,100,37.7z M87.7,111.7
		c-1.1,0.7-1.1,1.6,0,2.3C87.7,113.3,87.7,112.5,87.7,111.7z M128.2,125.9c1.2,0.5,3.4,0.5,3.9,0
		C130.7,125.9,129.4,125.9,128.2,125.9z M61.4,154.8c-0.5,0.5-0.7,1.5-0.6,2.3C61.7,156.6,62,155.8,61.4,154.8z M104.2,118.4
		c-0.3,0.9-0.6,1.6-0.8,2.4c0.1,0,0.1,0.1,0.2,0.1c0.3-0.4,0.6-0.8,1-1.2C105,119.2,104.8,118.9,104.2,118.4z M85.2,135.2
		c0.1,0,0.2,0,0.3,0c0.2-0.3,0.5-0.6,0.6-0.9c0.1-0.1-0.1-0.4-0.2-0.6c0-0.1-0.3-0.1-0.3-0.1c-0.2,0.3-0.5,0.6-0.7,0.9
		C84.9,134.6,85.1,134.9,85.2,135.2z M109.7,133.5c-0.1,0-0.1,0-0.2-0.1c-0.2,0.4-0.5,0.7-0.6,1.1c-0.1,0.2,0,0.4,0.1,0.6
		c0.2-0.1,0.4-0.1,0.6-0.2C110,134.6,109.6,134,109.7,133.5z M112.2,123.9c0.1,0,0.1,0,0.2,0c-0.1-1-0.1-2-0.2-3c-0.1,0-0.1,0-0.2,0
		C112.4,121.9,111.7,122.9,112.2,123.9z M118.1,107.8c-0.3,1-0.4,1.8-0.2,2.6c0.1,0,0.1,0,0.2,0
		C118.1,109.6,118.1,108.8,118.1,107.8z M85.6,166.5c0.2-0.6,0.4-1.1,0.6-1.7c-0.4,0.4-0.8,0.6-1.2,1
		C85.1,166,85.3,166.2,85.6,166.5z M107.3,37.8c0.5,0,0.8,0,1.2,0c0.1,0,0.2-0.2,0.3-0.3c-0.1-0.1-0.2-0.3-0.3-0.3
		C108,37.2,107.6,37.2,107.3,37.8z M55.3,143.7c0,0.2,0,0.4,0,0.6c0.3,0,0.6,0,0.9,0c0.1-0.2,0.2-0.4,0.3-0.6
		C56,143.7,55.7,143.7,55.3,143.7z M112.7,68.7c0,0,0.1,0,0.1,0c0-0.9,0-1.9,0-2.8c0,0-0.1,0-0.1,0
		C112.7,66.8,112.7,67.7,112.7,68.7z M106.3,118.4c-0.7,0.5-0.7,0.7-0.1,1.3C106.6,119.3,106.6,118.9,106.3,118.4z M58.5,154.5
		c-0.1,0-0.1-0.1-0.2-0.1c-0.2,0.4-0.5,0.7-0.7,1.1c0,0.1,0.1,0.3,0.1,0.4c0.1-0.1,0.3-0.1,0.3-0.2
		C58.3,155.3,58.4,154.9,58.5,154.5z M113.4,89.3c-0.1,0-0.1,0-0.2,0c-0.1,1-0.2,1.9-0.3,2.9c0,0,0.1,0,0.1,0
		C113.2,91.2,113.3,90.2,113.4,89.3z M110.3,129.7c0.6-0.7,0.2-1.3,0-1.9C110.3,128.4,110.3,129,110.3,129.7z M116.1,64.2
		c0,0.1,0,0.1,0,0.2c0.3,0,0.6,0.1,0.9,0.1c0.1-0.1,0.2-0.3,0.4-0.6C116.9,64.1,116.5,64.1,116.1,64.2z M97.7,34.3
		c0.5,0.9,0.6,0.9,1.2,0.5C98.5,34.6,98.1,34.5,97.7,34.3z M55.2,155.5c0,0.4,0,0.8,0,1.4C55.6,156.1,55.6,155.7,55.2,155.5z
		 M155.1,91.8c0-0.5,0-0.9,0-1.3C154.9,90.9,154.5,91.2,155.1,91.8z M119.8,144.4c-0.1,0-0.1,0-0.2,0c0.1,0.5-0.2,1,0.2,1.5
		C119.8,145.4,119.8,144.9,119.8,144.4z M96.2,37.5c0,0,0-0.1,0-0.1c-0.6,0-1.2,0-1.8,0c0,0,0,0.1,0,0.1
		C94.9,37.5,95.5,37.5,96.2,37.5z M107.7,136.9c0.1,0,0.1,0,0.2,0.1c0.2-0.3,0.6-0.6,0.5-1c-0.1,0-0.1-0.1-0.2-0.1
		C108.1,136.2,107.9,136.5,107.7,136.9z M155.2,97.1c-0.1,0-0.2,0-0.2,0c0,0.4-0.1,0.8-0.1,1.2c0.1,0,0.2,0,0.3,0
		C155.1,97.9,155.2,97.5,155.2,97.1z M53.5,152.2c-0.6,0.2-0.6,0.5-0.5,0.9c0.1,0,0.1,0,0.2,0.1C53.2,152.9,53.3,152.6,53.5,152.2z
		 M147.7,104.8c-0.1,0-0.2,0-0.3,0c0,0.4,0,0.7-0.1,1.1c0.1,0,0.1,0,0.2,0C147.6,105.6,147.6,105.2,147.7,104.8z M119.3,58.2
		c-0.1,0-0.1-0.1-0.2-0.1c-0.1,0.3-0.2,0.6-0.3,0.8c0.1,0,0.2,0.1,0.3,0.1C119.1,58.7,119.2,58.4,119.3,58.2z"/>
	<path class="st0" d="M113,161.2C113,161.1,113,161.1,113,161.2c-0.1-0.3-0.3-0.5-0.2-0.6c0.2-0.5-0.1-0.8-0.4-1.2
		c-0.1-0.1-0.3-0.2-0.5-0.2c-0.5,0-1,0-1.6,0c-0.7,0-0.9-0.2-1-0.8c0-0.2-0.1-0.3-0.2-0.5c0-0.1,0-0.3-0.1-0.6
		c-0.6,0.1-1.2,0.1-1.8,0.2c-0.7,0.2-1.2-0.2-1.6-0.7c-0.3-0.4,0-0.5,0.3-0.6c0.7-0.2,1.3-0.3,2-0.4c0.3-0.1,0.7-0.2,1-0.2
		c0-0.1,0-0.1,0-0.2c-0.9,0-1.9-0.1-2.8,0c-0.8,0.1-1.6,0.3-2.4,0.4c-0.9,0.1-1.9,0.3-2.8,0.4c-0.2,0-0.4-0.1-0.6-0.1
		c-0.3,0-0.6-0.1-1-0.1c-1,0.1-1.9,0.3-2.9,0.4c-0.2,0-0.3-0.3-0.5-0.5c0.2-0.2,0.4-0.5,0.6-0.6c1.5-0.2,3-0.3,4.5-0.5
		c0.1,0,0.2,0,0.3-0.1c-0.1-0.7,0-0.9,0.8-1.1c1.5-0.4,2.9-0.8,4.4-1.2c0.1,0,0.2-0.1,0.4-0.2c-3.5,0.3-7,0.8-10.5,0.7
		c0-0.1,0-0.2-0.1-0.3c0.3-0.1,0.6-0.2,1-0.2c1.4-0.1,2.9-0.1,4.3-0.2c2.4-0.2,4.7-0.6,7.1-0.9c0.5-0.1,1,0,1.4-0.2
		c0.4-0.2,0.6-0.6,1-0.9c-0.1-0.2-0.2-0.5-0.4-0.7c-0.5-0.3-0.5-0.8-0.5-1.3c-0.1-1.2-0.2-2.3-0.3-3.5c-0.1-0.9,0.5-1.4,1.4-1.4
		c0.5,0,1,0,1.5-0.2c0.5-0.2,0.7,0,0.8,0.5c0.1,0.3,0.1,0.7,0.1,1c0.1,0.5,0.1,1,0.5,1.5c0.3,0.4,0.2,1,0.3,1.6
		c0.1,1.1,0.1,2.2,0.2,3.4c0,0.5,0.6,1.1,1.2,1c0.5-0.1,0.9,0.1,1,0.7c0.9,0.1,1.6-0.2,2.4-0.6c0.4-0.2,0.8-0.3,1.3-0.4
		c0.2,0,0.5,0.1,0.5,0.3c0,0.2-0.1,0.5-0.2,0.6c-0.4,0.2-0.7,0.4-0.8,0.9c0,0.1-0.2,0.3-0.4,0.3c-1.2,0.6-2.4,1.3-3.6,1.9
		c-0.3,0.2-0.7,0.2-1,0.3c0.4,0.6,0,0.9-0.5,1.1c0.2,0.2,0.5,0.3,0.5,0.4c0.1,0.2-0.1,0.4-0.1,0.7c0.2,0,0.5,0,0.7,0.1
		c0.2,0.1,0.4,0.2,0.4,0.3c0,0.1-0.2,0.4-0.3,0.4c-1,0-1.4,0.6-1.7,1.5C113.8,161,113.3,161,113,161.2z M106.5,153.7
		c0.4,0,0.7,0,1.1-0.1c1.4,0,2.7-0.1,4.1-0.1c0.2,0,0.3-0.2,0.5-0.3c-0.1-0.1-0.3-0.2-0.4-0.3c-0.2-0.2-0.3-0.4-0.4-0.6
		c0-0.1,0.2-0.3,0.3-0.4C110.1,152.8,108.2,152.9,106.5,153.7z M114.8,154.5c-0.3,0-0.5,0.1-0.7,0.1c-0.8,0.2-1.6,0.5-2.4,0.7
		c-0.5,0.1-1.1,0-1.7,0c0,0.1,0,0.1,0,0.2c0.7,0,1.3,0,2,0c0.7,0,1.4,0,2.1,0c0.2,0,0.4-0.2,0.6-0.4
		C114.7,155,114.7,154.8,114.8,154.5z M107.6,154.1c-1,0.1-1.8,0.2-2.7,0.3c0,0.1,0,0.1,0,0.2C105.6,154.8,107.2,154.6,107.6,154.1z
		"/>
	<path class="st0" d="M104.8,146c0.4,0.1,0.6,0.2,0.8,0.3c0.4,0.1,0.5,0.4,0.3,0.8c-0.1,0.2-0.3,0.4-0.4,0.6c-0.3,0.3-0.9,0.2-1-0.2
		c-0.1-0.4-0.3-0.5-0.7-0.5c-0.2,0-0.3,0-0.5,0c-0.9-0.1-1.3-0.5-1.3-1.3c0-0.2,0.1-0.3,0.3-0.5c0.1-0.1,0.3-0.2,0.4-0.4
		c-0.4,0-0.8,0.1-1.2,0.1c-1.1,0.1-2.1,0.2-3.2,0.3c-1.6,0.1-3.2,0.2-4.8,0.3c-0.7,0-1.3,0-2,0c-0.1,0-0.3-0.2-0.4-0.3
		c0.1-0.1,0.3-0.3,0.4-0.3c1.3-0.1,2.6-0.2,3.8-0.3c2.3-0.2,4.6-0.4,6.9-0.7c1.5-0.2,3-0.6,4.5-0.9c0.1,0,0.3-0.1,0.4,0
		c0.2,0.1,0.5,0.2,0.5,0.3c0,0.2-0.1,0.5-0.3,0.6c-0.1,0.1-0.4,0.2-0.6,0.3c-0.4,0.1-0.6,0.4-0.8,0.8c-0.1,0.2-0.4,0.4-0.7,0.6
		C105.4,145.6,105.1,145.8,104.8,146z"/>
	<path class="st0" d="M136.4,54.6c0.6,0.1,1.2,0.2,1.8,0.4c0.4,0.1,0.5,0.4,0.4,0.7c-0.1,0.4-0.3,0.4-0.7,0.3c-0.7,0-1.3,0.1-2,0.1
		c-0.5,0-1,0-1.5,0c-0.1,0-0.2,0-0.3,0.1c-0.6,0.4-1.2,0.9-1.8,1.3c-0.2,0.1-0.4,0.1-0.6,0.2c0-0.2,0-0.4,0.1-0.6
		C133,55.7,134.4,54.7,136.4,54.6z"/>
	<path class="st0" d="M134.8,58.9c1.6,0.4,3.3,0.6,4.5,2c0.2,0.2,0.4,0.5,0.4,0.7c0,0.2-0.1,0.5-0.2,0.6c-0.1,0.1-0.4,0-0.5-0.2
		c-1.4-1.4-3-2.1-5-1.9c-0.4,0-0.9,0.2-1-0.4c-0.1-0.6,0.5-0.6,0.8-0.7C134,59,134.4,59,134.8,58.9z"/>
	<path class="st0" d="M92.3,148.3c-0.3,0-0.7,0-1,0c-0.2,0-0.4-0.2-0.5-0.3c0.1-0.2,0.2-0.4,0.4-0.5c1.2-0.3,2.4-0.5,3.5-0.8
		c0.5-0.1,1-0.2,1.5-0.3c0.2,0,0.4,0,0.6,0c-0.1,0.2-0.1,0.5-0.3,0.6c-0.7,0.7-1.7,0.8-2.6,1C93.3,148,92.8,148.1,92.3,148.3
		C92.2,148.2,92.2,148.2,92.3,148.3z"/>
	<path class="st0" d="M139.9,128c0.1-0.1,0.3-0.3,0.5-0.3c0.8-0.2,1.5-0.7,1.9-1.4c0.1-0.2,0.3-0.3,0.5-0.4c0.2-0.2,0.4-0.4,0.7-0.5
		c0.2-0.1,0.4-0.1,0.6-0.1c0,0.2,0.2,0.5,0.1,0.7c-0.5,0.6-1,1.3-1.6,1.8c-0.5,0.4-1.1,0.7-1.7,1.1
		C140.3,129.1,139.9,128.8,139.9,128z"/>
	<path class="st0" d="M109.5,149c-0.5,0.3-1.1,0.7-1.6,1c-0.1,0.1-0.3,0.1-0.4,0.2c-0.7,1-1.5,0.5-2.4,0.3c-0.4-0.1-0.5-0.6-0.1-0.7
		c1.4-0.5,2.8-1.2,4.3-1C109.5,148.8,109.5,148.9,109.5,149z"/>
	<path class="st0" d="M107.9,147.1c-0.3-0.3-0.6-0.4-0.7-0.6c0-0.2,0.2-0.5,0.4-0.6c0.4-0.2,0.8-0.4,1.2-0.5c0.2,0,0.5,0.1,0.7,0.2
		c-0.1,0.2-0.1,0.5-0.3,0.6C108.9,146.5,108.4,146.8,107.9,147.1z"/>
	<path class="st0" d="M104.7,141.2c-0.2-0.2-0.3-0.4-0.3-0.4c0.1-0.2,0.2-0.3,0.4-0.4c0.1,0.1,0.3,0.2,0.2,0.2
		C104.9,140.7,104.8,140.9,104.7,141.2z"/>
	<path class="st0" d="M60.3,118.1c-0.9,2.5-1.8,5-2.6,7.5c-0.1,0-0.2,0-0.2,0c0-0.3-0.1-0.5,0-0.8c0.7-2,1.3-4,2-5.9
		C59.6,118.4,59.9,118,60.3,118.1z"/>
	<path class="st0" d="M59.8,98.8c0,0.2,0,0.3,0,0.4c-0.4,1.3-0.9,2.7-1.3,4c0,0.1-0.2,0.1-0.2,0.2c-0.1-0.1-0.2-0.2-0.2-0.2
		c0.3-1.4,0.5-2.9,1.4-4.1C59.5,98.9,59.6,98.9,59.8,98.8z"/>
	<path class="st0" d="M60.4,113c-0.4,1.3-0.8,2.5-1.2,3.8C58.7,115.9,59.5,113.7,60.4,113z"/>
	<path class="st0" d="M58.5,45.6c-0.3-0.1-0.5-0.2-0.7-0.3c-0.1,0-0.2-0.1-0.3-0.1c-1.1-0.4-1.4-0.7-1.5-1.9c0-0.8,0-1.5,0.1-2.3
		c0-0.2,0.1-0.3,0.2-0.6c0.1,0.4,0.2,0.6,0.4,0.9c0.3-0.5,0.6-1.1,1.3-0.3c0.2-0.3,0.2-0.6,0.4-0.7c0.2-0.2,0.5-0.2,0.8-0.3
		c0,0.3,0.1,0.5,0.1,0.8c0,0.1-0.1,0.3,0,0.4c0.2,0.5,0.5,1.1,0.8,1.6c0.6,1,0.4,1.9-0.4,2.6c-0.1,0.1-0.2,0.4-0.3,0.5
		c-0.2,0.6-0.4,1.2-0.6,1.8c-0.1,0.1-0.4,0.2-0.6,0.2c-0.2,0-0.4-0.2-0.4-0.4c-0.1-0.5-0.1-1,0.4-1.4C58.2,45.9,58.3,45.7,58.5,45.6
		z M58.5,41.5c-0.1,0-0.1,0.1-0.2,0.1c0.2,1.6,0.4,1.9,1.2,2C59.1,42.8,58.8,42.1,58.5,41.5z"/>
	<path class="st0" d="M94.9,54.7c0.6-0.4,1.1-0.7,1.6-1c0.2-0.1,0.4-0.1,0.6-0.2c0,0.2,0,0.4,0,0.7c0,0.3-0.1,0.6,0,0.9
		c0,0.6-0.4,0.7-0.8,0.8c-0.4,0.2-0.8,0.3-1.2,0.3c-0.2,0-0.4-0.2-0.6-0.3c-0.2-0.1-0.4-0.2-0.5-0.2c-0.8,0.6-1.8,0.5-2.7,0.4
		c-0.5,0-0.3-0.4-0.3-0.8c0.2,0.2,0.3,0.2,0.3,0.3c0.2-0.4,0.4-0.9,0.7-1.2c0.2-0.2,0.6-0.3,0.8-0.2c0.3,0.1,0.3,0.5,0.2,0.8
		c-0.1,0.1-0.1,0.3-0.2,0.4c0.9,0.1,1.2-0.2,1.2-1c0-0.1,0.1-0.4,0.2-0.4c0.1,0,0.3,0.1,0.4,0.2C94.7,54.2,94.7,54.4,94.9,54.7z"/>
	<path class="st0" d="M95.6,47.1c0.4,0,0.7,0.1,1,0.1c-0.1,0.3-0.2,0.6-0.4,0.9c-0.3,0.5-0.6,0.9-1,1.3c-0.1,0.1-0.2,0.2-0.3,0.2
		c-0.1-0.1-0.2-0.3-0.2-0.4c0.1-0.9,0.3-1.8,0.4-2.6c0.1-0.4,0.1-0.8,0.2-1.3c0.1-0.6,0.1-0.7,0.7-0.9c-0.3-0.8-0.1-1.5,0.5-2.1
		c0.3-0.4,0.7-0.3,1.1-0.1c0.2,0.1,0.4,0.5,0.4,0.7c0.1,0.9-0.6,1.6-1.8,1.8c0.2,0.7,0,1.3-0.5,1.8C95.6,46.6,95.6,46.9,95.6,47.1z"
		/>
	<path class="st0" d="M100.3,64.9c-0.2-0.2-0.7-0.4-0.8-0.7c-0.1-0.3,0.1-0.8,0.2-1.2c0.1-0.2,0.3-0.3,0.4-0.5
		c0.2-0.5,0.6-0.6,1.1-0.4c0.4,0.1,0.6,0,0.7-0.4c0.1-0.3,0.3-0.6,0.4-0.8c0.3-0.4,0.6-0.4,0.9,0.1c0.4,0.7,0.2,1.6-0.5,2.1
		c-0.2,0.1-0.4,0.4-0.5,0.6C101.8,64.4,101.2,64.7,100.3,64.9z"/>
	<path class="st0" d="M99.6,56.6c0.2,0.3,0.5,0.6,0.5,0.8c0,0.3-0.1,0.8-0.4,1c-0.2,0.2-0.7,0.2-1,0.2c-0.1,0-0.2-0.2-0.3-0.4
		c0.1-0.1,0.3-0.2,0.4-0.2c0.2-0.1,0.4-0.2,0.6-0.3c-0.2-0.1-0.3-0.3-0.5-0.4c-0.7-0.3-0.8-0.6-0.2-1.1c0.1-0.1,0.2-0.2,0.2-0.3
		c-0.1-0.9,0.4-1.5,0.8-2.1c0.3-0.4,0.8-0.4,1.3-0.2c0.4,0.2,0.5,0.6,0.4,1.1C100.9,55.6,100.4,56.2,99.6,56.6z M99.5,55.7
		c0.6-0.2,1.1-0.7,1.1-1.2C99.5,55.1,99.5,55.1,99.5,55.7z"/>
	<path class="st0" d="M94.9,58.5c0.1,0.2,0.2,0.3,0.3,0.5c0.2,0.3,0.5,0.3,0.7,0.1c0.6-0.4,1.2-0.4,1.7,0.1c0.4,0.4,0.7,1.3,0.4,1.8
		c-0.1,0.3-0.5,0.6-0.7,0.5c-0.3,0-0.6-0.3-0.7-0.6c-0.2-0.6-0.6-1-1.2-1.2C94.8,59.6,94.6,59.2,94.9,58.5z"/>
	<path class="st0" d="M60.1,50.4c-0.4,0.3-0.8,0.5-1.2,0.1c-0.3-0.3-0.2-1.3,0.1-1.5c0.3-0.2,0.8-0.4,1.2-0.5c0.1,0,0.4,0.3,0.4,0.5
		c0,0.3,0,0.6-0.1,0.9c1,0.4,1.2,1.3,0.5,2c-0.1,0.1-0.4,0.3-0.5,0.2c-0.2-0.1-0.4-0.3-0.4-0.5C60.1,51.2,60.1,50.9,60.1,50.4z"/>
	<path class="st0" d="M93.1,60.4c0,0.8-0.4,1.4-1,1.9c-0.2,0.1-0.6,0.1-0.8,0c-0.2-0.1-0.4-0.4-0.3-0.6c0.2-0.7,0.4-1.4,0.7-2
		c0.1-0.2,0.6-0.5,0.8-0.4c0.3,0.2,0.5,0.5,0.7,0.8C93.1,60.2,93.1,60.3,93.1,60.4z M91.6,61.5c0.7-0.2,1-0.6,0.8-1.2
		C92.1,60.7,91.8,61.1,91.6,61.5z"/>
	<path class="st0" d="M87.7,46.5c-0.5,0-0.8-0.4-0.7-0.8c0.1-0.6,0.3-1.1,0.6-1.6c0.1-0.2,0.5-0.4,0.8-0.4c0.4,0,0.9,0.1,1,0.7
		C89.6,45.2,88.6,46.5,87.7,46.5z M88.5,44.4c-0.3,0.4-0.5,0.8-0.8,1.2C88.7,45.3,89,44.8,88.5,44.4z"/>
	<path class="st0" d="M115.5,42.2c0,1-0.5,1.6-1.2,2.1c-0.4,0.3-1,0-1-0.5c0-0.8,0.3-1.5,0.9-2c0.2-0.2,0.7-0.1,1,0
		C115.4,41.8,115.4,42.2,115.5,42.2z"/>
	<path class="st0" d="M101.8,57.9c-0.3-0.7,0.4-1,0.9-1.4c0.1-0.1,0.4,0,0.5,0.1c0.4,0.3,0.6,1.5,0.4,1.9c-0.2,0.5-0.6,0.8-1.1,0.7
		c-0.5-0.1-0.7-0.6-0.6-1.1C101.8,58,101.8,58,101.8,57.9z M102.4,58.3c0,0.1,0.1,0.1,0.1,0.2c0.2-0.1,0.4-0.2,0.5-0.4
		c0.1-0.1,0-0.3-0.1-0.5c-0.1,0-0.1,0-0.2,0C102.7,57.8,102.5,58.1,102.4,58.3z"/>
	<path class="st0" d="M91.2,47.1c0.1-0.3,0.2-0.7,0.4-0.9c0.2-0.4,0.4-0.6,0.8-0.2c0.1,0.1,0.3,0.1,0.5,0.2c0.2,0.1,0.5,0.3,0.6,0.5
		c0.2,0.4-0.2,0.9-0.7,1.2c-0.4,0.2-0.9,0.2-1.2-0.2C91.3,47.6,91.2,47.3,91.2,47.1z"/>
	<path class="st0" d="M80.7,40c-0.2,0-0.3,0.1-0.5,0c-0.2-0.1-0.4-0.2-0.6-0.4c0.1-0.2,0.3-0.5,0.4-0.5c0.7,0,1.4,0.1,2,0.3
		c0.4,0.1,0.4,0.7,0.1,1c-0.1,0.1-0.2,0.1-0.2,0.2c-0.3,0.2-0.6,0.6-0.9,0.3c-0.2-0.1-0.2-0.6-0.2-0.9C80.7,40.1,80.7,40,80.7,40z"
		/>
	<path class="st0" d="M114.6,48.7c0-0.5,0.1-1,0.1-1.5c0-0.2-0.1-0.5-0.1-0.7c0-0.5,0-1,0-1.5c0-0.1,0.3-0.2,0.5-0.3
		c0.1,0.2,0.2,0.4,0.1,0.5c-0.2,0.5,0,0.9,0.1,1.4c0.1,0.7,0.1,1.4,0,2.1c0,0.2-0.3,0.4-0.5,0.6c-0.1-0.2-0.3-0.4-0.4-0.6
		C114.6,48.7,114.6,48.7,114.6,48.7z"/>
	<path class="st0" d="M98.8,49.4c0,0.1,0.1,0.3,0.2,0.4c0.5,0.3,0.3,0.6,0.2,1c-0.1,0.3-0.2,0.7-0.3,1c-0.1,0.2-0.3,0.3-0.4,0.4
		c-0.1-0.1-0.2-0.2-0.3-0.4c-0.6-0.9-0.4-1.8,0.2-2.6c0.1-0.1,0.3-0.2,0.5-0.3c0.1,0.1,0.1,0.3,0.2,0.4
		C98.9,49.3,98.9,49.4,98.8,49.4z"/>
	<path class="st0" d="M91.7,42.6c-0.1,0.3-0.1,0.7-0.2,1.1c0.5-0.1,0.8-0.2,0.8-0.8c0-0.2,0.2-0.5,0.4-0.6c0.1-0.1,0.4,0,0.5,0.1
		c0.1,0.2,0.2,0.6,0.1,0.7c-0.4,0.4-0.9,0.9-1.4,1.2c-0.2,0.1-0.6,0-0.8-0.1C91,44,91,43.6,91,43.3c0.1-0.3,0.3-0.6,0.5-0.8
		C91.6,42.5,91.7,42.6,91.7,42.6z"/>
	<path class="st0" d="M101,41.4c0.1,0.1,0.3,0.3,0.4,0.5c0.1,0.5-0.4,1.4-0.9,1.6c-0.4,0.1-0.6,0-0.8-0.4
		C99.4,42.4,100.1,41.4,101,41.4z"/>
	<path class="st0" d="M59.8,46.8c0-0.7,0.2-1.1,0.6-1.1c0.4,0,1.1,0.9,0.9,1.4c-0.1,0.3-0.4,0.6-0.7,0.7c-0.4,0.1-0.7-0.1-0.8-0.6
		C59.8,47.1,59.8,46.9,59.8,46.8z"/>
	<path class="st0" d="M84.1,42.5c-0.2-0.2-0.5-0.4-0.6-0.7c-0.2-0.4,0.1-0.8,0.5-0.9c0.3-0.1,0.7-0.2,0.9,0.2
		c0.2,0.3,0.4,0.6,0.6,0.9c0,0.1,0.1,0.3,0,0.3c-0.1,0.1-0.2,0.1-0.4,0.1c-0.3,0-0.6-0.1-0.9-0.1C84.2,42.4,84.1,42.4,84.1,42.5z"/>
	<path class="st0" d="M100.3,46.4c-0.2,0.2-0.4,0.6-0.8,0.8c-0.3,0.2-0.6,0-0.7-0.4c-0.1-0.5,0.2-1.3,0.7-1.5
		C100,45.2,100.3,45.5,100.3,46.4z"/>
	<path class="st0" d="M88.5,41.5c-0.1-0.1-0.3-0.3-0.3-0.4c-0.1-0.2,0-0.4,0-0.6c0.2,0,0.5,0,0.6,0.1c0.3,0.4,0.5,0.9,0.7,1.4
		c0.1,0.1-0.1,0.5-0.3,0.5c-0.3,0-0.6,0-0.8-0.1c-0.1-0.1,0-0.4,0-0.6C88.4,41.6,88.5,41.6,88.5,41.5z"/>
	<path class="st0" d="M59.5,55.6c0,0.6-0.4,1.3-0.8,1.2c-0.5-0.1-0.6-0.5-0.6-0.9c0-0.4-0.1-0.9,0.5-1.1
		C59,54.7,59.5,55.3,59.5,55.6z"/>
	<path class="st0" d="M112.3,51.4c0.2-0.2,0.3-0.4,0.4-0.6c0.1-0.1,0.4-0.2,0.5-0.1c0.1,0,0.2,0.3,0.2,0.5c-0.1,0.5-0.7,1-1.1,0.9
		c-0.5-0.1-0.9-0.5-0.9-1.1c0-0.2,0.2-0.3,0.3-0.4c0.1,0.1,0.2,0.2,0.3,0.3C112.1,51,112.2,51.2,112.3,51.4z"/>
	<path class="st0" d="M112.2,42c0.1,0.4-0.3,1,0.4,1.1c-0.1,0.7-0.3,1.4-0.4,2.1c0,0.1-0.1,0.2-0.2,0.2c-0.1,0-0.3-0.1-0.3-0.2
		c-0.1-0.3-0.1-0.6,0-0.8c0.1-0.4,0.2-0.8,0.1-1.3c-0.1-0.4,0.2-0.8,0.2-1.2C112.1,42,112.2,42,112.2,42z"/>
	<path class="st0" d="M91,51.5c0,0.1,0,0.3,0,0.4c0,0.1,0,0.2-0.1,0.3c0.1,0,0.1,0,0.1,0c0.2-0.1,0.4-0.3,0.6-0.4
		c0,0,0.2,0.2,0.2,0.2c-0.1,0.3-0.2,0.6-0.3,0.9c-0.1,0.1-0.3,0.3-0.4,0.3c-0.2,0.1-0.4,0.2-0.5,0.2c-0.1-0.1-0.3-0.3-0.3-0.5
		c0.1-0.5,0.3-1,0.5-1.5C90.9,51.5,91,51.5,91,51.5z"/>
	<path class="st0" d="M58.3,52.2c0.2-0.3,0.3-0.6,0.6-0.8c0.2-0.1,0.8,0.6,0.8,0.9c-0.1,0.4-0.1,0.8-0.6,0.8
		C58.7,53.2,58.4,52.8,58.3,52.2z"/>
	<path class="st0" d="M56.2,62.1c0.1-0.4,0.2-0.7,0.3-0.9c0.1-0.1,0.4-0.2,0.4-0.2c0.3,0.4,0.5,0.8,0.7,1.2c0,0.1-0.4,0.5-0.6,0.5
		C56.6,62.6,56.4,62.3,56.2,62.1z"/>
	<path class="st0" d="M60.3,63.7c-0.3,0.4-0.5,0.7-0.7,0.9c-0.4,0.1-0.6-0.4-0.7-1.1c0-0.5,0.4-0.6,0.7-0.6
		C59.8,62.9,60,63.3,60.3,63.7z"/>
	<path class="st0" d="M88.7,49.2c0,0.5-0.3,1-0.6,0.9c-0.2-0.1-0.5-0.5-0.5-0.7c0-0.4,0.2-0.8,0.5-1C88.1,48.2,88.7,48.8,88.7,49.2z
		"/>
	<path class="st0" d="M77.9,39c-0.3,0.4-0.7,0.7-0.2,1.1c0.1,0.1,0,0.4-0.1,0.4c-0.1,0.1-0.4,0.1-0.5,0c-0.4-0.2-0.6-0.5-0.4-0.9
		C77,39,77.4,38.8,77.9,39z"/>
	<path class="st0" d="M59.6,58.7c0,0.7-0.4,1.2-0.7,1.1c-0.2-0.1-0.4-0.4-0.4-0.7c-0.1-0.4,0.4-0.9,0.7-0.8
		C59.4,58.4,59.5,58.7,59.6,58.7z"/>
	<path class="st0" d="M113.4,49.9c-0.1,0-0.4-0.1-0.5-0.3c-0.1-0.1-0.1-0.5-0.1-0.5c0.3-0.2,0.7-0.3,1-0.4c0.1,0,0.3,0.3,0.3,0.4
		C114.2,49.6,114,49.9,113.4,49.9z"/>
	<path class="st0" d="M56.2,58.7c0-0.2,0-0.5,0.1-0.7c0.1-0.2,0.2-0.3,0.3-0.4c0.1,0.2,0.2,0.3,0.3,0.5c0.1,0.2,0,0.5,0.1,0.7
		c0.1,0.3,0.1,0.6-0.3,0.6c-0.2,0-0.4-0.3-0.5-0.5C56.2,58.9,56.2,58.8,56.2,58.7z"/>
	<path class="st0" d="M94.1,52.6c-0.1-0.1-0.3-0.2-0.4-0.4c0.1-0.1,0.3-0.2,0.4-0.4c0.2-0.1,0.3-0.3,0.5-0.4
		c0.1-0.1,0.3-0.1,0.4-0.2c0,0.2,0.2,0.4,0.1,0.5C95,52.2,94.7,52.5,94.1,52.6z"/>
	<path class="st0" d="M102.7,51.3c-0.1-0.2-0.3-0.4-0.3-0.5c0-0.6,0-1.2,0.5-1.7c0.1,0,0.2,0,0.2,0c0,0.7-0.1,1.4-0.1,2.1
		C102.9,51.3,102.8,51.3,102.7,51.3z"/>
	<path class="st0" d="M98.8,53.5c0.3-0.4,0.5-0.9,0.8-1.3c0-0.1,0.3-0.1,0.3,0c0.1,0.1,0.1,0.3,0.1,0.4c-0.3,0.4-0.6,0.8-0.9,1.2
		C99,53.6,98.9,53.6,98.8,53.5z"/>
	<path class="st0" d="M104.8,42.4c-0.2,0.4-0.4,0.7-0.5,1c0,0-0.2-0.1-0.2-0.1c0-0.3,0-0.7,0.1-1c0-0.1,0.3-0.3,0.4-0.2
		C104.6,42.1,104.6,42.3,104.8,42.4z"/>
	<path class="st0" d="M112.4,48.7c-0.3,0.1-0.5,0.3-0.5,0.3c-0.2-0.2-0.4-0.4-0.6-0.6c0.1-0.1,0.3-0.3,0.4-0.3
		C111.9,48.2,112.1,48.4,112.4,48.7z"/>
	<path class="st0" d="M66.7,36.2c0-0.3,0.1-0.7,0.1-1c0-0.1,0-0.1,0-0.2c0.1-0.3,1.9-1,2.2-0.8c0.1,0.1,0.3,0.4,0.2,0.5
		c-0.4,0.7-0.8,1.4-1.2,2.1c-0.1,0.2-0.6,0.3-0.9,0.2c-0.3-0.1-0.4-0.5-0.6-0.8C66.6,36.3,66.7,36.2,66.7,36.2z"/>
	<path class="st0" d="M76.7,32.3c-0.7,0.5-0.8,1.1-0.9,1.9c1-0.3,1.3-1.1,1.6-1.9c0.1,0,0.1,0,0.2,0c0,0.2,0.1,0.5,0,0.7
		c-0.4,0.6-0.8,1.2-1.2,1.7c-0.2,0.2-0.6,0.2-0.8,0.1c-0.2-0.1-0.4-0.5-0.4-0.8c0.1-0.6,0.3-1.2,0.6-1.7
		C75.9,32,76.3,31.9,76.7,32.3z"/>
	<path class="st0" d="M78.9,36.2c0-0.8,0.4-1.4,0.9-1.5c0.3,0,0.7,0.1,0.9,0.3c0.1,0.2,0.1,0.6,0,0.8c-0.2,0.4-0.5,0.7-0.9,0.9
		C79.4,37.1,78.9,36.7,78.9,36.2z M80.4,35.5c-0.1-0.1-0.2-0.2-0.2-0.2c-0.2,0.2-0.4,0.5-0.6,0.7c0.1,0.1,0.1,0.1,0.2,0.2
		C79.9,35.9,80.2,35.7,80.4,35.5z"/>
	<path class="st0" d="M88.3,32.7c0,0.7-0.7,1.4-1.2,1.5c-0.4,0.1-0.7-0.3-0.5-0.6c0.2-0.4,0.4-0.8,0.7-1.2c0.1-0.1,0.4-0.2,0.6-0.1
		C88.1,32.4,88.2,32.6,88.3,32.7z"/>
	<path class="st0" d="M62,36.3c0.1-0.6,0.2-0.9,0.7-0.9c0.4,0,0.6,0.2,0.6,0.6c0,0.4-0.4,0.9-0.7,0.8C62.4,36.7,62.2,36.4,62,36.3z"
		/>
</g>
</svg>
