<?xml version="1.0" encoding="utf-8"?>
<!-- Generator: Adobe Illustrator 27.1.1, SVG Export Plug-In . SVG Version: 6.00 Build 0)  -->
<svg version="1.1" id="Layer_1" xmlns="http://www.w3.org/2000/svg" xmlns:xlink="http://www.w3.org/1999/xlink" x="0px" y="0px"
	 viewBox="0 0 200 200" style="enable-background:new 0 0 200 200;" xml:space="preserve">
<style type="text/css">
	.st0{fill:#1C92A7;}
</style>
<g>
	<g>
		<g>
			<path class="st0" d="M61.2,174.9c-13,0-25.5-1.1-37.1-3.3l-3-0.6L9.2,59.9l90.1-38.4l90.1,38.4l-11.8,110.4l-4.3-0.7
				c-10-1.7-21.3-2.5-32.7-2.5c-13.7,0-27.2,1.3-39.2,3.9C89.1,173.5,75.2,174.9,61.2,174.9z M28.7,164.1
				c10.2,1.8,21.2,2.7,32.5,2.7c13.4,0,26.8-1.3,38.5-3.8c12.5-2.7,26.6-4.1,40.9-4.1c10.3,0,20.5,0.7,29.8,2l10.2-95.8L99.3,30.3
				L18,65.1L28.7,164.1z"/>
		</g>
	</g>
	<g>
		<path class="st0" d="M140.6,123.5c1.3,1.8,1.9,3.8,1.8,6c0,0.8-0.1,1.6-0.5,2.3c-0.4,0.7-0.7,1.3-1.1,1.9
			c-0.9,1.6-2.2,2.6-3.9,3.2c-0.1,0-0.1,0.1-0.2,0.1c0.1,0.1,0.2,0.2,0.3,0.3c0.3,0.3,0.3,0.6,0.1,0.9c-0.2,0.3-0.5,0.2-0.8,0
			c-0.4-0.2-0.8-0.4-1.2-0.7c0,0.2,0.1,0.3,0.1,0.4c0,0.2,0,0.5-0.1,0.5c-0.2,0.1-0.4,0-0.6-0.1c-0.4-0.2-0.7-0.5-1.1-0.7
			c-0.2-0.1-0.4-0.2-0.6-0.3c0,0.1-0.1,0.1-0.1,0.2c-0.1,0.2-0.1,0.6-0.2,0.6c-0.2,0-0.5-0.1-0.7-0.2c-0.4-0.2-0.7-0.6-1.1-0.8
			c-0.4,0.7-0.5,0.8-1.2,0.3c-0.3-0.2-0.5-0.4-0.7-0.5c-0.2,0.3-0.3,0.6-0.4,0.6c-0.2,0-0.5-0.2-0.7-0.3c-0.1-0.1-0.3-0.2-0.4-0.4
			c-0.4,0.5-0.6,0.6-1.1,0.2c-0.4-0.3-0.7-0.6-1.1-0.9c-0.3,0.5-0.7,0.5-1.1,0.2c-0.4,0.9-0.9,0.3-1.3,0.1c-0.2,0.4-0.3,1-0.6,1.1
			c-0.3,0.1-0.8-0.1-1.2-0.1c-0.1,0.3-0.1,0.7-0.2,1c-0.4-0.1-0.7-0.1-1.1-0.2c-0.1,0.1-0.1,0.4-0.2,0.4c-0.5,0.1-0.7,0.3-0.9,0.7
			c-0.1,0.3-0.7,0.4-1,0.6c0,0.1,0.1,0.1,0.1,0.2c0,0.2,0,0.4,0,0.6c-0.2,0-0.5,0-0.7-0.1c-0.2-0.1-0.4-0.3-0.6-0.4
			c-0.5,0.6-0.5,0.6-1.1,0.2c-0.2-0.1-0.4-0.2-0.5-0.3c-0.2-0.1-0.3-0.2-0.5,0c-0.2,0.3-0.5,0.2-0.7,0.1c-0.3-0.2-0.6-0.4-0.9-0.6
			c-0.4,0.4-0.6,0.5-1,0.2c-0.1-0.1-0.2-0.2-0.3-0.2c-0.2-0.2-0.4-0.3-0.7-0.1c-0.2,0.1-0.5,0-0.7-0.1c-0.3-0.1-0.5-0.3-0.8-0.5
			c-0.4,0.5-0.7,0.4-1.1,0c-0.4-0.4-0.9-0.8-1.3-1.2c-0.3-0.3-0.5-0.5-0.7-0.8c-0.2-0.2-0.3-0.4-0.5-0.6c-0.4,0.6-0.6,0.6-1,0
			c-0.2-0.3-0.4-0.6-0.6-0.9c-0.6,0.4-0.7,0.3-1.2-0.2c-0.2-0.3-0.4-0.6-0.7-0.9c-0.4,0.6-0.6,0.6-1.1,0.1c-0.1-0.1-0.3-0.2-0.4-0.1
			c-0.4,0.3-0.6,0.1-0.9-0.1c-0.1-0.1-0.3-0.2-0.4-0.3c-0.5,0.5-0.5,0.5-1.1,0c-0.1-0.1-0.2-0.1-0.2-0.2c-0.2-0.2-0.3-0.2-0.5,0
			c-0.2,0.3-0.5,0.3-0.8,0.1c-0.4-0.2-0.7-0.5-1.1-0.7c-0.1-0.1-0.4-0.1-0.5,0c-0.2,0.2-0.4,0.3-0.7,0.1c-0.1,0-0.2,0-0.2,0.1
			c-0.3,0.4-0.6,0.1-0.9,0c-0.2-0.1-0.4-0.2-0.6-0.2c-0.4,0.2-0.6,0.1-0.9-0.1c-0.2-0.1-0.3-0.2-0.5,0c-0.2,0.3-0.4,0.2-0.6,0.1
			c-0.3-0.2-0.6-0.4-0.9-0.6c-0.1-0.1-0.4,0-0.4,0.1c-0.3,0.3-0.5,0.2-0.8,0c-0.3-0.2-0.5-0.4-0.8-0.6c-0.1-0.1-0.3-0.1-0.4-0.1
			c-0.3,0.4-0.6,0.1-1,0c-0.2-0.1-0.4,0-0.6,0c-0.2,0-0.5,0-0.7,0c-0.3-0.1-0.6-0.2-0.8-0.2c-0.1,0.4-0.2,0.7-0.3,0.8
			c-0.1,0.1-0.4-0.1-0.6-0.2c-0.3-0.2-0.5-0.4-0.8-0.6c-0.5-0.3-1-0.5-1.5-0.7c0,0.1,0,0.2,0,0.2c0.3,0.5,0.3,0.7-0.4,0.9
			c-0.3,0.1-0.5,0.2-0.7,0.4c-0.2,0.3-0.5,0.3-0.8,0.1c-0.4-0.2-0.7-0.2-0.9,0.2c-0.1,0.1-0.4,0.2-0.5,0.2c-0.1-0.1-0.2-0.3-0.2-0.5
			c0-0.5,0.3-0.9,0.7-1.1c0.5-0.3,1-0.6,1.5-0.9c0.3-0.2,0.7-0.4,1-0.2c0.6,0.2,1.1,0.4,1.7,0.6c0.1,0.1,0.3,0.1,0.5,0.1
			c0.3,0,0.7,0,1,0c0.5,0,1,0.3,1.6,0c0.2-0.1,0.5,0,0.8,0.1c0.6,0,1.3-0.1,1.8,0.2c0,0,0.1,0,0.2,0c0.3,0,0.6,0,0.9,0.1
			c0.2,0,0.3,0.2,0.5,0.3c0.2,0.1,0.3,0.1,0.5,0.2c-0.8-0.7-1.5-1.4-1.9-2.3c0-0.1-0.2-0.2-0.3-0.2c-1.1-0.1-2.2,0-3.3-0.1
			c-2.2-0.2-4.4-0.4-6.6-0.4c-0.3,0-0.4,0-0.5,0.3c-0.1,1.1-0.5,2-1.1,2.9c-0.2,0.3-0.4,0.5-0.6,0.7c-0.7,0.6-1.6,0.8-2.4,1.1
			c-1.6,0.6-3.3,0.7-5,0.4c-0.3-0.1-0.7-0.1-1-0.1c-1.7-0.4-2.7-1.6-3.4-3c-1-1.9-1.1-4-1-6.2c0-0.3,0-0.5-0.3-0.8
			c-0.4-0.4-0.7-0.9-0.6-1.5c0.1-0.8,0.1-1.6,0.4-2.3c0.6-2,1.4-3.9,2.1-5.8c0-0.1,0.1-0.2,0.2-0.3c0.1-0.1,0.2-0.3,0.2-0.4
			c0.2-1.4,0.7-2.7,1.3-4c0-0.1,0-0.2,0-0.3c-0.3-1.1,0.1-2.2,0.6-3.1c0.6-1.1,1.9-1.7,3.1-1.8c1-0.1,2.1,0,3.1,0.1
			c0.7,0,0.7,0,0.6-0.7c-0.1-1.5-0.3-2.9-0.4-4.4c0-1,0.1-2,0.3-3c0.1-0.7,0.7-1.1,1.3-1.1c0.4,0,0.5-0.1,0.5-0.5c0-0.2,0-0.4,0-0.6
			c0.1-2,0.1-4,0.3-6c0.2-1.9,0.5-3.7,0.7-5.5c0-0.3-0.1-0.4-0.3-0.4c-0.4-0.1-0.9-0.3-1.3-0.5c-0.7-0.4-1.4-1-2.2-1.4
			c-0.7-0.3-0.7-0.8-0.7-1.4c0-0.2-0.1-0.4,0-0.5c0.1-0.3,0.3-0.7,0.5-1c0.9-0.9,2.2-1.1,3.4-1.5c1.1-0.3,2.2-0.4,3.2-0.7
			c2.2-0.5,4.5-0.9,6.8-1.1c2.2-0.2,4.4-0.3,6.6-0.4c1.6-0.1,3.3-0.2,4.9-0.2c2.1,0,4.3,0,6.4,0.1c1.7,0,3.4,0.1,5,0.2
			c1.9,0.2,3.9,0.4,5.8,0.6c2,0.3,4.1,0.5,6.1,0.8c1.2,0.2,2.5,0.4,3.7,0.8c1.2,0.3,2.3,0.8,3.4,1.3c0.6,0.2,0.8,0.7,0.6,1.4
			c-0.1,0.3-0.1,0.3-0.4,0.3c-0.9-0.1-1.8-0.2-2.7-0.3c-0.3,0-0.6,0-1-0.1c0.2,0.3,0.4,0.5,0.6,0.8c0.3,0.6,0.6,1.3,0.9,1.9
			c0.2,0.5,0.5,1,0.7,1.5c0.2,0.7,0.4,1.5,0.6,2.2c0.5,1.5,1,3,1.4,4.5c0.7,2.5,1.3,5.1,1.9,7.6c0.7,2.7,1.5,5.4,1.5,8.3
			c0,1.4-0.1,2.8-0.3,4.2c-0.1,0.6,0.1,0.9,0.5,1.2c0.8,0.9,1.7,1.8,2.5,2.7c1.2,1.4,2.4,2.9,3.5,4.4c0.4,0.5,0.8,1,1.1,1.4
			c0.4,0.5,0.3,0.8-0.3,0.9c-0.3,0.1-0.5,0.2-0.9,0.3C139.2,121.5,139.9,122.5,140.6,123.5z M135.7,119.4c0.3-0.3,0.5-0.7,0.8-1
			c0.1-0.1,0.3-0.1,0.5-0.1c0,0.2,0.1,0.4,0,0.5c-0.3,0.4-0.6,0.8-0.9,1.2c-0.1,0.1-0.2,0.2-0.2,0.3c0,0,0,0.1,0.1,0.1
			c0.8-0.2,1.7-0.4,2.6-0.6c-0.6-0.7-1.2-1.4-1.8-2.1c-0.5,0.7-1,1.3-1.5,2c-0.3,0.2-0.6,0.5-1,0.8c0.4,0.1,0.6,0.1,0.7-0.3
			c0-0.2,0.2-0.3,0.3-0.5C135.3,119.7,135.5,119.6,135.7,119.4z M130.3,108.4c0-2.1,0.1-4.2-0.5-6.3c-0.4-1.3-0.8-2.5-1.1-3.8
			c-0.4-1.4-0.8-2.8-1.2-4.3c-0.2-0.8-0.5-1.6-0.8-2.4c-0.3-1.2-0.6-2.4-0.9-3.6c-0.5-1.7-1-3.3-1.5-5c-0.1-0.3-0.3-0.4-0.6-0.5
			c-1.4-0.2-2.9-0.4-4.3-0.6c-1.1-0.2-2.1-0.4-3.2-0.7c-0.1,0-0.3-0.1-0.4-0.1c-1.4-0.1-2.9-0.3-4.3-0.4c-0.8,0-1.6,0.1-2.4,0.2
			c-1.7,0.2-3.5,0.5-5.3,0.8c0.1,0.6,0.2,1.2,0.4,1.9c0.5,1.5,0.9,3,1.4,4.5c0.8,2.1,1.2,4.3,1.6,6.6c0.2,1.1,0.5,2.2,0.7,3.3
			c0.4,1.6,0.7,3.3,1.1,4.9c0.2,0.9,0.5,1.8,0.7,2.6c0.1,0,0.1,0,0.2,0c0.2-0.3,0.6-0.6,0.7-0.9c0.2-0.4,0.4-0.6,0.8-0.6
			c1.1,0,2.2,0,3.3,0c0.7,0,1.4,0.1,2.1,0.1c1.2,0,2.4,0.4,3.6,0.7c1.9,0.4,3.7,1.1,5.4,1.9c0.9,0.4,1.7,0.8,2.6,1.2
			c0.4,0.2,0.7,0.5,1.1,0.8c0.2,0.1,0.4,0.3,0.6,0.4c0,0,0.1-0.1,0.1-0.1C130.3,109,130.3,108.7,130.3,108.4z M103.7,89.5
			c-0.4-1.5-0.7-3.1-1.1-4.6c-0.3-1-0.6-1.9-0.9-2.9c-0.3-1.2-0.6-2.4-0.9-3.6c0-0.1-0.1-0.3-0.1-0.4c-0.3-0.8-0.3-0.8-0.1-1.6
			c-0.1,0-0.2-0.1-0.3-0.1c-1.1-0.1-2.3-0.2-3.4-0.2c-1.8,0-3.5,0.1-5.3,0.2c-1,0.1-2,0.1-2.9,0.3c-1.6,0.2-3.1,0.4-4.7,0.6
			c-1,0.1-1.9,0.3-2.9,0.5c-1.1,0.2-2.3,0.4-3.4,0.6c-0.8,0.2-1.6,0.5-2.3,0.7c-0.5,0.1-0.9,0.3-1.4,0.4c-0.2,0-0.3,0.1-0.6,0.3
			c0.8,0.5,1.4,1,2.1,1.4c0.3,0.2,0.5,0.3,0.8,0.4c0.2,0.1,0.4,0.2,0.5,0.1c0.4-0.2,0.6,0,0.8,0.4c0.7-0.8,1.6-0.4,2.3-0.2
			c2.2,0.5,4.5,0.6,6.8,0.9c1.2,0.2,2.4,0.3,3.6,0.4c0.1,0,0.2,0,0.2,0c0.7-0.3,1.4-0.7,2.1-1.1c0.1,0,0.2-0.2,0.3-0.2
			c0.9-0.1,1.8-0.1,2.7-0.2c1.1,0,2.2-0.1,3.4-0.1c0.8,0,1.6,0,2.3,0.1c0.1,0,0.4,0.2,0.3,0.3c0,0.1-0.1,0.3-0.3,0.4
			c-0.1,0.1-0.3,0.1-0.5,0.1c-1.3,0.1-2.6,0.1-3.9,0.2c-0.4,0-0.8,0-1.2,0c-0.6,0-0.9,0.1-0.9,0.7c-0.1,2.4-0.7,4.7-0.6,7.1
			c0.1,0.9-0.2,1.9-0.2,2.8c0,0.5,0.1,1.1,0.1,1.6c0,0.3,0.2,0.4,0.5,0.4c0.6,0.1,1.2,0.2,1.7,0.3c0.2,0,0.4,0,0.5-0.2
			c0.6-0.6,1.1-1.2,1.7-1.7c0.9-0.9,2.1-1.3,3.4-1.5c0.8-0.1,1.6-0.3,2.5,0.2C104.1,91.4,103.9,90.5,103.7,89.5z M94.9,96.2
			c-1,0-2,0.1-3,0.2c-0.5,0.1-1,0.3-1.3,0.9c-0.2,0.4-0.6,0.6-1.1,0.7c-0.3,0-0.7,0-1,0.1c-0.9,0.2-1.5-0.5-2.2-0.9
			c-1.3-0.9-2.8-1.3-4.4-1.3c-0.4,0-0.8-0.1-1.2-0.1c-0.8,0-1.5,0-2.3,0.1c-0.9,0.1-1.3,0.8-1.6,1.5c-0.5,1.1-0.5,2.2-0.4,3.3
			c0.1,1.4,0.4,2.7,0.5,4c0,0.1,0.1,0.2,0.1,0.3c0.5,0,1,0,1.5,0c0-1.7-0.6-3.4-0.1-5.1c0.3,0.5,0.7,4.8,0.5,5.1
			c1,0.5,2,1.1,3.1,1.5c0.8,0.3,1.6,0.2,2.4,0.4c1.1,0.2,2.1-0.1,3.1-0.2c1.2-0.1,2.1-0.7,2.6-1.9c0.1-0.1,0.3-0.2,0.4-0.3
			c0.1,0.2,0.2,0.4,0.2,0.5c-0.1,0.4-0.3,0.9-0.6,1.4c0.5,0.2,1,0.3,1.7,0.5c-0.2-0.6-0.4-1.1-0.5-1.6c-0.2-1.2-0.4-2.5-0.5-3.7
			c-0.1-0.8,0-1.7,0-2.5c0-0.3,0.2-0.6,0.3-0.8c0.1,0,0.1,0,0.2,0c0,0.2,0.1,0.4,0.1,0.6c0,1.1,0,2.2,0.1,3.3c0.1,1,0.2,2.1,0.5,3.1
			c0.1,0.6,0.5,1,0.8,1.6c0,0.1,0.2,0.1,0.3,0.1c1.4,0.3,2.7,0.6,4.2,0.4c1-0.1,2-0.6,2.8-1.1c0.7-0.4,1-1,1-1.8c0.1-1,0-2-0.7-2.9
			c0,0-0.1-0.1-0.1-0.1c0,0-0.1,0-0.1,0c-1.2,0.6-2.5,0.9-3.8,0.7c-1-0.1-1.7-1.1-1.7-2c-0.1-1.2,0.2-2.2,0.8-3.2
			c0.1-0.1,0.2-0.3,0.3-0.5C95.5,96.3,95.2,96.2,94.9,96.2z M82.4,95c1.3,0.1,2.5,0.3,3.6,0.9c0.6,0.3,1.2,0.7,1.7,1.1
			c0.7,0.4,1.4,0.3,2,0c0.4-0.2,0.7-0.7,1-1.1c0.1-0.1,0.2-0.3,0.3-0.3c0.5-0.1,0.5-0.4,0.4-0.8c-0.2-1.1-0.3-2.2-0.4-3.3
			c-0.2-2.3-0.5-4.7-0.7-7c-0.1-0.6-0.1-0.6-0.7-0.7c-2.2-0.2-4.4-0.5-6.6-0.7c-1.3-0.1-2.6-0.3-3.9-0.5c-0.2,0-0.4,0-0.4,0.3
			c-0.2,1.4-0.6,2.8-0.7,4.1c-0.1,1.3,0,2.7,0.1,4c0.1,1.1,0.2,2.2,0.3,3.3c0,0.3,0.2,0.5,0.5,0.4c0.3,0,0.6,0,0.9,0c0,0,0,0,0,0
			C80.7,94.9,81.5,95,82.4,95z M66.2,112.9c0,0.2,0.1,0.4,0.3,0.4c1.5,0.2,2.9,0.7,4.3,1.4c1.9,0.9,3.5,2.1,4.8,3.8
			c0.7,0.9,1.4,1.9,1.7,3c0.2,0.5,0.8,0.7,1.3,0.8c1.7,0.3,3.4,0.5,5.2,0.7c1.1,0.1,2.2,0.2,3.2,0.3c0.1,0,0.3-0.1,0.3-0.2
			c0.1-0.6,0.1-1.3,0.1-1.9c0-0.5,0-0.9,0.1-1.4c0-0.6,0.1-1.2,0.1-1.8c0-0.5-0.2-0.7-0.6-0.8c-1.7-0.5-3.5-1.1-5.2-1.6
			c-1.6-0.5-3.1-1-4.7-1.4c-0.6-0.2-1.2-0.2-1.8-0.4c-1.1-0.3-2.1-0.6-3.2-0.8c-1.6-0.3-3.3-0.5-4.9-0.8c-0.2,0-0.4-0.2-0.7-0.3
			C66.4,112.1,66.3,112.5,66.2,112.9z M103.6,80.9c0.6-0.1,1.1-0.1,1.6-0.2c1.4-0.2,2.8-0.4,4.3-0.6c1.4-0.2,2.8-0.2,4.1,0.1
			c0.9,0.2,1.9,0.2,2.9,0.4c1,0.2,2,0.5,3.1,0.7c1.2,0.2,2.5,0.4,3.7,0.6c0.2,0,0.3,0,0.6,0.1c-0.3-0.9-0.6-1.7-0.8-2.4
			c0-0.1-0.1-0.2-0.1-0.3c0.1-0.6-0.4-0.7-0.8-0.7c-2.2-0.3-4.4-0.5-6.5-0.8c-1.1-0.1-2.2-0.4-3.3-0.6c-1.6-0.2-3.1-0.4-4.7-0.5
			c-1.3-0.1-2.7-0.2-4.1-0.3c-0.4,0-0.8,0-1.3-0.1C102.8,78,103.2,79.5,103.6,80.9z M77.9,76.5c-0.2,0.1-0.4,0.1-0.6,0.1
			c-0.1,0-0.3,0.1-0.4,0.1c-1.1-0.1-2,0.6-3.1,0.8c-0.4,0.1-0.7,0.6-1.1,0.9c-0.1,0,0,0.2,0,0.3c0,0.1,0.2,0.1,0.3,0.1
			c0.7-0.2,1.5-0.3,2.2-0.5c0.6-0.2,1.2-0.4,1.8-0.5c1.1-0.2,2.3-0.4,3.5-0.6c0.8-0.1,1.6-0.4,2.4-0.5c1.8-0.2,3.6-0.4,5.4-0.6
			c0.5-0.1,1.1-0.2,1.6-0.2c2.5-0.1,5-0.3,7.4-0.4c0.6,0,1.2,0.1,1.8,0.1c2.8,0,5.7,0.1,8.5,0.4c1.8,0.2,3.6,0.5,5.4,0.7
			c1.8,0.2,3.7,0.4,5.5,0.7c2.1,0.3,4.3,0.7,6.4,1c0.7,0.1,1.4,0.1,2.2,0.2c0-0.2,0.1-0.3,0.1-0.6c-1.2-0.3-2.3-0.7-3.5-1
			c-1.1-0.3-2.2-0.5-3.4-0.7c-1.7-0.3-3.5-0.5-5.2-0.7c-1.4-0.2-2.8-0.4-4.3-0.6c-0.8-0.1-1.7-0.2-2.5-0.2c-1.4-0.1-2.9-0.2-4.3-0.2
			c-1.8,0-3.7,0-5.5,0c-1.6,0-3.2,0-4.8,0.1c-1.3,0-2.5,0.1-3.8,0.2c-1.8,0.1-3.6,0.2-5.4,0.4c-0.9,0.1-1.8,0.3-2.7,0.3
			c-0.5,0-0.9,0.1-1.3,0.3c-0.6,0.3-1.3,0.4-1.9,0.3C78.4,76.3,78.1,76.4,77.9,76.5z M102.8,110.7c-0.9-0.1-1.8-0.1-2.7-0.1
			c-1,0-2.1,0-3.1,0c-1.4,0-2.7,0-4.1,0c-1.3,0-2.6,0.1-4,0.1c-0.2,0-0.4,0-0.5,0c-1,0-2.1,0-3.1,0.1c0,0,0,0.1-0.1,0.1
			c0.3,0.4,0.6,0.8,1,1.2c0.1,0.1,0.2,0.1,0.2,0.2c0.6,1.1,1.6,1,2.7,1.1c0.4,0,0.9,0,1.3,0c0.2,0,0.4-0.1,0.6-0.1
			c0.2,0,0.4,0,0.6,0c0.2,0,0.4,0.1,0.7,0.1c2.1,0,4.3-0.1,6.4-0.1c1.7,0,3.4,0.2,5.1,0.4c0.3,0,0.6,0.2,0.8,0.1
			c0.2-0.1,0.3-0.5,0.4-0.7c0.3-0.4,0.6-0.9,0.8-1.3c0.2-0.3,0.3-0.5,0.5-0.9C105,110.8,103.9,110.7,102.8,110.7z M110,130.2
			c-0.1,0.3-0.3,0.4-0.6,0.3c-0.3-0.1-0.3-0.3-0.3-0.6c0-0.4-0.1-0.8-0.1-1.2c0-0.1-0.1-0.1-0.2-0.3c-0.1,0.1-0.2,0.2-0.2,0.3
			c-0.4,1.9-0.3,3.7,1,5.2c0.5,0.6,1.3,1,2.1,1.4c0.3,0.1,0.8-0.2,1.2-0.3c0.4-0.2,0.7-0.5,0.7-1.1c0-0.8,0.4-1.4,0.9-2
			c0.1-0.1,0.1-0.1,0.2-0.1c0.1-0.1,0.4-0.1,0.4-0.2c0.1-0.4,0.2-0.8,0.1-1.1c0-0.2-0.4-0.3-0.6-0.5c-0.6-0.6-0.8-1.9-0.4-2.6
			c0.2-0.4,0.1-0.6-0.1-0.9c-0.7-0.8-1.5-1-2.5-1c-0.1,0-0.2,0.1-0.2,0.1c-0.2,0.1-0.5,0.2-0.7,0.3c-0.4,0-0.5,0.2-0.7,0.5
			c-0.3,0.5-0.5,0.9-0.8,1.4C109.8,128.1,110.3,129.4,110,130.2z M76.2,107c0-0.2,0-0.3,0-0.5c0-0.7,0-0.7-0.7-0.8
			c-1-0.2-1.9-0.4-2.9-0.5c-1.2-0.1-2.5-0.1-3.7,0.5c-1.1,0.6-1.5,1.6-1.8,2.7c-0.1,0.2,0,0.4,0.3,0.4c1.6,0,3.1,0.3,4.6,0.6
			c1.4,0.3,2.8,0.6,4.2,0.9c0.1,0,0.1,0,0.2,0C76.1,109.2,76.1,108.1,76.2,107z M116.2,109.2c-0.1,0.5-0.4,0.6-0.7,0.2
			c-0.2-0.2-0.5-0.4-0.8-0.7c-0.2,0.3-0.4,0.6-0.6,0.8c-0.1,0.1-0.3,0.2-0.5,0.2c-0.2,0-0.5-0.2-0.7-0.2c-0.1,0.2-0.2,0.6-0.3,0.6
			c-0.2,0.1-0.5-0.1-0.8-0.2c-0.2-0.1-0.4-0.2-0.6-0.4c-0.1,0.5-0.2,0.9-0.3,1.3c-0.1,0.3-0.2,0.4-0.5,0.3c-0.2-0.1-0.4-0.1-0.5-0.2
			c-0.2,0.3-0.3,0.5-0.5,0.8c1.3,0.1,2.5,0.7,3.7,1.2c0.7,0.3,1.5,0.6,2.2,0.8c0.2,0.1,0.4,0.1,0.6,0.2c0-0.1-0.1-0.2-0.1-0.3
			c0-0.2-0.2-0.4-0.1-0.5c0.1-0.1,0.4-0.2,0.5-0.2c0.5,0.1,1,0.3,1.5,0.5c0.1,0,0.2,0.1,0.3,0.2c0.5-0.5,0.5-0.5,1.1-0.2
			c0.6,0.3,1.1,0.4,1.8,0.2c-0.2-0.9-3.6-4.4-4.8-5C116.2,109,116.2,109.1,116.2,109.2z M123.5,122c0,0.1-0.1,0.1-0.1,0.2
			c0.4,0.9,0.8,1.8,1.3,2.6c0.2,0.3,0.5,0.4,0.9,0.5c1.1,0.1,2.2,0.2,3.2,0.2c1,0,1.9-0.3,2.9-0.4c0.5-0.1,1,0,1.5-0.1
			c0.2,0,0.4-0.2,0.4-0.3c0.2-0.7,0.4-1.4,0.5-2.1c0.1-0.3,0.1-0.6,0.2-1C130.7,122,127.1,122.6,123.5,122z M120.6,111.8
			c0.6-0.1,1.1-0.2,1.6-0.2c1.8,0,3.6,0,5.4,0.1c1.4,0.1,2.8,0.2,4.3,0.4c-0.8-0.8-1.5-1.5-2.3-2.2c-0.1-0.1-0.3,0-0.4,0
			c-0.3,0.1-0.5,0.1-0.8,0c-0.4-0.2-0.9-0.1-1.3-0.2c-2.1-0.4-4.2-0.2-6.3-0.4c-0.2,0-0.5,0.1-0.7,0.1c-0.2,0-0.4,0-0.5-0.1
			c-0.4-0.4-0.5-0.5-1-0.2c-0.1,0.1-0.2,0.1-0.3,0.2C119,110.3,119.8,111.1,120.6,111.8z M69,130c0.1,0,0.1-0.2,0.1-0.2
			c0.1-0.2,0.2-0.4,0.3-0.4c0.2,0,0.3,0.2,0.5,0.3c0.1,0,0.1,0.1,0.2,0.3c0.3-0.7,0.6-1.3,0.8-1.9c-0.4-0.1-0.6-0.2-0.9-0.2
			c-0.2,0-0.5,0-0.7,0.1c0,0,0-0.1,0-0.1c-0.1,0.1-0.3,0.3-0.4,0.3c-0.2,0.1-0.4,0.1-0.5,0c-0.5-0.2-0.5-1.3-0.1-1.6
			c0.4-0.3,0.8-0.2,1.1,0.4c0.4-0.1,0.8-0.3,0.8-0.9c0-0.5,0.4-0.4,0.8-0.3c-0.1-0.4-0.1-0.8-0.3-1.1c-0.4-0.6-0.8-1.3-1.5-1.7
			c-0.8-0.4-1.5-0.2-2.2,0.2c-1.4,0.9-1.7,2.3-1.6,3.8c0,1.1,0.2,2.2,0.7,3.2c0.5,0.9,1.6,1.4,2.6,0.8C68.5,130.6,68.5,130.2,69,130
			z M109.3,112.4c0.1,0,0.1-0.1,0.2-0.1c-0.3-0.1-0.7-0.1-0.9-0.1c-1.1,0.8-1.3,2.1-1.7,3.2c-0.2,0.5-0.1,0.6,0.4,0.6
			c1.7,0.2,3.3,0.3,5,0.5c1.3,0.1,2.6,0.2,3.9,0.3c0.2,0,0.5,0,0.7-0.1c-0.2-0.2-0.4-0.4-0.6-0.5c-0.4-0.2-0.9-0.4-1.3-0.6
			c-0.3-0.1-0.6-0.3-0.5-0.7c0-0.1-0.1-0.2-0.2-0.3c-1-0.5-2.1-0.9-3.3-0.9c-0.3,0-0.6-0.1-0.9-0.1c-0.2,0-0.5,0-0.7,0
			c-0.3,0-0.7,0.1-0.7-0.3c-0.1-0.4,0.3-0.5,0.6-0.5c0.3,0,0.6,0,0.8,0c0,0,0-0.1,0-0.1C109.8,112.6,109.5,112.5,109.3,112.4z
			 M122.3,114.3c0.8,0,1.5-0.1,2.3-0.1c1.7,0,3.4-0.1,5.2-0.1c0.8,0,1.7,0.1,2.4,0.3c0.4,0.1,0.7,0.6,1,0.9c0.1,0.1-0.1,0.4-0.2,0.6
			c0-0.1,0,0,0,0c0.5,0,0.9,0.2,1.1,0.6c0.1,0.1,0.3,0,0.5,0c0.3,0,0.6-0.1,1-0.1c-1.2-1.4-2.4-2.8-3.6-4.3
			c-0.1,0.7-0.3,0.7-0.8,0.6c-0.8-0.2-1.6-0.2-2.4-0.2c-0.9-0.1-1.8-0.1-2.7-0.1c-0.4,0-0.7,0.1-1.1,0c-0.9,0-1.8-0.1-2.7-0.1
			c-0.4,0-0.7,0.1-1.2,0.1C121.6,113.2,122,113.8,122.3,114.3z M113.1,106.7C113.1,106.7,113.1,106.7,113.1,106.7
			c-0.2-0.4-0.5-0.7-0.8-1c-0.1-0.1-0.1-0.3-0.2-0.4c0.1,0,0.3,0,0.4,0.1c0.2,0.1,0.4,0.2,0.5,0.4c0.2,0.2,0.4,0.4,0.8,0.2
			c0.1-0.1,0.4,0.1,0.5,0.2c0.6,0.5,1.1,1.1,1.7,1.6c0.2,0.2,1.1,0.4,1.3,0.2c0.6-0.4,1.4-0.5,2.1-0.5c1.9,0.1,3.9,0.2,5.8,0.4
			c0.3,0,0.6,0.3,0.9,0.5c0.3,0.2,0.6,0.3,1.1,0.2c-0.2-0.1-0.4-0.3-0.6-0.3c-1.3-0.5-2.5-1.1-3.8-1.6c-1-0.4-2.1-0.6-3.2-0.8
			c-0.4-0.1-0.9-0.3-1.3-0.4c-0.9-0.1-1.7-0.1-2.6-0.2c-0.7,0-1.5-0.1-2.2-0.1c-0.5,0-1.1,0-1.6,0.1c-0.2,0-0.4,0.3-0.8,0.5
			C111.9,106,112.5,106.4,113.1,106.7z M121.2,136.7c0.2-0.4,0.2-0.9,0.5-1.1c0.4-0.3,0.9-0.4,1.3-0.5c0.1,0,0.3,0,0.4,0.1
			c0.3,0.2,0.5,0.3,0.8,0.1c0.1-0.1,0.4,0,0.5,0.1c0.3,0.1,0.6,0.3,1,0.5c0.1-0.4,0.4-0.6,0.8-0.4c0.1,0,0.2,0,0.3-0.1
			c0.2-0.3,0.5-0.2,0.7,0c0.6,0.4,1.2,0.7,1.8,1.1c0.1-0.1,0.2-0.3,0.4-0.4c-1.2-0.8-1.8-2-2.4-3.2c0-0.1-0.2-0.2-0.4-0.2
			c-0.4-0.1-0.8-0.1-1.2-0.1c-0.1,0-0.3,0-0.3-0.1c-0.7-0.7-1.6-0.4-2.4-0.4c-0.1,0-0.4,0.2-0.4,0.3c-0.4,1.5-1.1,2.8-2,4.1
			c0,0,0,0.1-0.1,0.3C120.9,136.7,121.1,136.7,121.2,136.7z M80.4,124.8c2,0.2,4,0.4,6,0.7c0.2,0,0.4,0,0.5,0c0.1,0,0.2,0,0.2-0.1
			c0.2-0.3,0.3-0.6,0.4-1c0.1-0.5,0.1-0.6-0.5-0.6c-1-0.1-2,0-3-0.1c-1-0.1-1.9-0.2-2.9-0.3c-0.9-0.1-1.8-0.2-2.8-0.3
			c-0.5-0.1-1-0.3-1.5-0.4C77.9,123.7,78.8,124.7,80.4,124.8z M99.2,132.9C99.2,132.9,99.2,132.9,99.2,132.9c0-0.1,0-0.2-0.1-0.3
			c-0.3-0.5-0.2-0.9,0.4-1.2c0.1,0,0.3,0,0.4,0c0.1,0,0.2,0.1,0.2,0.2c0.5,0.7,0.5,0.7,1.3,1c0-0.3,0.1-0.7,0.1-1
			c0.2,0,0.4,0.1,0.7,0.2c0.5-0.3,0.5-0.3,1.5,0.7c0.2-0.1,0.4-0.2,0.5-0.2c0.2,0.1,0.3,0.3,0.4,0.5c0.1,0.2,0.1,0.4,0.2,0.6
			c0.3-0.1,0.5-0.2,0.4-0.5c-0.2-0.9-0.3-1.8-0.5-2.7c-0.1-0.4-0.5-0.6-1.1-0.5c-0.8,0.2-1.6,0.2-2.4,0.1c-0.4,0-0.9,0-1.4,0
			c-0.1,0-0.3,0.1-0.3,0.2c-0.1,0.7-0.7,0.9-1.1,1.3c-0.2,0.2-0.5,0.3-0.7,0.4C98.3,132.2,98.7,132.5,99.2,132.9z M65.9,121.6
			c0.4-0.1,0.8-0.1,1.1-0.3c0.8-0.5,1.5-0.5,2.2,0.1c0.1,0.1,0.3,0.1,0.4,0.2c0.5,0.1,0.7,0.4,0.6,0.9c0,0.2,0.1,0.4,0.2,0.5
			c0.8,0.4,1.1,1.1,1.3,1.8c0.2,1.2,0.4,2.4,0,3.7c-0.4,1.1-0.8,2.3-1.9,3c-0.5,0.3-1.1,0.5-1.7,0.8c0.2,0,0.4,0.1,0.6,0.1
			c0.6-0.2,1.3-0.1,1.9-0.6c0.2-0.2,0.6-0.3,0.8-0.5c0.5-0.4,0.9-0.9,0.7-1.6c0-0.1,0.1-0.3,0.1-0.4c0.2-1,0.6-2,0.3-3
			c-0.2-0.5-0.2-1.1-0.3-1.7c0-0.3-0.1-0.5-0.5-0.6c-0.1,0-0.3-0.2-0.3-0.3c0-0.8-0.5-1.3-0.9-1.9c-0.2-0.3-0.3-0.5,0-0.7
			C69.1,120,67.2,120.5,65.9,121.6z M107.1,109.5c0.1-0.1,0.2-0.2,0.3-0.3c0.6-0.4,0.6-0.4,0.1-0.9c-0.6-0.7-1.3-1.4-2-2
			c-0.3-0.3-0.8-0.4-1.2-0.5c-0.8-0.1-1.1,0.7-0.9,1.4c0.2,0.9,0.6,1.7,0.9,2.5c0,0.1,0.1,0.2,0.2,0.2c0.4,0.1,0.8,0.2,1.4,0.3
			C106.2,110.1,106.7,109.8,107.1,109.5z M85.8,115.8c-0.8-0.7-1.5-1.3-2.5-1.5c-0.9-0.2-1.8-0.4-2.7-0.6c-0.2-0.1-0.5-0.2-0.5-0.4
			c0-0.4-0.3-0.4-0.5-0.4c-0.9-0.2-1.9-0.4-2.8-0.6c-1.3-0.3-2.5-0.5-3.8-0.7c-1.5-0.2-3-0.3-4.6-0.5c0,0.1,0,0.2,0,0.2
			C74.3,112.3,79.9,114.2,85.8,115.8z M74.8,103.7c0,0.3,0.2,0.6,0.5,0.8c0.1,0.1,0.5,0.2,0.6,0.1c0.1-0.1,0.2-0.4,0.2-0.6
			c0-0.3-0.1-0.7-0.1-1c-0.4-1.9-0.4-3.9-0.3-5.9c0-0.2,0-0.3,0-0.5c0-0.2-0.2-0.4-0.2-0.4c-0.2,0-0.5,0.1-0.6,0.3
			c-0.2,0.3-0.3,0.7-0.3,1.1c-0.1,0.5,0,0.9,0,1.4c0,0-0.1,0-0.1,0C74.4,100.5,74.5,102.1,74.8,103.7z M129.6,119.1
			c0.1-0.2,0.3-0.4,0.4-0.5c0.1-0.1,0.3-0.2,0.4-0.2c0.1,0.1,0.2,0.3,0.2,0.5c0,0.2-0.1,0.3-0.1,0.6c0.2-0.2,0.4-0.4,0.6-0.6
			c0.1-0.1,0.4-0.1,0.5-0.2c0,0.2,0.1,0.5,0,0.6c-0.2,0.4-0.5,0.8-0.6,1.3c0.4-0.4,0.7-0.8,1.1-1.2c0.2-0.2,0.4-0.5,0.7-0.7
			c0.1-0.1,0.2-0.1,0.4-0.1c0,0.1,0.1,0.3,0,0.4c-0.1,0.2-0.3,0.4-0.4,0.7c-0.1,0.1-0.2,0.2-0.2,0.4c0.7-0.5,1.2-1.3,1.7-2.1
			c-0.3,0-0.5,0-0.7,0c-1.5,0.1-3,0.2-4.5,0.3c-0.9,0.1-1.8,0.1-2.6,0.2c-0.1,0-0.2,0.1-0.3,0.1c-0.4,0.6-0.9,1.2-1.3,1.9
			c0,0.1-0.1,0.1-0.1,0.2c0.5,0,0.8-0.3,1.1-0.6c0.2-0.3,0.5-0.6,0.8-0.8c0.1-0.1,0.3-0.1,0.4-0.1c0,0.2,0.1,0.3,0,0.5
			c-0.2,0.3-0.4,0.5-0.6,0.7c-0.2,0.3-0.5,0.5-0.7,0.8c0,0,0.1,0.1,0.1,0.1c0.3-0.2,0.7-0.4,0.9-0.7c0.5-0.6,1-1.2,1.5-1.8
			c0.1-0.1,0.2-0.1,0.3-0.2c0,0.1,0.2,0.3,0.1,0.3c-0.1,0.2-0.1,0.5-0.3,0.7c-0.3,0.5-0.7,0.9-1.1,1.3c-0.1,0.1-0.1,0.2-0.2,0.3
			C128.2,120.7,129,120,129.6,119.1z M103.7,99.6c-0.2,0.2-0.2,0.4,0,0.7c0.9,1,1.7,2.1,2.6,3.1c0.2,0.2,0.3,0.4,0.5,0.5
			c0,0,0.1-0.1,0.1-0.1c-0.4-2.1-0.8-4.2-1.2-6.3c0,0-0.1,0-0.1,0C104.9,98.2,104.3,98.9,103.7,99.6z M131.2,115
			c-1.3-0.1-2.6-0.1-3.9-0.1c-1.4,0-2.8,0.1-4.2,0.2c-0.1,0-0.1,0-0.3,0.1c0.1,0.3,0.1,0.5,0.2,0.6c0.4,0,0.8,0.1,1.1,0
			c0.2,0,0.4-0.2,0.6-0.1c0.5,0.3,1.1-0.1,1.6,0.2c0.6,0.3,1.3,0.2,1.8,0.1c0.5-0.1,0.8-0.2,1.3-0.1c0.4,0,0.8-0.2,1.2-0.3
			c0.1,0,0.2-0.1,0.3,0c0.5,0.2,1,0.4,1.5,0C132.2,115.1,131.7,115.1,131.2,115z M101,106.9c-0.1,0-0.2,0.1-0.3,0.1
			c-0.6,0.4-1.1,0.7-1.6,1.3c-0.3,0.4-1,0.6-1.6,0.9c-0.1,0.1-0.2,0.2-0.4,0.3c0.1,0.1,0.3,0.2,0.4,0.2c1.2,0.1,2.3,0.1,3.5,0.1
			c0.2,0,0.5,0,0.7,0C101.6,108.8,101.3,107.9,101,106.9z M81,109.2c-0.1,0.2-0.3,0.4-0.4,0.6c-0.1,0.1-0.3,0.2-0.4,0.3
			c-0.1,0.1-0.2,0.1-0.3,0.1c0.1,0.1,0.2,0.3,0.3,0.3c0.9,0.4,1.9,0.8,2.8,1.2c0.5,0.2,1,0.4,1.6,0.6c0,0,0.1-0.1,0.1-0.1
			c-0.6-0.8-1.2-1.5-1.8-2.3C81.6,110.9,81.6,109.6,81,109.2z M104.7,116.1c0.8,0.1,1-0.1,1.3-0.8c0.6-1.6,1.3-3.1,1.9-4.7
			c0-0.1,0.1-0.2,0.2-0.4C107.2,110.7,105,114.6,104.7,116.1z M129.5,128.3c-0.2,0-0.5,0.1-0.6-0.1c-0.1-0.1-0.1-0.4-0.1-0.6
			c0-0.1,0-0.2,0-0.3c0-0.3,0-0.6,0-0.9c-0.8,0-1.7-0.1-2.8-0.1c0.3,0.5,0.6,0.9,0.8,1.3c0,0,0.1,0,0.1,0c-0.1-0.2-0.1-0.5-0.2-0.7
			c0,0,0.1-0.1,0.1-0.1c0.3,0.3,0.6,0.6,0.9,0.9c0-0.1,0-0.3,0-0.4c0.1,0,0.1,0,0.1,0c0.3,0.4,0.5,0.8,0.8,1.2
			c0.1,0.1,0.3,0.2,0.4,0.2c0.8-0.1,1.7-0.3,2.5-0.5c0-0.1,0-0.1,0-0.2C130.9,128.1,130.2,128.2,129.5,128.3z M79,109.9
			c-0.1-0.2-0.1-0.2-0.1-0.3c-0.1-0.1-0.2-0.3-0.2-0.4c0.4-0.5-0.2-0.7-0.4-1.1c-0.1-0.2-0.2-0.4-0.3-0.6c0.6,0,0.9,0.3,1.2,0.6
			c0.3,0.3,0.6,0.6,0.9,0.9c0,0,0.1-0.1,0.1-0.1c-0.1-0.2-0.2-0.4-0.4-0.6c-0.4-0.5-0.7-1-1.1-1.4c-0.2-0.2-0.6-0.3-0.9-0.5
			C77.5,107.5,78.2,109.6,79,109.9z M120.6,119.1c0.1-0.1,0.3-0.1,0.5-0.1c0,0.2,0,0.4-0.1,0.6c-0.1,0.2-0.4,0.3-0.5,0.5
			c-0.1,0.1-0.1,0.1-0.1,0.2c0,0,0,0.1,0.1,0.1c0.2-0.1,0.4-0.1,0.5-0.2c0.4-0.4,0.7-0.8,1.1-1.2c0.1-0.1,0.3-0.2,0.5-0.2
			c0,0.2,0.1,0.4,0.1,0.6c0,0.2-0.2,0.3-0.3,0.5c0,0,0.1,0.1,0.1,0.1c0.4-0.4,0.7-0.8,1.1-1.2c0-0.1,0-0.1-0.1-0.2
			c-0.8-0.1-1.6-0.1-2.3-0.2c-0.1,0-0.2,0-0.2,0.1c-0.2,0.3-0.5,0.6-0.7,1c0,0,0,0,0.1,0.1C120.3,119.3,120.4,119.2,120.6,119.1z
			 M109.4,117.1c-0.9-0.1-1.7-0.2-2.6-0.2c0,0-0.1,0.1-0.1,0.1c0.2,0.2,0.5,0.3,0.6,0.5c0.1,0.2,0,0.6,0,0.9
			c0.2-0.2,0.3-0.4,0.4-0.6c0.1-0.1,0.2-0.2,0.4-0.3c0.1,0.1,0.2,0.3,0.2,0.4c0,0.1,0,0.1,0,0.2c0,0,0.1,0,0.1,0.1
			C108.8,117.9,109.1,117.5,109.4,117.1z M102.1,103.9c0.4,0,0.9,0,1.5-0.1c-0.6-0.8-1.1-1.6-1.9-2.1
			C101.9,102.4,102,103.1,102.1,103.9z M90.2,108.6c-0.1-0.1-0.3-0.2-0.4-0.3c-0.1-0.2-0.2-0.4-0.3-0.6c0.2-0.1,0.4-0.2,0.6-0.2
			c-0.5-0.3-0.7-0.3-1.3,0.3c0.4,0.5,0.9,1,1.3,1.5c0.3,0.5,0.6,0.5,1.1,0.4c0,0,0,0,0.2-0.1C90.9,109.2,90.5,108.9,90.2,108.6z
			 M110.6,117.4c-0.4-0.3-0.5-0.2-0.8,0.1c-0.4,0.6-0.8,1.1-1.3,1.7c-0.1,0.2-0.3,0.3-0.5,0.6C109.3,119.3,110,118.3,110.6,117.4z
			 M125.8,118.6c0,0-0.1-0.1-0.1-0.1c-0.5,0-1,0-1.6,0c-0.1,0-0.1,0.1-0.2,0.2c-0.1,0.3-0.2,0.7-0.2,1.1c0.2-0.3,0.5-0.6,0.7-0.9
			c0.1-0.1,0.2-0.1,0.3-0.2c0.1,0.1,0.2,0.3,0.2,0.4c0,0.2-0.2,0.4-0.3,0.5c-0.2,0.3-0.5,0.6-0.7,1c0,0,0.1,0.1,0.1,0.1
			C124.7,120,125.2,119.3,125.8,118.6z M85.9,107.8c-0.9,0-1.9,0-3,0c0.6,0.2,1,0.4,1.5,0.5c0.2,0,0.4-0.1,0.6-0.1
			c0.1,0,0.2,0,0.3,0c0.4,0.2,0.7,0.4,1.2,0.6C86.3,108.5,86.1,108.2,85.9,107.8z M104.4,117.3c-0.1,0.1-0.2,0.5-0.2,0.6
			c0.1,0.3,0.1,0.5,0,0.8c-0.2,0.3-0.3,0.7-0.5,1c0,0,0.1,0,0.1,0.1c0.5-0.9,1-1.7,1.5-2.6c0,0-0.1-0.1-0.1-0.1
			C105,117.1,104.6,117.1,104.4,117.3z M88.3,108.5c-0.9-1-1-1.1-1.7-0.6c0.5,0.5,1.1,0.9,1.6,1.3C88.3,108.9,88.3,108.7,88.3,108.5
			z M134.1,130.4c-0.9-0.1-1.8-0.2-2.6-0.2c-0.4,0-0.8,0.1-1.1,0.2c1.3,0.2,2.7-0.2,3.9,0.5c0-0.1,0.1-0.1,0.1-0.2
			C134.3,130.6,134.2,130.4,134.1,130.4z M130.2,126.3c1.3,0,2.5,0,3.7,0C133.2,125.8,131.1,125.8,130.2,126.3z M113,117.4
			c-0.6,0-1-0.1-1.5-0.1c-0.1,0-0.2,0.2-0.3,0.3c-0.1,0.3-0.2,0.6-0.2,1c0.2-0.2,0.4-0.4,0.6-0.6c0.4-0.4,0.4-0.4,0.9,0
			C112.7,117.8,112.8,117.7,113,117.4z M114.2,118.5c0.3-0.3,0.5-0.5,0.8-0.8c-0.8-0.6-1.5-0.3-1.7,0.5
			C114,117.9,114,117.9,114.2,118.5z M134.6,126.9c-0.9,0.1-1.7,0.1-2.6,0.2c0,0,0,0.1,0,0.1c0.8,0.1,1.7,0.2,2.6,0.3
			C134.6,127.2,134.6,127,134.6,126.9z M97.3,132.6c0-0.2,0-0.3,0-0.5c-0.5,0.1-1,0.2-1.5,0.4C96.2,133.1,96.8,132.7,97.3,132.6z
			 M117.8,117.8c-0.4-0.1-0.8-0.1-1.1-0.1c-0.1,0-0.2,0.1-0.2,0.2c0,0.2,0,0.3,0,0.6c0.2-0.1,0.4-0.2,0.6-0.3
			c0.3-0.3,0.6-0.3,0.8,0.1C118.2,118,118.2,117.8,117.8,117.8z M130.7,129.4c1.2-0.3,2.3,0,3.5,0.2c0.1,0,0.2,0,0.3,0
			c0-0.1-0.1-0.2-0.1-0.2c-1.3-0.1-2.5-0.5-3.8-0.1c0,0,0,0-0.2,0.1C130.5,129.4,130.6,129.4,130.7,129.4z M105.2,134.7
			c0.1,0.1,0.3,0.2,0.4,0.3c0.1-0.2,0.3-0.3,0.2-0.5c0-0.3-0.2-0.5-0.3-0.8C105,134.1,104.9,134.4,105.2,134.7z M129.4,129.5
			c-0.2,0-0.5,0-0.6,0.1c-0.1,0-0.1,0.3,0,0.5c0.1,0.3,0.3,0.5,0.7,0.3C129.4,130.1,129.4,129.9,129.4,129.5z M103.3,95.3
			c0.1-0.7-0.4-1.1-1.2-1.1C102.5,94.6,102.9,94.9,103.3,95.3z M135.9,117.8c-0.5-0.2-0.6-0.1-0.9,1
			C135.3,118.5,135.6,118.2,135.9,117.8z M117.9,116.4c0.1,0.6,0.3,0.7,1.1,0.7C118.6,116.8,118.3,116.6,117.9,116.4z M134.4,128.4
			c0,0,0-0.1,0-0.1c-0.4,0-0.9,0-1.3,0C133.5,128.3,134,128.5,134.4,128.4z M110.3,106.8c0.5,0.2,0.5,0.1,0.5-0.5
			C110.6,106.4,110.4,106.6,110.3,106.8z M115.6,118.1c0,0,0.1,0.1,0.1,0.1c0.2-0.1,0.3-0.3,0.5-0.4c-0.1-0.1-0.1-0.1-0.2-0.2
			C115.5,117.5,115.7,118,115.6,118.1z M135.4,121.5c0,0.1,0,0.1,0,0.2c0.3,0,0.5-0.1,0.8-0.1c0-0.1,0-0.1,0-0.2
			C136,121.4,135.7,121.4,135.4,121.5z"/>
		<path class="st0" d="M111.5,134c0-0.9-0.8-1.7-1.6-1.6c-0.2,0-0.4,0.2-0.4,0.3c0,0.1,0.1,0.4,0.3,0.5c0.4,0.3,1,0.6,1,1.2
			c0,0.1,0.2,0.3,0.2,0.2c0.2,0,0.3-0.1,0.4-0.2C111.5,134.3,111.5,134.1,111.5,134z"/>
		<path class="st0" d="M111,126.4c0,0.7,0.4,1.1,0.9,0.9c0.3-0.1,0.6-0.3,0.9-0.4c0.3-0.2,0.2-0.4,0-0.6c-0.1-0.1-0.2-0.1-0.3-0.2
			c-0.3-0.5-0.7-0.2-1-0.1C111.3,126,111.1,126.3,111,126.4z"/>
		<path class="st0" d="M113,130.3c0-0.5-0.2-0.7-0.6-0.7c-0.5,0-0.9,0.4-0.8,0.8c0,0.4,0.4,0.7,0.8,0.7
			C112.7,131.2,113,130.8,113,130.3z"/>
		<path class="st0" d="M110.6,132.2c0.1,0.1,0.2,0.3,0.4,0.3c0.4,0.1,0.8-0.4,0.8-0.9c0-0.3-0.1-0.5-0.4-0.5
			C111.1,131.1,110.6,131.7,110.6,132.2z"/>
		<path class="st0" d="M110.4,129.2c0.1,0.1,0.2,0.3,0.4,0.4c0.3,0.1,0.7-0.5,0.7-0.8c0-0.3-0.3-0.6-0.6-0.6
			C110.6,128.2,110.4,128.5,110.4,129.2z"/>
		<path class="st0" d="M112.4,128.6c0.2,0.3,0.3,0.6,0.5,0.8c0,0.1,0.3,0.1,0.3,0c0.1-0.2,0.3-0.4,0.2-0.5c0-0.2-0.2-0.4-0.4-0.6
			c-0.1-0.1-0.3-0.1-0.4-0.1C112.6,128.3,112.5,128.5,112.4,128.6z"/>
		<path class="st0" d="M112.9,131.9c0.1,0.1,0.3,0.3,0.4,0.3c0.2-0.1,0.4-0.3,0.5-0.6c0-0.1-0.2-0.5-0.4-0.5
			C113.1,131.1,113,131.5,112.9,131.9z"/>
		<path class="st0" d="M67.1,124.6c0-0.4-0.2-0.6-0.5-0.6c-0.3,0-0.5,0.1-0.6,0.4c-0.1,0.2-0.1,0.4-0.2,0.6
			c-0.2,0.4-0.1,0.9,0.3,1.1c0.3,0.1,0.7-0.1,0.8-0.4C67,125.3,67,124.9,67.1,124.6z"/>
		<path class="st0" d="M67,129c-0.2-0.4-0.3-0.8-0.5-1.2c-0.2-0.3-0.5-0.4-0.8-0.1c-0.3,0.2-0.3,0.5,0,0.8c0.1,0.1,0.2,0.3,0.2,0.5
			c0,0.1,0,0.3,0.1,0.4c0.1,0.2,0.3,0.3,0.5,0.4c0.1-0.2,0.3-0.3,0.4-0.5C66.9,129.3,66.9,129.2,67,129C66.9,129.1,67,129,67,129z"
			/>
		<path class="st0" d="M70,124.1c0-0.4-0.9-1.2-1.5-1.1c-0.1,0-0.3,0.1-0.3,0.2c-0.3,0.4-0.2,0.7,0.3,0.9c0.3,0.1,0.7,0.3,1,0.4
			C69.8,124.7,70,124.5,70,124.1z"/>
		<path class="st0" d="M66.7,126.9c0,0.3,0.3,0.7,0.6,0.7c0.3,0,0.5-0.3,0.5-0.6c0-0.3,0-0.7-0.5-0.7
			C67,126.3,66.7,126.6,66.7,126.9z"/>
		<path class="st0" d="M68,125.2c0,0.3,0.4,0.7,0.6,0.7c0.3,0,0.5-0.3,0.5-0.5c0-0.3-0.3-0.6-0.7-0.6C68.1,124.8,68,124.9,68,125.2z
			"/>
		<path class="st0" d="M68.5,129.6c0.1-0.2,0.3-0.4,0.3-0.6c0-0.3-0.1-0.5-0.5-0.5c-0.3,0-0.5,0.2-0.4,0.4c0.1,0.2,0.3,0.4,0.4,0.7
			C68.3,129.6,68.4,129.6,68.5,129.6z"/>
	</g>
</g>
</svg>
