<?xml version="1.0" encoding="utf-8"?>
<!-- Generator: Adobe Illustrator 27.1.1, SVG Export Plug-In . SVG Version: 6.00 Build 0)  -->
<svg version="1.1" id="Layer_1" xmlns="http://www.w3.org/2000/svg" xmlns:xlink="http://www.w3.org/1999/xlink" x="0px" y="0px"
	 viewBox="0 0 200 200" style="enable-background:new 0 0 200 200;" xml:space="preserve">
<style type="text/css">
	.st0{fill:#A13F36;}
</style>
<g>
	<path class="st0" d="M103.3,83.7l0.1,0l0,0c0.1-0.2,0.1-0.3,0.2-0.5l0.1-0.2l0,0l0-0.1c0.1-0.1,0.1-0.3,0.1-0.4l0.1-0.2l0-0.1v0
		c0-0.3,0.1-0.7,0.1-1c-0.7,0-1.5,0-2.3,0.1l-4.7,0.3c-1.1,0.1-2.7,0.1-4.8,0.1c-1.5,0-2.6,0-3.5-0.1c-1.2-0.1-1.9-0.1-2.1-0.1
		c-1.1,0-1.7,0.3-1.7,0.9c0,0.6,0.6,0.9,1.7,0.9c2.3,0,4,0.9,5.1,2.6c0.7,1.1,1.2,2.7,1.4,4.7c1-0.1,1.9-0.2,2.9-0.5
		c1.4-0.4,2.5-1.2,3.8-1.9v-0.4c0-1.7,0.3-2.9,0.9-3.4l0.2-0.2l0.1-0.1l0.2-0.1l0.2-0.1l0.2-0.1l0.2-0.1l0.2,0l0.3-0.1l0.1,0
		c0.1,0,0.2,0,0.3-0.1l0.1,0C103,83.7,103.1,83.7,103.3,83.7L103.3,83.7z"/>
	<path class="st0" d="M127.7,113.1c-2-2.7-4.5-4.3-7.6-5c-1.4-0.3-2.2-0.6-2.2-0.9c0-0.2,0.2-0.4,0.6-0.6l1.8-1.3
		c3.7-2.5,5.5-5.9,5.5-10.4c0-4.3-1.8-7.7-5.3-10.2c-2.3-1.6-5.2-2.7-8.7-3.2c-0.2,1.1-0.6,2.1-1.2,3c0.4,0.2,0.8,0.3,1.3,0.5
		l0.2,0.1c0.4,0.2,0.8,0.4,1.1,0.6l0.2,0.1c0.4,0.2,0.7,0.5,1.1,0.7l0.1,0.1c0.4,0.3,0.7,0.5,1.1,0.9c3,2.7,4.5,5.9,4.5,9.8
		c0,6.3-3.5,9.5-10.5,9.5h-6.9c-1.3,0-2.1-0.1-2.4-0.4c-0.3-0.3-0.5-0.9-0.5-1.8V93.5c-2,1-4.2,1.3-6.4,1.4v31.6
		c0,3-0.2,5.5-0.6,7.5c-0.4,2.3-1.9,3.6-4.2,3.9c-0.8,0.1-1.3,0.4-1.3,0.9c0,0.6,0.4,0.9,1.2,0.9c0.6,0,1.5-0.1,2.9-0.3
		c0.9-0.1,2-0.2,3.4-0.2c1.3,0,3.1,0.1,5.3,0.2l3.4,0.2l3.9,0.2l3.2,0.1c5.8,0,10.7-1.7,14.4-5c3.8-3.3,5.7-7.6,5.7-12.7
		C130.7,118.8,129.7,115.8,127.7,113.1 M120.9,134.2c-2.4,2.3-5.9,3.5-10.2,3.5c-3.4,0-5.9-0.3-7.6-0.8c-1.6-0.5-2.7-1.4-3-2.6
		l-0.3-1.6l0.1-1.9v-19.3c0-0.7,0.1-1.1,0.4-1.3c0.3-0.2,0.9-0.3,1.9-0.3h8.3c4.1,0,7.4,1.4,10.1,4.2c2.7,2.8,4,6.3,4,10.5
		C124.6,128.6,123.4,131.9,120.9,134.2"/>
	<path class="st0" d="M106,64.6c-3.9-3-9-4.5-15.2-4.5c-1.2,0-2.7,0.1-4.6,0.2c-3.6,0.3-6.4,0.5-8.3,0.5c-1.2,0-2.8-0.1-4.7-0.4
		c-1-0.2-1.7-0.2-2.3-0.2c-1.1,0-1.7,0.4-1.7,1.1c0,0.6,0.4,0.9,1.2,0.9c3,0.3,4.9,1.3,5.6,3C76.6,66.8,77,70.7,77,77v27.2
		c0,5.9-0.4,10-1.3,12.3c-0.9,2.3-2.4,3.6-4.8,3.9c-1,0.1-1.5,0.5-1.5,1.1c0,0.6,0.4,0.9,1.2,0.9c0.5,0,1.4-0.1,2.6-0.2
		c0.9-0.1,2.2-0.2,4-0.2l3.5,0l3.2,0.1c2.2,0,3.7,0,4.7,0.1c1.5,0.1,2.5,0.2,3,0.2c1.1,0,1.6-0.4,1.6-1.1c0-0.5-0.5-0.8-1.4-0.8
		c-0.8,0-2.1-0.2-3.7-0.7c-2.4-0.6-3.7-2.7-4-6.3l-0.1-3.8l0-4.4V67.8l0-1.3c0-1.3,0.2-2.1,0.7-2.6c0.4-0.5,1.3-0.7,2.5-0.7
		c5.2,0,9.5,1.5,12.9,4.5c3.4,3,5.1,6.7,5.1,11.2c0,0.8-0.1,1.5-0.2,2.2c-0.1,0.9-0.3,1.7-0.6,2.5c-0.6,1.8-1.7,3.4-3.1,4.8
		c-0.4,0.4-0.8,0.7-1.3,1c-1.8,1.3-4,2.1-6.5,2.4c-0.8,0.1-1.7,0.2-2.5,0.2c-1.5,0-2.6-0.1-3.3-0.3c-0.4-0.1-0.7-0.1-0.9-0.1
		c-0.5,0-0.8,0.2-0.8,0.5c-0.1,0.5,0.7,0.9,2.3,1.3c1.6,0.4,3.3,0.6,5.2,0.6l0.2,0c2.2,0,4.3-0.4,6.4-1.2c1.6-0.6,3.2-1.4,4.7-2.5
		c2.3-1.6,4.1-3.6,5.3-5.8c0.5-0.9,0.9-1.9,1.2-2.9c0.5-1.6,0.7-3.3,0.7-5.1C111.8,71.5,109.9,67.6,106,64.6"/>
</g>
</svg>
