<?xml version="1.0" encoding="utf-8"?>
<!-- Generator: Adobe Illustrator 27.1.1, SVG Export Plug-In . SVG Version: 6.00 Build 0)  -->
<svg version="1.1" id="Layer_1" xmlns="http://www.w3.org/2000/svg" xmlns:xlink="http://www.w3.org/1999/xlink" x="0px" y="0px"
	 viewBox="0 0 449.3 85.8" style="enable-background:new 0 0 449.3 85.8;" xml:space="preserve">
<style type="text/css">
	.st0{fill:#FFFFFF;}
</style>
<g>
	<g>
		<path class="st0" d="M26.8,49.7c0,5.1,0.8,6.4,4.2,7c1.1,0.1,1.5,0.4,1.5,0.8c0,0.6-0.6,0.9-1.7,0.9c-0.4,0-1,0-1.7-0.1
			c-2.5-0.2-3.3-0.3-4.7-0.3c-1.7,0-3.5,0.1-4.7,0.4c-0.5,0.1-1,0.1-1.2,0.1c-0.7,0-1.1-0.4-1.1-0.8c0-0.4,0.2-0.6,1.1-0.9
			c1.8-0.8,2.1-1.8,2-5.9V36.4c0-4-0.8-5.4-3.7-5.7c-0.8-0.1-1.2-0.4-1.2-1c0-0.5,0.4-0.8,1.1-0.8c0.1,0,0.7,0,1.1,0.1
			c1.1,0.1,3.3,0.2,4.8,0.2c1.6,0,2.4,0,7.2-0.4c0.9-0.1,1.9-0.1,2.4-0.1c6.2,0,10.6,3.5,10.6,8.3c0,4.9-4,8.5-9.5,8.5
			c-2.8,0-4.7-0.7-4.7-1.6c0-0.4,0.2-0.5,0.5-0.5c0.1,0,0.2,0,0.4,0c0.5,0.1,1,0.2,1.4,0.2c3.2,0,5.4-2.3,5.4-5.7c0-4.2-2.6-7-6.6-7
			c-1.8,0-2.6,0.5-2.8,1.6c-0.1,0.5-0.1,1.8-0.1,3.8V49.7z"/>
		<path class="st0" d="M61.5,50.5c-0.1,4.3,1.1,6.1,4.2,6.2c0.8,0,1.1,0.2,1.1,0.7s-0.3,0.8-1,0.8l-1.7,0c-2.6-0.2-3.5-0.2-5-0.2
			c-2.1,0-3.8,0.1-5.4,0.4c-0.4,0-0.7,0.1-0.9,0.1c-0.5,0-0.9-0.3-0.9-0.8c0-0.4,0.2-0.6,0.9-0.8c2.2-0.9,2.4-1.4,2.3-6.4V36.7
			c0-4.7-0.3-5.3-3.5-5.9c-0.9-0.1-1.2-0.4-1.2-0.9c0-0.5,0.5-0.9,1.2-0.9c0.3,0,0.9,0,1.5,0.1c0.7,0,1.4,0.1,2.6,0.1
			c3.1,0,5.5-0.1,7-0.4c0.4-0.1,0.9-0.1,1.1-0.1c0.6,0,0.9,0.3,0.9,0.8c0,0.5-0.1,0.6-1,0.8c-2,0.9-2.2,1.7-2.2,6.4V50.5z"/>
		<path class="st0" d="M102.2,33c0,0.5,0.2,2.6,0.3,3.2c0.2,0.9,0.3,1.7,0.3,2.1c0,0.4-0.2,0.7-0.5,0.7c-0.3,0-0.5-0.3-0.9-1.1
			c-0.8-1.7-2.4-3.6-4-5c-1.9-1.6-4.3-2.4-6.7-2.4c-5.7,0-9.2,4.4-9.2,11.5c0,8,4.6,13.8,10.9,13.8c3.1,0,7.2-1.9,9-4.4
			c0.9-1.1,0.9-1.1,1.2-1.1c0.3,0,0.5,0.3,0.5,0.6c0,0.7-0.9,2-2.4,3.5c-2.9,2.9-6.9,4.4-11.2,4.4c-8.8,0-14.6-5.8-14.6-14.5
			c0-8.7,6.9-15.5,15.4-15.5c2.9,0,5.2,0.6,8.4,2c0.8,0.4,1,0.4,1.2,0.4c0.3,0,0.7-0.3,1.3-0.8c0.5-0.6,0.6-0.6,0.8-0.6
			c0.2,0,0.4,0.3,0.4,0.5L102.2,33z"/>
		<path class="st0" d="M141.5,57.7c0,0.4-0.3,0.8-0.7,0.8c-0.3,0-0.5-0.2-0.9-0.6c0-0.1-0.7-0.8-1.4-1.4l-2-2.1l-17.6-18
			c-0.4-0.4-0.4-0.4-0.6-0.4c-0.5,0-0.6,0.5-0.6,3.3v5.2c0,0.2,0,1.2,0,2.2c0,1.3,0.1,2.5,0.1,3.2c0,4.6,0.9,6,4.1,6.6
			c1.1,0.1,1.5,0.4,1.5,1c0,0.5-0.4,0.8-1,0.8c-0.3,0-0.7,0-1.1-0.1c-1.7-0.2-2.7-0.3-3.8-0.3c-1.3,0-3.2,0.1-3.8,0.3
			c-0.4,0.1-0.7,0.1-0.8,0.1c-0.4,0-0.8-0.4-0.8-0.8c0-0.4,0.2-0.6,0.9-0.9c2.4-1,2.9-2.9,2.9-11v-7.2c0.1-5.7-0.8-7.3-4.4-8
			c-0.7-0.1-0.9-0.4-0.9-0.8c0-0.5,0.2-0.7,0.8-0.7l4.5,0c1.5,0,2.8-0.1,3.7-0.2c0.4,0,0.7-0.1,0.8-0.1c0.4,0,0.6,0.1,1.1,0.7
			l15.6,16.2c0.2,0.2,0.4,0.4,0.6,0.7c0.6,0.7,1,0.9,1.3,0.9s0.4-0.3,0.4-0.7v-8.9c0-5.4-0.9-6.7-4.7-7.1c-0.8-0.1-1.2-0.4-1.2-1
			c0-0.5,0.3-0.7,0.9-0.7c0.4,0,0.8,0,1.4,0.1c1.8,0.2,3.2,0.3,4,0.3c1.2,0,2.3-0.1,3.5-0.3c0.5-0.1,0.9-0.1,1.2-0.1
			c0.4,0,0.7,0.2,0.7,0.7c0,0.7-0.1,0.7-1.8,1.4c-1.6,0.7-2,1.9-1.9,6V57.7z"/>
		<path class="st0" d="M164.5,50.5c-0.1,4.3,1.1,6.1,4.2,6.2c0.8,0,1.1,0.2,1.1,0.7s-0.3,0.8-1,0.8l-1.7,0c-2.6-0.2-3.5-0.2-5-0.2
			c-2.1,0-3.8,0.1-5.4,0.4c-0.4,0-0.7,0.1-0.9,0.1c-0.5,0-0.9-0.3-0.9-0.8c0-0.4,0.2-0.6,0.9-0.8c2.2-0.9,2.4-1.4,2.3-6.4V36.7
			c0-4.7-0.3-5.3-3.5-5.9c-0.9-0.1-1.2-0.4-1.2-0.9c0-0.5,0.5-0.9,1.2-0.9c0.3,0,0.9,0,1.5,0.1c0.7,0,1.4,0.1,2.6,0.1
			c3.1,0,5.5-0.1,7-0.4c0.4-0.1,0.9-0.1,1.1-0.1c0.6,0,0.9,0.3,0.9,0.8c0,0.5-0.1,0.6-1,0.8c-2,0.9-2.2,1.7-2.2,6.4V50.5z"/>
		<path class="st0" d="M205.2,33c0,0.5,0.2,2.6,0.3,3.2c0.2,0.9,0.3,1.7,0.3,2.1c0,0.4-0.2,0.7-0.5,0.7c-0.3,0-0.5-0.3-0.9-1.1
			c-0.8-1.7-2.4-3.6-4-5c-1.9-1.6-4.3-2.4-6.7-2.4c-5.7,0-9.2,4.4-9.2,11.5c0,8,4.6,13.8,10.9,13.8c3.1,0,7.2-1.9,9-4.4
			c0.9-1.1,0.9-1.1,1.2-1.1c0.3,0,0.5,0.3,0.5,0.6c0,0.7-0.9,2-2.4,3.5c-2.9,2.9-6.9,4.4-11.2,4.4c-8.8,0-14.6-5.8-14.6-14.5
			c0-8.7,6.9-15.5,15.4-15.5c2.9,0,5.2,0.6,8.4,2c0.8,0.4,1,0.4,1.2,0.4c0.3,0,0.7-0.3,1.3-0.8c0.5-0.6,0.6-0.6,0.8-0.6
			c0.2,0,0.4,0.3,0.4,0.5L205.2,33z"/>
	</g>
	<g>
		<path class="st0" d="M227.6,35.5c0.2-3.2-0.9-4.4-4-4.8c-0.6-0.1-0.9-0.4-0.9-0.8c0-0.6,0.5-0.9,1.4-0.9c0.4,0,1,0,1.6,0.1
			c1.5,0.2,2.3,0.3,3.7,0.3c1.4,0,3-0.1,4.7-0.2c2.5-0.2,4.8-0.4,5.5-0.4c5.9,0,10,2.9,10,7c0,3.3-2,5.2-6.7,6.6
			c3.8,0.2,5.3,0.6,6.7,1.5c1.6,1.2,2.6,3.1,2.6,5.3c0,2.9-1.5,5.6-4.1,7.2c-2.5,1.5-4.9,2-9.5,2c-0.6,0-2.5,0-4.5-0.1
			c-1.1,0-1.9,0-2.6,0c-1.1,0-2.5,0-3.6,0.1c-1,0.1-2,0.1-2.3,0.1c-0.7,0-1-0.2-1-0.7c0-0.5,0.2-0.7,0.7-0.8
			c1.8-0.5,2.6-1.9,2.5-4.5V35.5z M233.9,51.9l0,0.7v0.5c0,2.5,1.1,3.3,4.4,3.3c4.7,0,7.3-2.2,7.3-6.2c0-2.2-0.9-4.3-2.3-5.3
			c-1.3-1.1-3.5-1.5-6.8-1.5c-2.2,0-2.5,0.3-2.5,2.6V51.9z M233.9,37.7c0,1.8,0.1,2.4,0.4,2.9c0.4,0.7,1.8,1.1,3.7,1.1
			c3.6,0,5.3-1.6,5.3-4.8c0-3.7-2.4-6.3-5.9-6.3c-1.3,0-2.4,0.4-2.9,1.1c-0.4,0.5-0.5,1.2-0.5,2.9V37.7z"/>
		<path class="st0" d="M287.2,52.8c1.4,2.9,2.1,3.6,3.9,4c0.8,0.1,1.1,0.4,1.1,0.9c0,0.4-0.4,0.7-0.9,0.7c-0.2,0-0.6,0-1.1-0.1
			c-1.1-0.2-3.6-0.3-5.9-0.3c-1.8,0-3.7,0.1-4.4,0.2c-0.7,0.1-1.1,0.2-1.4,0.2c-0.5,0-0.9-0.4-0.9-0.7c0-0.4,0.2-0.5,0.8-0.7
			c1.4-0.5,2.1-1.3,2.1-2.4c0-0.8,0-0.8-1.4-3.9c-0.9-2-0.9-2-3.4-2.1c-2.2,0-3.7-0.1-4.7-0.1c-3.4,0-3.7,0-4.3,0.7
			c-0.8,1-1.8,3.8-1.8,4.8c0,1.5,1.4,2.7,3.4,2.9c1,0.1,1.3,0.3,1.3,0.7c0,0.4-0.4,0.7-1,0.7c-0.2,0-0.7,0-1.2-0.1
			c-0.7-0.1-1.8-0.1-3.3-0.1c-1.7,0-2.6,0-3.5,0.2c-0.4,0-0.8,0.1-1.1,0.1c-0.4,0-0.7-0.3-0.7-0.7c0-0.4,0.1-0.5,0.6-0.7
			c1.8-0.7,2.4-1.5,5-7.5c2.6-5.8,3.3-7.3,8.7-17.9c1.3-2.5,1.7-3.2,2-3.2c0.3,0,0.3,0,0.7,0.9L287.2,52.8z M275.8,46.4
			c0.8,0,1.1-0.2,1.1-0.7s-0.7-2.1-1.8-4.2c-0.1-0.3-0.5-1-1.1-2.2s-1.1-1.8-1.4-1.8c-0.2,0-0.2,0-1.2,2c-2.2,4.5-2.9,5.9-2.9,6.3
			c0,0.5,0,0.5,2.7,0.6h1.8L275.8,46.4z"/>
		<path class="st0" d="M299.9,50.7c-0.1-0.4-0.2-0.7-0.2-1c0-0.5,0.3-0.9,0.7-0.9c0.3,0,0.4,0.2,0.7,0.7c1.8,4.4,5.8,7.3,9.7,7.3
			c3.3,0,5.5-2,5.5-4.8c0-1.5-0.7-2.8-1.8-3.5c-0.9-0.5-1.3-0.7-5-1.9c-4.1-1.3-5.7-2.1-7.2-3.7c-1.3-1.3-2-3.2-2-5.4
			c0-5,4.1-8.9,9.3-8.9c1.9,0,3.3,0.3,6.1,1.3c0.2,0.1,0.4,0.1,0.5,0.1c0.3,0,0.5-0.1,0.8-0.4c0.5-0.4,0.7-0.5,0.9-0.5
			c0.2,0,0.3,0.2,0.3,0.6c0,0,0,0.2,0,0.4v0.5c0,1.1,0,1.2,0.4,3.6c0.3,2.2,0.3,2.2,0.3,2.5c0,0.4-0.3,0.7-0.6,0.7
			c-0.4,0-0.5-0.2-0.7-0.8c-1.1-3.3-5-6.2-8.5-6.2c-2.6,0-4.6,1.8-4.6,4.2c0,1.2,0.6,2.4,1.5,3.1c1,0.7,1.5,0.9,4.5,1.7
			c3.3,0.9,5.4,1.8,6.8,3.2c1.7,1.6,2.7,3.9,2.7,6.6c0,5.9-4,9.6-10.3,9.6c-2.2,0-4.4-0.4-7.3-1.3c-1-0.3-1-0.3-1.4-2.3
			c-0.2-1-0.4-1.9-0.5-2.1L299.9,50.7z"/>
		<path class="st0" d="M339.9,48.6c0.1,6.4,0.5,7.2,3.4,7.9c0.8,0.2,1.2,0.5,1.2,1c0,0.6-0.4,1-0.9,1c-0.3,0-0.9-0.1-1.6-0.2
			c-0.9-0.2-2.2-0.3-3.6-0.3c-1.5,0-4.6,0.2-6.1,0.4c-0.4,0-0.8,0.1-1,0.1c-0.5,0-0.8-0.3-0.8-0.9c0-0.4,0.2-0.7,0.6-0.8
			c2.3-0.7,2.5-1.2,2.4-7.5V36.6c0.1-4.4-0.6-5.5-3.5-5.8c-0.9-0.1-1.3-0.4-1.3-1c0-0.5,0.4-0.8,0.9-0.8c0.3,0,0.9,0,1.6,0.2
			c1,0.2,1.8,0.2,3.3,0.2c2.2,0,4.4-0.1,5.3-0.3c1.1-0.2,2-0.4,2.5-0.4c0.5,0,0.8,0.3,0.8,0.7c0,0.5-0.3,0.7-1.1,0.9
			c-1.9,0.7-2.1,1-2.1,5.9v5c0,1.1,0,1.3,0.4,1.3c0.4,0,0.4,0,1.5-1l0.7-0.6l4.6-4.1c0.7-0.6,0.7-0.6,3.5-3.3c1-0.9,1.3-1.5,1.3-2.1
			c0-0.5-0.3-1-0.8-1.2c-0.4-0.1-0.4-0.1-1.3-0.1c-0.4,0-0.7-0.2-0.7-0.7c0-0.6,0.4-0.8,1.3-0.8c1,0,1.3,0,3.6,0.1
			c0.4,0,0.7,0,1.2,0c1.1,0,2.3,0,3-0.1c0.8-0.1,1.5-0.1,1.8-0.1c0.5,0,0.8,0.3,0.8,0.7c0,0.5-0.2,0.6-1.7,1.1
			c-1.7,0.4-4.3,2.2-7.8,5.5l-3.6,3.3c1.2,2.1,3.6,5.5,8.5,12.2c2.9,3.9,3.5,4.3,6.7,5.1c0.5,0.1,0.6,0.3,0.6,0.8c0,0.6-0.4,1-1.1,1
			l-0.7,0c-1.8-0.3-2-0.3-3.3-0.3c-1.2,0-2.6,0.1-3.6,0.2c-0.4,0-0.9,0.1-1.1,0.1c-0.8,0-1.3-0.4-2.2-1.6c-0.1-0.2-0.9-1.2-1.9-2.6
			c-1.5-1.9-5.4-7.7-6.1-8.9c-0.7-1-0.9-1.3-1.1-1.3c-0.4,0-1.3,0.8-2.6,2.2V48.6z"/>
		<path class="st0" d="M381.8,38.1c0,2.7,0,2.7,0.2,3c0.2,0.3,1.3,0.4,3,0.4c0.9,0,2.5-0.4,3.2-0.7c0.8-0.4,1.4-1.1,2.1-2.7
			c0.2-0.5,0.4-0.7,0.7-0.7c0.4,0,0.7,0.4,0.7,0.9c0,0.2,0,0.6-0.1,1c0,0.3,0,0.5,0,0.7c0,0.6,0,1.3,0.1,2.1
			c0.2,2.2,0.3,2.8,0.3,3.3c0,1.5-0.2,2-0.7,2c-0.3,0-0.3,0-0.6-1.2c-0.6-2.2-1.9-2.8-5.9-2.8c-1.3,0-1.9,0.1-2.3,0.4
			c-0.4,0.3-0.4,0.4-0.5,3.3v2.6c0,5.3,0.5,6.4,3,6.4c2.6,0,6.2-1,8.1-2.2c1.1-0.7,2-1.6,3.1-3.2c0.2-0.3,0.4-0.4,0.6-0.4
			c0.2,0,0.4,0.3,0.4,0.7c0,1.7-0.6,3.9-1.5,5c-1,1.5-2.8,2.4-4.5,2.4c-0.4,0-1.1,0-1.9-0.1c-2.1-0.3-5.9-0.4-8.9-0.4
			c-2.4,0-4.8,0.2-5.8,0.4c-0.4,0.1-0.9,0.2-1.1,0.2c-0.4,0-0.7-0.3-0.7-0.7c0-0.5,0.2-0.7,1-1.1c1.7-1,1.8-1.3,1.9-6v-1.3V35
			c0-3.3-0.8-4.3-3.7-4.5c-0.4,0-0.8-0.4-0.8-0.8c0-0.5,0.5-0.8,1.3-0.8l1.5,0c1.9,0.2,3.3,0.2,4.4,0.2c1.8,0,11.7-0.3,12.5-0.4
			c1.2-0.1,2.4-0.2,2.7-0.2c0.7,0,1,0.2,1,0.9c0,1,0,1.2,0.2,2.6c0.1,0.7,0.2,1.6,0.2,2c0,1.1-0.4,1.8-0.9,1.8
			c-0.4,0-0.6-0.2-0.7-1.3c-0.2-1.4-1.2-2.8-2.6-3.3c-1-0.4-1.6-0.4-4.1-0.4c-3.2,0-3.6,0-4.1,0.4c-0.5,0.3-0.6,1-0.6,3.6V38.1z"/>
		<path class="st0" d="M422.6,47.4c0,4.4,0.2,6.2,0.4,6.9c0.4,1.3,2,2.2,4.6,2.5c0.5,0.1,0.7,0.4,0.7,0.9s-0.3,0.8-0.7,0.8
			c-0.2,0-0.5,0-0.8-0.1c-1.5-0.4-3.5-0.7-5.9-0.7c-2.7,0-5.2,0.2-8.4,0.7c-0.4,0-0.7,0.1-0.9,0.1c-0.6,0-1-0.3-1-0.9
			c0-0.7,0.1-0.7,2-1c2.2-0.4,3.4-1.2,3.5-2.5l0-1.3l0-2.4v-1V35.1c0-2.8,0-2.9-0.3-3.3c-0.3-0.4-0.7-0.4-4.2-0.4
			c-3.9,0-4.8,0.5-5.9,3.8c-0.2,0.7-0.4,0.9-0.8,0.9c-0.4,0-0.7-0.4-0.7-1c0-0.2,0-0.6,0.2-1.3c0.2-1,0.2-1.5,0.4-3.9
			c0-0.8,0.2-1.1,0.7-1.1c0.1,0,0.4,0,0.6,0l2.2,0c1.2,0,3.5,0,5.9,0c2.7,0,4.3,0,5,0c7.5,0,9.3,0,12.8-0.2c0.3,0,0.6,0,0.7,0
			c1,0,1,0,1.2,2.1c0.2,2.3,0.2,2.4,0.3,2.9c0.1,0.5,0.2,1.1,0.2,1.3c0,0.4-0.3,0.7-0.7,0.7c-0.5,0-0.5,0-1.3-1.9
			c-0.3-0.8-1.4-1.9-2.3-2.2c-0.7-0.3-1.8-0.5-3-0.5c-3,0-4,0.2-4.4,0.8c-0.2,0.5-0.2,0.7-0.3,3.1V47.4z"/>
	</g>
	<g>
		<path class="st0" d="M208.1,12.5c0,0.2,0,0.4,0,0.6c0,0.7,0.3,1,1.1,1.1c0.5,0.1,0.7,0.2,0.7,0.3c0,0.2-0.2,0.2-0.5,0.2
			c-0.1,0-0.2,0-0.3,0c-0.5-0.1-0.9-0.1-1.6-0.1c-0.7,0-0.7,0-1.6,0.1c-0.2,0-0.3,0-0.4,0c-0.3,0-0.5-0.1-0.5-0.2s0.1-0.2,0.4-0.3
			c0.9-0.2,1-0.4,1.1-1.6l1.4-11V1.6c0-0.3-0.1-0.4-0.5-0.4h-2.3c-1.3,0-2,0.4-2.3,1.3c-0.2,0.4-0.3,0.6-0.4,0.6
			c-0.2,0-0.3-0.2-0.3-0.4c0-0.2,0.1-0.7,0.4-1.2c0.1-0.2,0.2-0.5,0.3-0.9c0.1-0.5,0.2-0.6,0.6-0.6c0.2,0,0.6,0,1.1,0
			c0.6,0,2.9,0.1,4.4,0.1c1.5,0,4,0,4.5-0.1c0.4,0,0.6,0,0.8,0c0.5,0,0.5,0.1,0.5,1.1c0,0.3,0,1.1,0,1.4v0.2c0,0.3-0.1,0.5-0.3,0.5
			c-0.2,0-0.3-0.2-0.3-0.5c-0.1-1.1-0.4-1.5-1.4-1.5h-2.8c-0.4,0-0.4,0.1-0.5,0.5L208.1,12.5z"/>
		<path class="st0" d="M229.2,6.7c0.5,0,0.5,0,0.6-0.5l0.5-3.9c0-0.2,0-0.4,0-0.6c0-0.7-0.3-1-1-1.1c-0.5-0.1-0.6-0.2-0.6-0.3
			c0-0.1,0.1-0.2,0.4-0.2c0.1,0,0.1,0,0.3,0c0.6,0.1,0.9,0.1,1.5,0.1c0.8,0,0.8,0,1.6-0.1c0.2,0,0.3,0,0.3,0c0.2,0,0.4,0.1,0.4,0.2
			c0,0.2,0,0.2-0.4,0.3c-0.8,0.2-0.9,0.4-1,1.6l-1.3,10.5c0,0.2,0,0.5,0,0.6c0,0.7,0.3,1,1,1.1c0.5,0.1,0.6,0.2,0.6,0.3
			c0,0.1-0.1,0.2-0.4,0.2c-0.1,0-0.1,0-0.3,0c-0.6-0.1-0.9-0.1-1.5-0.1c-0.7,0-0.8,0-1.6,0.1c-0.2,0-0.3,0-0.4,0
			c-0.2,0-0.4-0.1-0.4-0.2s0-0.2,0.4-0.3c0.8-0.2,0.9-0.4,1-1.6l0.5-4.4l0-0.4c0-0.3-0.1-0.4-0.5-0.4h-6.9c-0.4,0-0.4,0-0.4,0.4
			l-0.6,4.5c0,0.2,0,0.4,0,0.6c0,0.7,0.3,1,1,1.1c0.5,0.1,0.6,0.2,0.6,0.3c0,0.1-0.1,0.2-0.4,0.2c-0.1,0-0.1,0-0.3,0
			c-0.6-0.1-0.9-0.1-1.6-0.1c-0.7,0-0.7,0-1.6,0.1c-0.3,0-0.3,0-0.4,0c-0.2,0-0.4-0.1-0.4-0.2c0-0.2,0-0.2,0.4-0.3
			c0.8-0.2,0.9-0.4,1-1.6L221,2.3c0-0.2,0-0.5,0-0.7c0-0.7-0.3-1-1-1.1c-0.5-0.1-0.6-0.2-0.6-0.3c0-0.1,0.1-0.2,0.4-0.2
			c0.1,0,0.1,0,0.3,0c0.6,0.1,0.9,0.1,1.6,0.1c0.7,0,0.8,0,1.6-0.1c0.2,0,0.3,0,0.4,0c0.2,0,0.4,0.1,0.4,0.2c0,0.2,0,0.2-0.4,0.3
			c-0.8,0.2-0.9,0.4-1,1.6l-0.5,4c0,0.2,0,0.3,0,0.3c0,0.2,0.1,0.3,0.4,0.3H229.2z"/>
		<path class="st0" d="M240.7,2.3c0-0.2,0-0.5,0-0.6c0-0.7-0.3-1-1-1.1c-0.5-0.1-0.6-0.2-0.6-0.3c0-0.1,0.1-0.2,0.4-0.2
			c0.1,0,0.5,0,0.8,0c0.7,0,2.5,0.1,4,0.1c1.4,0,3.4,0,4-0.1c0.4,0,0.7,0,0.9,0s0.3,0.1,0.3,0.3l0,1.1l0,1.6c0,0.2-0.1,0.4-0.2,0.4
			c-0.2,0-0.3-0.1-0.3-0.4c-0.2-1.8-0.5-1.9-4.3-1.9h-0.7l-1.1,0c-0.5,0-0.7,0.1-0.7,0.7l-0.6,4.7c0,0.2,0,0.2,0,0.2
			c0,0.2,0,0.2,0.5,0.2h3c1,0,1.5-0.4,1.8-1.3c0-0.2,0.1-0.3,0.2-0.3s0.2,0.1,0.2,0.3c0,0.1-0.1,0.6-0.1,1c-0.2,0.9-0.2,0.9-0.2,1.9
			c0,1.1-0.1,1.3-0.3,1.3c-0.2,0-0.2,0-0.2-0.8c0-0.8-0.5-1.1-1.7-1.2h-2.6c-0.7,0-0.7,0-0.7,0.5l-0.6,4.6V13c0,0.7,0.3,0.9,1.7,0.9
			c1.5,0,3.1-0.2,4-0.5c0.7-0.2,1.6-0.8,1.9-1.3c0.2-0.3,0.3-0.4,0.4-0.4c0.1,0,0.2,0.1,0.2,0.2c0,0.5-0.6,1.5-1.2,2.2
			c-0.5,0.5-0.9,0.6-2.1,0.6c-0.3,0-1,0-1.9-0.1c-0.7,0-1.4-0.1-2.1-0.1c-0.7,0-1.4,0-2,0.1c-0.6,0-1.1,0.1-1.5,0.1
			c-0.3,0-0.4-0.1-0.4-0.2c0-0.1,0-0.2,0.4-0.3c0.8-0.2,0.9-0.4,1-1.6L240.7,2.3z"/>
	</g>
	<g>
		<path class="st0" d="M168.2,80.6c0,2,0.1,2.2,1.2,2.3c0.2,0,0.2,0,0.2,0.1c0,0.1-0.1,0.2-0.2,0.2c-0.1,0-0.3,0-0.5,0
			c-0.1,0-0.3,0-1.3,0c-0.8,0-0.9,0-1.1,0c-0.2,0-0.3,0-0.4,0c-0.1,0-0.2-0.1-0.2-0.1s0.1-0.1,0.2-0.2c0.8-0.1,0.9-0.5,0.9-2.5v-4.1
			c0-1.8-0.1-2.2-1-2.3c-0.1,0-0.2-0.1-0.2-0.1c0-0.1,0.1-0.2,0.3-0.2c0.1,0,0.2,0,0.3,0c0.3,0,0.4,0.1,0.7,0.1c0.4,0,0.5,0,1.3-0.1
			c0.2,0,0.4,0,0.6,0c2,0,3.3,1,3.3,2.5c0,0.7-0.3,1.5-0.9,1.9c-0.5,0.4-1.3,0.7-1.9,0.7c-0.6,0-1.1-0.2-1.1-0.3
			c0-0.1,0-0.1,0.1-0.1c0,0,0.1,0,0.2,0c0.2,0,0.3,0,0.5,0c1.3,0,2.2-0.8,2.2-2c0-1.4-1.2-2.4-2.8-2.4c-0.2,0-0.4,0.1-0.4,0.2
			c0,0.1,0,0.1-0.1,0.5V80.6z"/>
		<path class="st0" d="M181.8,82.8c0.1,0,0.2,0,0.2,0.1c0,0.1,0,0.1-0.8,0.2c-0.3,0-0.5,0-0.6,0.1c-0.1,0-0.2,0-0.3,0
			c-0.2,0-0.2,0-0.2-0.9c-0.3,0.3-0.4,0.4-0.6,0.6c-0.4,0.3-0.9,0.4-1.4,0.4c-0.5,0-1.1-0.2-1.5-0.6c-0.4-0.4-0.6-0.9-0.6-1.7l0-0.4
			v-2.3c0-0.5-0.2-0.6-0.7-0.6c-0.1,0-0.2-0.1-0.2-0.1c0-0.1,0.1-0.1,0.4-0.2c0.6,0,0.7,0,1-0.1c0.1,0,0.1,0,0.2,0
			c0.2,0,0.2,0.1,0.2,0.4l0,3.1V81c0,1.1,0.6,1.8,1.5,1.8c0.5,0,1.1-0.3,1.4-0.7c0.1-0.2,0.1-0.3,0.1-0.7l0-3c0-0.5-0.1-0.7-0.6-0.7
			c-0.2,0-0.2,0-0.2-0.1c0-0.1,0-0.2,0.5-0.2l0.5,0c0.1,0,0.3,0,0.5-0.1c0.1,0,0.1,0,0.2,0c0.1,0,0.1,0.1,0.1,0.3v4.2
			c0,0.9,0.1,1,0.6,1C181.7,82.8,181.7,82.8,181.8,82.8L181.8,82.8z"/>
		<path class="st0" d="M186.7,81.7c0,0.5,0,0.7,0.2,0.9c0.2,0.2,0.5,0.3,0.8,0.3c0.4,0,0.5,0,1.1-0.3c0,0,0,0,0.1,0
			c0,0,0.1,0,0.1,0.1c0,0.3-0.9,0.8-1.6,0.8c-1,0-1.6-0.6-1.6-1.6v-3.5h-0.6c-0.1,0-0.2,0-0.2-0.1c0-0.1,0-0.1,0.2-0.2
			c0.4-0.3,1-1,1.2-1.4c0.2-0.2,0.2-0.3,0.3-0.3c0.1,0,0.1,0.1,0.1,0.2l0,1.2h1.5c0.2,0,0.3,0,0.5-0.1c0.1-0.1,0.1-0.1,0.2-0.1
			c0,0,0.1,0,0.1,0.1c0,0,0,0-0.2,0.6c-0.1,0.2-0.1,0.2-0.5,0.2h-1.4V81.7z"/>
		<path class="st0" d="M191.6,80.9c-0.1,0-0.2,0.1-0.3,0.1c-0.1,0-0.1,0-0.2,0c-0.1,0-0.1-0.1-0.1-0.2c0-0.2,0-0.5,0.1-0.6
			c0-0.1,0.1-0.1,0.5-0.3c0.1,0,0.3-0.1,0.7-0.3c0,0,0.4-0.1,0.7-0.3c0.2-0.1,0.3-0.1,0.4-0.2c0.1,0,0.1,0,0.1,0c0,0,0.1,0,0.1,0.3
			c0,0.5,0,0.6-0.1,0.6c0,0,0,0-0.4,0.2l-0.8,0.3L191.6,80.9z"/>
		<path class="st0" d="M198.4,82c0,0.7,0.1,0.8,0.9,0.9c0.1,0,0.2,0.1,0.2,0.2c0,0.1-0.1,0.1-0.2,0.1c-0.1,0-0.2,0-0.4,0
			c-0.1,0-0.8,0-0.9,0c-0.2,0-0.5,0-0.7,0c-0.1,0-0.2,0-0.3,0c-0.1,0-0.2-0.1-0.2-0.1c0-0.1,0-0.1,0.3-0.2c0.3-0.2,0.4-0.3,0.4-0.9
			v-3c0-0.7-0.1-0.9-0.6-0.9c-0.1,0-0.2,0-0.2-0.1c0-0.1,0.1-0.1,0.4-0.2c0.2-0.1,1-0.4,1-0.4c0.2-0.1,0.3-0.2,0.4-0.2
			c0.1,0,0.1,0,0.1,1.3V82z M198.3,74.8c0.2,0.3,0.2,0.3,0.2,0.4c0,0.2-0.4,0.7-0.6,0.7c-0.2,0-0.6-0.5-0.6-0.7
			c0-0.1,0.1-0.2,0.3-0.4c0.2-0.2,0.3-0.3,0.4-0.3S198.2,74.6,198.3,74.8z"/>
		<path class="st0" d="M204.3,78.5c0.6-0.8,1.2-1.1,1.9-1.1c0.7,0,1.4,0.4,1.8,1.1c0.2,0.4,0.3,0.9,0.3,1.7v1.6c0,0.9,0.1,1,0.9,1.1
			c0.1,0,0.2,0.1,0.2,0.1c0,0.1-0.1,0.2-0.2,0.2l-0.3,0c-0.2,0-0.4,0-0.9,0l-0.6,0h-0.3l-0.2,0c-0.1,0-0.1,0-0.1-0.1
			c0-0.1,0-0.1,0.3-0.2c0.2-0.1,0.3-0.2,0.3-0.5V82v-0.2V80c0-0.7-0.1-1-0.3-1.3c-0.3-0.4-0.8-0.6-1.3-0.6c-0.5,0-0.9,0.2-1.2,0.5
			c-0.2,0.2-0.2,0.3-0.2,0.6v2.6c0,0.9,0.1,1.1,1,1.2c0.2,0,0.2,0.1,0.2,0.1c0,0.1-0.1,0.1-0.2,0.1c-0.1,0-0.2,0-0.3,0
			c-0.1,0-0.2,0-0.5,0c-1,0-1.2,0-1.6,0h0c-0.1,0-0.1,0-0.1-0.1c0-0.1,0-0.1,0.1-0.1c0.5-0.1,0.6-0.4,0.6-1.1V79
			c0-0.8-0.1-0.9-0.8-0.8c-0.1,0-0.2,0-0.2-0.1c0-0.1,0.1-0.1,0.2-0.1c0.6-0.2,0.8-0.2,1.5-0.6c0.1,0,0.1-0.1,0.2-0.1
			c0.1,0,0.1,0,0.1,0.5V78.5z"/>
		<path class="st0" d="M212.3,80.9c-0.1,0-0.2,0.1-0.3,0.1c-0.1,0-0.1,0-0.2,0c-0.1,0-0.1-0.1-0.1-0.2c0-0.2,0-0.5,0.1-0.6
			c0-0.1,0.1-0.1,0.5-0.3c0.1,0,0.3-0.1,0.7-0.3c0,0,0.4-0.1,0.7-0.3c0.2-0.1,0.3-0.1,0.4-0.2c0.1,0,0.1,0,0.1,0c0,0,0.1,0,0.1,0.3
			c0,0.5,0,0.6-0.1,0.6c0,0,0,0-0.4,0.2l-0.8,0.3L212.3,80.9z"/>
		<path class="st0" d="M218.5,75.8c0-1.2-0.3-1.7-1.1-1.8c-0.2,0-0.3-0.1-0.3-0.2c0-0.1,0.1-0.2,0.3-0.2c0.1,0,0.2,0,0.4,0
			c0.1,0,0.3,0,0.5,0c0.6,0,0.6,0,1.6-0.1c0.3,0,0.5,0,0.7,0c1,0,1.7,0.2,2.2,0.5c0.6,0.4,1,1,1,1.7c0,0.5-0.2,0.9-0.4,1.3
			c-0.2,0.3-0.2,0.3-0.8,0.6c-0.1,0-0.1,0.1-0.1,0.1c0,0.1,0,0.1,0.4,0.1c1.1,0.3,1.7,1.2,1.7,2.3c0,1.7-1.4,2.9-3.4,2.9
			c-0.3,0-0.6,0-1-0.1c-0.5-0.1-0.7-0.1-1.1-0.1c-0.4,0-0.8,0-0.9,0c-0.2,0-0.4,0-0.5,0c-0.1,0-0.2-0.1-0.2-0.2
			c0-0.1,0.1-0.1,0.2-0.1c0.6-0.1,0.7-0.3,0.8-1.9V75.8z M221.2,77.9c1.1,0,1.7-0.6,1.7-1.5c0-0.6-0.3-1.2-0.7-1.6
			c-0.4-0.4-1.2-0.7-1.8-0.7c-0.6,0-0.8,0.1-0.8,0.7v2.7c0,0.3,0.1,0.4,0.5,0.4H221.2z M220,78.3c-0.3,0-0.4,0-0.4,0.3v3.2
			c0,0.6,0,0.6,0.1,0.8c0.2,0.2,0.7,0.3,1.6,0.3c0.8,0,1.2-0.1,1.6-0.5c0.4-0.4,0.7-1,0.7-1.7c0-0.9-0.5-1.8-1.2-2.1
			c-0.5-0.2-0.7-0.3-1.5-0.3H220z"/>
		<path class="st0" d="M231.2,79.3c0-0.6,0-0.8-0.2-1c-0.2-0.3-0.7-0.5-1.1-0.5c-0.6,0-0.9,0.3-0.9,0.8c0,0.2,0,0.3,0.1,0.5
			c0,0.1,0,0.2,0,0.2c0,0.1-0.1,0.1-0.1,0.1c-0.1,0-0.4-0.1-0.6-0.1c-0.2-0.1-0.2-0.2-0.2-0.3c0-0.3,0.3-0.8,0.6-1.1
			c0.4-0.3,1-0.5,1.5-0.5c0.7,0,1.4,0.3,1.7,0.7c0.2,0.2,0.2,0.5,0.2,0.9v2.7c0,0.6,0,0.7,0.2,0.9c0.1,0.2,0.3,0.2,0.5,0.2
			c0.1,0,0.1,0,0.3-0.1c0.1,0,0.1,0.1,0.1,0.1c0,0.2-0.5,0.4-0.9,0.4c-0.4,0-0.7-0.2-1-0.7c-0.7,0.5-1.2,0.7-1.8,0.7
			c-0.9,0-1.4-0.5-1.4-1.3c0-0.7,0.4-1.1,1.3-1.5c0.4-0.2,1-0.3,1.9-0.4V79.3z M231.2,80.4c-0.6,0.1-1.1,0.2-1.5,0.4
			c-0.5,0.2-0.7,0.6-0.7,1.1c0,0.6,0.4,1,1,1c0.4,0,0.9-0.2,1.1-0.5c0.1-0.2,0.2-0.3,0.2-0.7V80.4z"/>
		<path class="st0" d="M239.6,79.3c0.1-0.3,0.2-0.6,0.2-0.8c0-0.2-0.1-0.4-0.2-0.5c-0.1-0.1-0.2-0.1-0.5-0.2c-0.1,0-0.2-0.1-0.2-0.2
			c0-0.1,0-0.1,0.1-0.1l0.3,0c0.1,0,0.3,0,0.5,0c0.4,0,0.7,0,0.8,0c0.1,0,0.3,0,0.3,0c0.1,0,0.1,0,0.1,0.1s0,0.1-0.1,0.2
			c-0.4,0.1-0.4,0.2-0.6,0.7l-2.4,6.8c-0.1,0.3-0.1,0.3-0.2,0.4c0,0-0.1,0-0.2,0h-0.4c-0.4,0-0.5,0-0.5-0.1c0,0,0-0.1,0.1-0.1
			c0.6-0.6,1.2-1.7,1.2-2.2c0-0.1-0.1-0.4-0.3-0.8l-1.7-4c-0.2-0.5-0.4-0.7-0.7-0.8c-0.1,0-0.2-0.1-0.2-0.1c0-0.1,0.1-0.2,0.2-0.2
			c0,0,0.2,0,0.3,0c0.1,0,0.3,0,0.6,0c0.4,0,0.8,0,1,0c0.1,0,0.2,0,0.3,0c0.1,0,0.2,0,0.2,0.1c0,0.1-0.1,0.1-0.4,0.2
			c-0.3,0-0.4,0.1-0.4,0.3c0,0.2,0.1,0.4,0.2,0.8l1.3,3.2L239.6,79.3z"/>
		<path class="st0" d="M245.2,83c0,0.5-0.2,1.1-0.6,1.6c-0.3,0.4-0.6,0.6-0.8,0.6c-0.1,0-0.1,0-0.1-0.1c0-0.1,0-0.1,0.1-0.2
			c0.3-0.2,0.6-0.8,0.6-1.2c0-0.3-0.1-0.6-0.3-0.8c-0.1-0.1-0.2-0.2-0.4-0.4c-0.1-0.1-0.2-0.2-0.2-0.2c0-0.1,0-0.1,0.4-0.5
			c0.3-0.3,0.3-0.3,0.4-0.3C244.7,81.6,245.2,82.3,245.2,83z"/>
		<path class="st0" d="M264.4,78.3c0,2.9-2.1,5-4.9,5c-1.2,0-2.4-0.4-3.2-1c-1.1-0.9-1.7-2.3-1.7-3.9c0-1.4,0.7-2.9,1.7-3.7
			c0.9-0.7,2.1-1.1,3.4-1.1C262.4,73.6,264.4,75.6,264.4,78.3z M255.6,77.9c0,1.6,0.4,2.8,1.4,3.8c0.8,0.8,1.7,1.2,2.7,1.2
			c2.1,0,3.6-1.7,3.6-4.1c0-1.4-0.5-2.7-1.4-3.6c-0.8-0.8-1.7-1.2-2.9-1.2C257,74,255.6,75.6,255.6,77.9z"/>
		<path class="st0" d="M269.5,78.4c0.6-0.7,1.2-1.1,1.9-1.1c0.7,0,1.4,0.4,1.8,1c0.2,0.3,0.4,0.8,0.4,1.4v2.2c0,0.7,0.1,0.8,0.9,1
			c0.1,0,0.2,0.1,0.2,0.1s-0.1,0.1-0.2,0.1c0,0-0.2,0-0.3,0c-0.3,0-0.7,0-0.9,0c-0.2,0-0.8,0-0.9,0c-0.1,0-0.2,0-0.2,0
			c-0.1,0-0.2-0.1-0.2-0.1c0-0.1,0-0.1,0.3-0.2c0.3-0.1,0.3-0.2,0.3-0.8v-2.3c0-1.1-0.6-1.8-1.6-1.8c-0.8,0-1.5,0.5-1.5,1.1v2.6
			c0,0.9,0.1,1.1,0.9,1.2c0.2,0,0.2,0.1,0.2,0.2c0,0.1-0.1,0.1-0.1,0.1c-0.1,0-0.2,0-0.4,0c-0.1,0-0.6,0-1,0c-0.2,0-0.5,0-0.8,0
			c-0.1,0-0.3,0-0.3,0c-0.1,0-0.2,0-0.2-0.1c0-0.1,0-0.1,0.2-0.2c0.5-0.2,0.6-0.3,0.6-1.2v-6.9c0-0.3,0-0.4-0.1-0.5
			c0-0.1-0.2-0.3-0.3-0.3l-0.5,0c0,0-0.1-0.1-0.1-0.1c0-0.1,0-0.1,0.2-0.1c0.6-0.2,0.7-0.3,1.5-0.6c0.1,0,0.1,0,0.2,0
			c0.1,0,0.1,0.1,0.1,0.1l0,0.5V78.4z"/>
		<path class="st0" d="M279.4,82c0,0.7,0.1,0.8,0.9,0.9c0.1,0,0.2,0.1,0.2,0.2c0,0.1-0.1,0.1-0.2,0.1c-0.1,0-0.2,0-0.4,0
			c-0.1,0-0.8,0-0.9,0c-0.2,0-0.5,0-0.7,0c-0.1,0-0.2,0-0.3,0c-0.1,0-0.2-0.1-0.2-0.1c0-0.1,0-0.1,0.3-0.2c0.3-0.2,0.4-0.3,0.4-0.9
			v-3c0-0.7-0.1-0.9-0.6-0.9c-0.1,0-0.2,0-0.2-0.1c0-0.1,0.1-0.1,0.4-0.2c0.2-0.1,1-0.4,1-0.4c0.2-0.1,0.3-0.2,0.4-0.2
			c0.1,0,0.1,0,0.1,1.3V82z M279.4,74.8c0.2,0.3,0.2,0.3,0.2,0.4c0,0.2-0.4,0.7-0.6,0.7c-0.2,0-0.6-0.5-0.6-0.7
			c0-0.1,0.1-0.2,0.3-0.4c0.2-0.2,0.3-0.3,0.4-0.3S279.2,74.6,279.4,74.8z"/>
		<path class="st0" d="M289.5,80.4c0,1.7-1.3,3-3.1,3c-1.8,0-3-1.2-3-2.9c0-0.9,0.5-1.8,1.1-2.3c0.5-0.4,1.2-0.6,1.9-0.6
			C288.2,77.4,289.5,78.7,289.5,80.4z M284.4,79.9c0,1.8,1,3.1,2.3,3.1c1.1,0,1.8-0.9,1.8-2.3c0-1.8-0.9-3-2.2-3
			C285.2,77.6,284.4,78.6,284.4,79.9z"/>
	</g>
	<g>
		<polygon class="st0" points="259.2,5.8 259.2,7.8 447.3,7.8 447.3,78.2 298.2,78.2 298.2,80.2 449.3,80.2 449.3,5.8 		"/>
		<polygon class="st0" points="0,5.8 0,80.2 155.2,80.2 155.2,78.2 2,78.2 2,7.8 194.2,7.8 194.2,5.8 		"/>
	</g>
</g>
</svg>
