<?xml version="1.0" encoding="utf-8"?>
<!-- Generator: Adobe Illustrator 27.1.1, SVG Export Plug-In . SVG Version: 6.00 Build 0)  -->
<svg version="1.1" id="Layer_1" xmlns="http://www.w3.org/2000/svg" xmlns:xlink="http://www.w3.org/1999/xlink" x="0px" y="0px"
	 viewBox="0 0 200 200" style="enable-background:new 0 0 200 200;" xml:space="preserve">
<style type="text/css">
	.st0{fill:#A13F36;}
</style>
<g>
	<g>
		<path class="st0" d="M12.1,117.5c0.1,0.5,0.2,0.6,0.8,0.5l8.8-1.2l0.3,0c1.2-0.1,1.6-0.5,1.7-1.5c0-0.2,0.1-0.3,0.2-0.4
			c0.1,0,0.2,0.1,0.2,0.2c0,0.1,0,0.3,0,0.5c0,0.2,0,0.3,0.2,1.6c0.2,1.1,0.2,1.1,0.2,1.4c0.1,0.3,0.1,0.6,0.1,0.6
			c0,0.2,0,0.3-0.2,0.3s-0.2-0.1-0.3-0.3c-0.3-1-0.6-1.2-2-1l-0.3,0l-8.8,1.2c-0.7,0.1-0.8,0.1-0.7,0.7l0.3,2.5
			c0.2,1.1,0.5,1.3,1.7,1.4c0.3,0,0.4,0.1,0.4,0.2c0,0.1-0.1,0.2-0.2,0.2c-0.1,0-0.3,0-0.7,0c-0.4,0-1,0-1.1,0
			c-0.5,0.1-0.7,0-0.8-0.4l-1.4-10.2c-0.1-0.7-0.1-0.7,0.9-0.9c0.3,0,0.5-0.1,0.6-0.1c0.2-0.1,0.4-0.1,0.5-0.1
			c0.2,0,0.3,0.1,0.3,0.2c0,0.1-0.1,0.2-0.3,0.3c-0.9,0.3-1,0.6-0.9,1.6L12.1,117.5z"/>
	</g>
	<g>
		<path class="st0" d="M16.6,97.7c0.1-0.6,0-0.7-0.6-0.7l-3-0.2c-1.2-0.1-1.7,0.2-2,1.1c-0.1,0.2-0.1,0.3-0.2,0.3
			c-0.1,0-0.2-0.1-0.2-0.2c0-0.1,0-0.4,0.1-0.6c0-0.2,0.1-1.1,0.1-1.3c0-0.4,0-1.3,0-1.5c0-0.2,0-0.3,0-0.4c0-0.1,0.1-0.2,0.2-0.2
			c0.1,0,0.2,0,0.2,0.6c0.1,0.5,0.7,0.8,1.6,0.8l8.9,0.5c1.3,0.1,1.8-0.2,2-1.3c0-0.2,0.1-0.3,0.2-0.3c0.1,0,0.2,0.1,0.2,0.3
			c0,0.1,0,0.3-0.1,0.5c-0.1,0.2-0.1,0.4-0.2,1.7l0,0.7c0,0.2,0,0.4,0,0.5l0,0.6l0,0.1c0,0.2-0.1,0.2-0.2,0.2
			c-0.1,0-0.2-0.1-0.2-0.3c-0.1-0.9-0.5-1-2-1.1L18,97.1c-0.6,0-0.6,0-0.6,0.6l-0.3,5.6c0,0.7,0,0.8,0.6,0.9l3.1,0.2
			c1.7,0.1,2.2-0.1,2.4-1.3c0.1-0.2,0.1-0.4,0.3-0.4c0.1,0,0.2,0.1,0.2,0.3c0,0.1,0,0.3-0.1,0.5c0,0.1-0.1,1.3-0.2,1.9
			c0,0.3,0,1,0,1.2c0,0.3,0,0.5,0,0.6c0,0.2-0.1,0.2-0.2,0.2c-0.2,0-0.2-0.1-0.3-0.7c-0.1-0.6-0.8-0.8-2.5-0.9l-7.8-0.5
			c-1.4-0.1-2,0.2-2.2,1.3c0,0.2-0.1,0.3-0.2,0.3c-0.1,0-0.2-0.1-0.2-0.3c0-0.1,0-0.3,0.1-0.6c0-0.1,0.2-1.6,0.2-1.8
			c0-0.3,0-1,0-1.3c0-0.2,0-0.3,0-0.4c0-0.2,0.1-0.3,0.2-0.3c0.1,0,0.2,0,0.3,0.6c0.2,0.6,0.6,0.8,1.6,0.8l3.1,0.2
			c0.7,0.1,0.8,0,0.8-0.8L16.6,97.7z"/>
	</g>
	<g>
		<path class="st0" d="M18.1,85.3c0.5,0.2,0.6,0.1,0.7-0.4l0.4-1.4c0.5-2.1,0.4-2.4-0.5-2.8c-0.1-0.1-0.2-0.2-0.2-0.3
			c0-0.1,0.1-0.2,0.3-0.1c0,0,0.1,0,0.2,0.1c0.8,0.2,1.1,0.3,1.6,0.5c0.4,0.1,0.7,0.2,1.1,0.2c0.1,0,0.2,0,0.3,0.1
			c0.2,0,0.2,0.1,0.2,0.2c0,0.2-0.1,0.2-0.5,0.2c-1,0-1.2,0.2-1.5,1.3l-0.5,2c-0.2,0.6-0.1,0.8,0.3,0.9l0.3,0.1l3.1,0.8
			c1.3,0.3,1.5,0.2,1.9-1.1c0.3-1.1,0.4-1.7,0.4-2.5c0-1.4-0.2-2.1-0.8-2.8c-0.1-0.1-0.1-0.2-0.1-0.3c0-0.1,0.1-0.1,0.3-0.1
			c0.4,0.1,1,0.7,1.4,1.2c0.4,0.7,0.5,1.3,0.3,2.1c0,0.2-0.1,0.5-0.2,0.7c-0.5,1.3-0.7,2-0.9,2.9c-0.2,0.8-0.4,2-0.5,2.3
			c0,0.2,0,0.4-0.1,0.5c0,0.1-0.2,0.3-0.3,0.2c-0.1,0-0.2-0.1-0.2-0.7c0-0.6-0.5-0.9-1.7-1.2L22.5,88l-7.5-1.9
			c-1.7-0.5-2.3-0.3-2.6,0.9c-0.1,0.2-0.1,0.2-0.2,0.2c-0.2,0-0.2-0.2-0.2-0.5c0-0.2,0.1-0.4,0.2-0.6c0.4-1,0.5-1.5,0.9-3
			c0.3-1.3,0.9-3.8,0.9-4.2c0-0.2,0-0.3,0.1-0.4c0-0.2,0.2-0.3,0.3-0.2l0.2,0.1c0.2,0.1,0.8,0.3,1.2,0.4c0.6,0.2,0.8,0.3,0.7,0.5
			c0,0.2-0.1,0.2-0.6,0c-1.1-0.2-1.4,0.2-2,2.5l-0.4,1.5c-0.2,0.7-0.1,1,0.5,1.1L18.1,85.3z"/>
	</g>
	<g>
		<path class="st0" d="M30,65.2c2.4,1.4,2.8,1.4,3.6,0.1c0.1-0.2,0.2-0.2,0.3-0.2c0.1,0.1,0.1,0.2,0,0.4c-0.1,0.1-0.2,0.3-0.3,0.5
			c-0.1,0.2-0.2,0.3-0.9,1.5c-0.5,1-0.6,1.1-0.7,1.3c-0.1,0.3-0.2,0.4-0.2,0.5c-0.1,0.1-0.2,0.2-0.3,0.1c-0.1-0.1-0.1-0.2-0.1-0.4
			c0.3-1,0-1.4-2.4-2.8l-5.1-2.8c-2.2-1.2-2.8-1.3-3.5-0.3c-0.1,0.1-0.2,0.2-0.3,0.1c-0.1-0.1-0.1-0.2,0-0.5c0-0.1,0.2-0.2,0.3-0.4
			c0.3-0.3,0.4-0.5,0.6-0.9c0.3-0.5,0.3-0.6,0.8-1.6c0.1-0.2,0.2-0.5,0.4-0.8c1.4-2.5,3.4-3.4,5.3-2.4c0.9,0.5,1.6,1.4,1.8,2.4
			c0.2,0.9,0,2.1-0.4,2.8c-0.4,0.7-0.9,1.3-1.1,1.2c-0.1,0-0.1-0.1,0-0.2c0,0,0.1-0.1,0.1-0.2c0.1-0.2,0.3-0.4,0.4-0.6
			c0.9-1.6,0.5-3.2-1-4c-1.7-0.9-3.7-0.2-4.8,1.8c-0.2,0.3-0.2,0.5-0.1,0.6c0.1,0.1,0.1,0.1,0.6,0.4L30,65.2z"/>
	</g>
	<g>
		<path class="st0" d="M37.3,54.4c1.6,1.2,2.3,1.3,3.1,0.4c0.2-0.2,0.4-0.3,0.5-0.2c0.1,0.1,0.1,0.3,0,0.4c0,0.1-0.1,0.2-0.2,0.3
			c-0.1,0.1-0.9,1.1-1.4,1.8c-0.3,0.4-0.5,0.7-0.7,1c-0.1,0.2-0.2,0.3-0.2,0.4c-0.1,0.1-0.2,0.2-0.3,0.1c-0.1-0.1-0.1-0.2,0-0.4
			c0.4-0.9,0.3-1.3-1-2.2l-6.6-4.8c-1.3-0.9-1.7-1-2.6-0.1c-0.2,0.2-0.3,0.2-0.4,0.1c-0.1-0.1-0.1-0.2,0-0.3c0,0,0.1-0.1,0.1-0.1
			c0.4-0.4,0.8-1,1.1-1.4c0.4-0.5,0.5-0.8,1.1-1.6c0-0.1,0.1-0.2,0.1-0.2c0.1-0.1,0.2-0.2,0.3-0.1c0.1,0.1,0.1,0.1-0.1,0.9
			c-0.1,0.6,0.3,1.1,1.4,1.9L37.3,54.4z"/>
	</g>
	<g>
		<path class="st0" d="M45.1,36.1l0.2,0.1c0.1,0.1,0.1,0.2,0,0.3s-0.1,0.1-0.5,0c-2.3-0.6-4.2-0.2-5.7,1.3c-2.3,2.3-2.1,5.2,0.4,7.7
			c2.8,2.8,6.4,3.1,8.7,0.8c0.8-0.8,1.3-1.8,1.5-2.8c0.2-0.9,0.2-1.8,0-2.4c-0.2-0.5-0.2-0.5-0.1-0.6c0.1-0.1,0.2-0.1,0.2,0
			c0,0,0,0,0.2,0.3l0.7,1c0.2,0.3,0.2,0.3,0.2,0.8c-0.3,1.7-1.1,3.2-2.4,4.4c-1.3,1.4-2.9,2.2-4.4,2.3c-1.8,0.2-3.8-0.6-5.2-2
			c-2.8-2.8-2.9-6.9-0.1-9.8c0.9-0.9,2.1-1.6,3.2-2c0.5-0.1,0.7-0.2,0.7-0.3c0,0,0.1-0.1,0.1-0.2c0-0.2,0.1-0.3,0.1-0.3
			c0.1-0.1,0.2,0,0.4,0.1L45.1,36.1z"/>
	</g>
	<g>
		<path class="st0" d="M63,31c0.7,1,1.2,1.7,1.5,2.2l0.1,0.2c0.2,0.4,0.3,0.5,0.1,0.6c-0.1,0.1-0.1,0.1-0.6-0.1l-11.8-3.2
			c-0.2,0-0.2,0-0.3,0c-0.1,0.1-0.1,0.2,0.1,0.4l3.6,5.4c1,1.5,1.3,1.7,2.4,1.2c0.2-0.1,0.3-0.1,0.4,0c0.1,0.1,0,0.2-0.1,0.3
			l-0.2,0.1l-0.7,0.4c-0.4,0.3-0.7,0.4-0.9,0.5c-0.1,0.1-0.8,0.6-0.9,0.7c-0.1,0.1-0.2,0.2-0.3,0.2c-0.1,0.1-0.3,0.1-0.3,0
			s0-0.2,0.1-0.3c0.7-0.9,0.6-1.6-0.3-2.9l-3.5-5.1c-1.1-1.7-2.7-2.5-3.8-1.9c-0.2,0.1-0.3,0.1-0.3,0c-0.1-0.1,0-0.2,0.1-0.3
			l0.1-0.1c0,0,0.8-0.5,0.9-0.5l0.1-0.1c0.1-0.1,0.2-0.2,0.3-0.2c0.2-0.1,0.3-0.1,0.6-0.1l12.8,3.3c0.2,0.1,0.3,0.1,0.3,0.1
			c0.1,0,0.1-0.1-0.1-0.4l-2.5-3.8c-2.5-3.7-2.8-4-4.5-3.2c-0.2,0.1-0.3,0.1-0.4-0.1c-0.1-0.1,0-0.2,0.1-0.3l0.4-0.2
			c0.3-0.2,1.1-0.7,1.6-1c0.3-0.2,0.5-0.4,0.7-0.5c0.2-0.1,0.3-0.2,0.4-0.3c0.1-0.1,0.3-0.1,0.3,0c0,0.1,0,0.1-0.1,0.2
			c-0.6,0.7-0.5,0.9,0.8,2.8l0.3,0.5L63,31z"/>
	</g>
	<g>
		<path class="st0" d="M71.2,27c0.8,1.8,1.4,2.3,2.6,1.9c0.3-0.1,0.5-0.1,0.5,0c0,0.1,0,0.3-0.2,0.3c-0.1,0-0.2,0.1-0.3,0.1
			c-0.2,0.1-1.3,0.5-2.1,0.9c-0.5,0.2-0.7,0.4-1.1,0.6c-0.2,0.1-0.3,0.2-0.4,0.2c-0.1,0.1-0.3,0-0.3-0.1s0-0.2,0.2-0.3
			c0.8-0.6,0.8-1,0.2-2.4l-3.5-7.4c-0.7-1.5-1-1.6-2.2-1.3c-0.2,0.1-0.3,0-0.4-0.1c-0.1-0.1,0-0.2,0.2-0.3c0,0,0.1,0,0.2-0.1
			c0.5-0.2,1.2-0.5,1.7-0.7c0.6-0.3,0.9-0.4,1.7-0.9c0.1-0.1,0.2-0.1,0.2-0.1c0.1-0.1,0.2,0,0.3,0.1c0.1,0.2,0.1,0.2-0.5,0.7
			c-0.4,0.5-0.3,1.1,0.3,2.4L71.2,27z"/>
	</g>
	<g>
		<path class="st0" d="M86.9,14.6l0.1,0.2c0,0.1,0,0.2-0.1,0.2s-0.1,0-0.4-0.3c-1.7-1.7-3.6-2.2-5.6-1.7c-3.1,0.9-4.4,3.5-3.4,6.9
			c1.1,3.8,4.1,5.8,7.2,4.9c1.1-0.3,2-0.9,2.7-1.7c0.6-0.7,1-1.5,1.1-2.1c0.1-0.5,0.1-0.6,0.2-0.6c0.1,0,0.2,0,0.2,0.1
			c0,0.1,0,0.1,0,0.3l0.1,1.2c0,0.4,0,0.4-0.2,0.7c-1.1,1.3-2.6,2.3-4.2,2.7c-1.8,0.5-3.6,0.5-4.9-0.1c-1.7-0.7-3-2.3-3.6-4.3
			c-1.1-3.8,0.9-7.5,4.7-8.6c1.2-0.3,2.7-0.4,3.8-0.2c0.5,0.1,0.7,0.1,0.8,0.1c0,0,0.1,0,0.1-0.1c0.1-0.1,0.2-0.2,0.2-0.2
			c0.1,0,0.2,0.1,0.3,0.3L86.9,14.6z"/>
	</g>
	<g>
		<path class="st0" d="M99.4,12.2c-0.1-1.7-0.5-2.3-1.6-2.4c-0.3,0-0.4-0.1-0.4-0.2c0-0.1,0.1-0.2,0.4-0.2c0.1,0,0.3,0,0.5,0
			c0.2,0,0.4,0,0.7,0c0.8,0,0.8,0,2.2-0.2c0.4,0,0.7-0.1,1-0.1c1.4-0.1,2.3,0.1,3.2,0.6c0.9,0.5,1.5,1.4,1.5,2.4
			c0,0.6-0.2,1.3-0.5,1.8c-0.3,0.4-0.3,0.4-1,0.9c-0.1,0.1-0.1,0.1-0.1,0.2c0,0.1,0,0.1,0.5,0.2c1.5,0.3,2.5,1.6,2.6,3.1
			c0.1,2.4-1.7,4.1-4.5,4.2c-0.4,0-0.8,0-1.5,0c-0.7,0-0.9,0-1.5,0c-0.6,0-1.1,0.1-1.3,0.1c-0.3,0.1-0.5,0.1-0.6,0.1
			c-0.2,0-0.3-0.1-0.3-0.2c0-0.1,0.1-0.2,0.3-0.2c0.9-0.2,1-0.5,1-2.7L99.4,12.2z M103.2,14.9c1.5-0.1,2.4-0.9,2.3-2.2
			c0-0.8-0.5-1.7-1.1-2.2c-0.6-0.5-1.7-0.8-2.6-0.8c-0.9,0-1.1,0.2-1,1l0.2,3.8c0,0.5,0.1,0.5,0.7,0.5L103.2,14.9z M101.5,15.7
			c-0.5,0-0.5,0.1-0.5,0.4l0.2,4.4c0.1,0.9,0.1,0.9,0.2,1.1c0.3,0.3,1.1,0.4,2.3,0.4c1.1,0,1.7-0.3,2.2-0.8c0.6-0.6,0.9-1.5,0.9-2.4
			c-0.1-1.3-0.8-2.4-1.8-2.9c-0.7-0.3-1-0.3-2.1-0.3L101.5,15.7z"/>
	</g>
	<g>
		<path class="st0" d="M116.4,17.7c-0.9-0.1-1-0.1-1.4,0.7l-0.8,1.3c-0.5,0.8-0.6,1-0.6,1.4c-0.1,0.6,0.1,0.8,1,1.1
			c0.2,0.1,0.3,0.2,0.3,0.3c0,0.1-0.1,0.1-0.3,0.1c-0.1,0-0.1,0-1.2-0.2c-0.3-0.1-0.6-0.1-1-0.2c-0.2,0-0.3,0-0.4,0
			c-0.3,0-0.5,0-0.5,0c-0.2,0-0.2-0.1-0.2-0.2c0-0.1,0-0.2,0.6-0.2c0.4-0.1,1-0.8,1.5-1.8l6.3-10.2c0.1-0.2,0.2-0.2,0.3-0.2
			s0.2,0.1,0.2,0.3l2.7,10.9c0.1,0.3,0.2,0.7,0.3,1c0.2,1,0.6,1.3,1.5,1.6c0.2,0.1,0.3,0.1,0.3,0.3c0,0.1-0.1,0.2-0.3,0.1l-0.3-0.1
			c-0.3-0.1-0.3-0.1-1.8-0.3l-0.9-0.1c-0.3,0-0.7,0-0.7,0c-0.1,0-0.3,0-0.3,0c-0.1,0-0.2-0.1-0.2-0.2c0-0.1,0.1-0.2,0.6-0.2
			c0.3,0,0.5-0.2,0.5-0.6c0-0.4,0-0.9-0.3-2.1l-0.3-1.3c-0.1-0.4-0.1-0.6-0.2-0.6c-0.1-0.1-0.2-0.1-0.6-0.2L116.4,17.7z M119.1,12.7
			c-0.1-0.4-0.1-0.5-0.2-0.5c-0.1,0-0.1,0-0.2,0.2l-2.4,3.9c-0.1,0.2-0.2,0.3-0.2,0.3c0,0.2,0,0.2,0.6,0.3l2.6,0.3
			c0.6,0.1,0.7,0.1,0.8-0.1c0,0,0-0.3,0-0.4L119.1,12.7z"/>
	</g>
	<g>
		<path class="st0" d="M138,14.5c0.1,0,0.1,0.1,0.2,0.1c0.1,0,0.1,0,0.4-0.1c0,0,0.1,0,0.1,0c0.2,0,0.2,0.2,0.1,0.5
			c-0.1,0.3-0.1,0.3-0.3,1.9c0,0.2-0.1,0.3-0.1,0.4c0,0.1-0.2,0.2-0.3,0.2c-0.1,0-0.2-0.1-0.2-0.5c0-1.4-1.2-2.9-2.9-3.4
			c-1.4-0.4-2.6,0.1-3,1.4c-0.2,0.5-0.1,1.1,0.1,1.6c0.3,0.7,0.4,0.8,2.5,2.3c2,1.4,2.8,3,2.3,4.6c-0.7,2.3-3,3.3-5.6,2.5
			c-1-0.3-2.3-1.1-2.7-1.6c-0.1-0.2-0.1-0.3-0.1-0.9c0,0,0-0.4,0-0.9c0-0.5,0.1-1.1,0.1-1.3c0-0.2,0.2-0.2,0.3-0.2
			c0.1,0,0.1,0.1,0.1,0.2c0,0.9,0.2,1.6,0.5,2.2c0.5,0.8,1.4,1.6,2.4,1.9c1.6,0.5,3.3-0.2,3.8-1.6c0.2-0.7,0.1-1.5-0.4-2.1
			c-0.3-0.3-0.5-0.6-2-1.6c-1.4-1-2-1.6-2.4-2.4c-0.4-0.8-0.5-1.6-0.2-2.4c0.6-1.9,2.6-2.8,5-2.1C136.8,13.5,136.9,13.7,138,14.5z"
			/>
	</g>
	<g>
		<path class="st0" d="M143.7,27.7c-0.9,1.7-0.8,1.9,0.4,2.9c0.2,0.1,0.2,0.2,0.2,0.3c-0.1,0.1-0.1,0.1-0.3,0.1
			c-0.1,0-0.3-0.1-0.5-0.3c-0.2-0.1-0.4-0.2-1.7-0.9l-0.6-0.3l-0.5-0.2c-0.3-0.1-0.5-0.2-0.5-0.2c-0.2-0.1-0.3-0.2-0.2-0.3
			s0.1-0.1,0.3-0.1c0.8,0.3,1.3-0.1,2.1-1.9l3.5-6.9c0.7-1.4,0.6-1.7-0.4-2.5c-0.1-0.1-0.2-0.2-0.1-0.3c0.1-0.1,0.2-0.1,0.3,0
			c0.1,0,0.2,0.1,0.3,0.2c0.2,0.1,1,0.6,1.3,0.7c0.2,0.1,1.4,0.7,1.5,0.7l0.4,0.2c0.1,0.1,0.2,0.2,0.1,0.3c0,0.1-0.1,0.1-0.3,0.1
			c-0.8-0.1-1.1,0.2-1.7,1.3l-1.7,3.3c-0.1,0.1-0.1,0.2,0,0.2c0,0,0,0,0.4-0.1l5.3-1.4c0.9-0.3,1.3-0.5,1.4-0.8
			c0.1-0.3,0-0.5-0.4-0.8c-0.3-0.2-0.4-0.3-0.3-0.4c0.1-0.1,0.2-0.1,0.4,0c0,0,0.1,0.1,0.2,0.1c0.2,0.1,0.3,0.1,1.5,0.8l0.6,0.3
			c0.4,0.2,0.6,0.3,0.7,0.3c0.1,0,0.2,0.1,0.3,0.1c0.1,0.1,0.2,0.2,0.2,0.3c-0.1,0.1-0.2,0.1-0.5,0c-0.6-0.2-1.4,0-4,0.7l-4.3,1.2
			c-0.3,0.1-0.3,0.1-0.3,0.2c-0.1,0.1,0,0.2,0,0.5l2.1,6.9c0.3,0.9,0.6,1.3,1.4,1.9c0.1,0.1,0.1,0.2,0.1,0.3
			c-0.1,0.1-0.2,0.1-0.3,0.1c-0.1,0-0.1-0.1-0.2-0.1c-0.1-0.1-0.3-0.2-0.6-0.3c-0.4-0.2-0.7-0.4-0.9-0.4c-0.2-0.1-0.3-0.1-0.4-0.2
			c-0.2-0.1-0.3-0.2-0.4-0.7l-2.2-7c-0.1-0.4-0.1-0.4-0.2-0.5c-0.1-0.1-0.2,0-0.3,0.1L143.7,27.7z"/>
	</g>
	<g>
		<path class="st0" d="M160.6,31.8c-0.3,0.4-0.3,0.5,0.1,0.8l1.2,0.9c1.7,1.2,2,1.3,2.8,0.6c0.1-0.1,0.2-0.1,0.3-0.1
			c0.1,0.1,0.1,0.2,0,0.3c0,0-0.1,0.1-0.1,0.2c-0.5,0.6-0.7,0.9-1.1,1.3c-0.3,0.3-0.4,0.6-0.6,1c-0.1,0.1-0.1,0.2-0.2,0.2
			c-0.1,0.1-0.2,0.2-0.3,0.1c-0.1-0.1-0.1-0.2,0.1-0.6c0.3-0.9,0.3-1.2-0.7-1.9l-1.7-1.3c-0.5-0.4-0.7-0.4-0.9-0.1l-0.2,0.3
			l-1.9,2.5c-0.8,1.1-0.8,1.3,0.3,2.2c0.9,0.7,1.5,1,2.2,1.3c1.2,0.6,2,0.7,2.9,0.3c0.1-0.1,0.2-0.1,0.3,0c0.1,0.1,0.1,0.2,0,0.3
			c-0.2,0.3-1,0.7-1.7,0.8c-0.8,0.1-1.4,0-2.1-0.5c-0.1-0.1-0.4-0.3-0.6-0.5c-1-1-1.6-1.4-2.3-2c-0.6-0.5-1.7-1.2-2-1.3
			c-0.2-0.1-0.3-0.2-0.4-0.3c-0.1-0.1-0.2-0.3-0.1-0.3c0.1-0.1,0.2-0.1,0.7,0.1c0.5,0.2,1-0.1,1.7-1.1l0.2-0.3l4.6-6.1
			c1.1-1.4,1.1-2,0.2-2.7c-0.1-0.1-0.2-0.2-0.1-0.3c0.1-0.1,0.3-0.1,0.5,0c0.2,0.1,0.3,0.3,0.5,0.4c0.7,0.7,1.2,1.1,2.4,2
			c1,0.8,3.2,2.3,3.5,2.5c0.1,0.1,0.3,0.1,0.3,0.2c0.2,0.1,0.2,0.3,0.1,0.4l-0.2,0.2c-0.2,0.1-0.6,0.6-0.9,1
			c-0.4,0.5-0.6,0.6-0.8,0.5c-0.1-0.1-0.1-0.2,0.2-0.5c0.6-0.9,0.4-1.3-1.5-2.8l-1.2-0.9c-0.6-0.5-0.9-0.4-1.2,0.1L160.6,31.8z"/>
	</g>
	<g>
		<path class="st0" d="M177.6,41.1c-0.4-0.4-0.5-0.4-0.9,0l-6.5,6.1l-0.2,0.2c-0.9,0.8-1,1.3-0.5,2.2c0.1,0.2,0.1,0.3,0.1,0.4
			c-0.1,0.1-0.2,0.1-0.3,0c-0.1-0.1-0.2-0.2-0.3-0.4c-0.1-0.2-0.2-0.3-1.1-1.2c-0.8-0.8-0.8-0.8-1-1c-0.3-0.2-0.4-0.4-0.5-0.4
			c-0.1-0.1-0.1-0.3-0.1-0.3c0.1-0.1,0.2-0.1,0.4,0.1c0.8,0.7,1.2,0.6,2.2-0.3l0.2-0.2l6.5-6.1c0.5-0.5,0.5-0.5,0.2-0.9l-1.7-1.8
			c-0.9-0.8-1.1-0.8-2.2-0.2c-0.2,0.1-0.4,0.2-0.4,0.1c-0.1-0.1,0-0.2,0.1-0.3c0.1-0.1,0.3-0.2,0.6-0.4c0.3-0.2,0.8-0.6,0.9-0.7
			c0.4-0.4,0.6-0.4,0.9-0.1l7.1,7.5c0.5,0.5,0.5,0.6-0.2,1.2c-0.2,0.2-0.3,0.3-0.4,0.5c-0.1,0.2-0.3,0.3-0.3,0.4
			c-0.1,0.1-0.3,0.1-0.4,0c-0.1-0.1,0-0.2,0.1-0.4c0.5-0.7,0.5-1.1-0.2-1.8L177.6,41.1z"/>
	</g>
	<g>
		<path class="st0" d="M46.3,159.6c-0.8,0.7-0.9,1.8-0.2,2.5c0.4,0.4,0.9,0.7,1.4,0.7c0.2,0,0.2,0,0.3,0c0,0,0,0.1,0,0.2
			c-0.1,0.1-0.5,0.1-1,0c-0.6-0.1-1.2-0.4-1.6-0.9c-0.8-0.9-0.8-2,0.2-2.9c1.5-1.3,4-1.5,5.1-0.4c0.5,0.5,0.5,1.2,0,1.7
			c-0.4,0.4-1.3,0.4-2.1,0.1c-0.5-0.2-1.2-0.7-1.7-1.3C46.5,159.4,46.3,159.5,46.3,159.6z M48.6,160.2c0.5,0.1,1,0,1.3-0.3
			c0.3-0.3,0.3-0.7,0-1c-0.3-0.3-0.8-0.5-1.5-0.4c-0.5,0-0.9,0.2-1.6,0.6C47.4,159.7,48,160.1,48.6,160.2z"/>
	</g>
	<g>
		<path class="st0" d="M53.2,166c0,0.5-0.2,0.9-0.5,1.2c-0.7,0.8-1.9,0.7-2.7,0c-0.6-0.6-0.8-1.3-0.5-1.7c0.2-0.2,0.5-0.2,0.6,0
			c0.2,0.2,0.2,0.3,0,0.9c-0.1,0.3,0,0.5,0.2,0.7c0.4,0.4,1.1,0.4,1.4,0.1c0.3-0.3,0.4-0.7,0.4-1.3l0-1.2c0-0.6,0.1-1,0.4-1.3
			c0.7-0.7,1.5-0.7,2.4,0.1c0.6,0.5,0.7,1,0.4,1.3c-0.2,0.2-0.4,0.2-0.6,0c-0.2-0.1-0.2-0.2-0.1-0.7c0-0.3,0-0.5-0.2-0.7
			c-0.3-0.3-0.6-0.2-0.9,0.1c-0.2,0.2-0.2,0.5-0.2,1L53.2,166z"/>
	</g>
	<g>
		<path class="st0" d="M56.6,169.9c-0.1,0.1-0.1,0.1-0.3,0.3c-0.3,0.4-0.3,0.8,0,1c0.2,0.2,0.6,0.3,1.1,0.2c0.1,0,0.2,0,0.3,0
			s0.1,0.1,0,0.2c-0.3,0.4-1.8,0.4-2.4-0.1c-0.4-0.3-0.4-1,0.1-1.6c0.1-0.2,0.3-0.4,0.5-0.6l2-2c0.2-0.2,0.2-0.2,0.3-0.3
			c0.1-0.1,0-0.2-0.1-0.3l-0.3-0.2c-0.1-0.1-0.1-0.1,0-0.2c0.1-0.1,0.2-0.1,0.4-0.1c0.5,0.1,1.2,0.1,1.7-0.1c0.2,0,0.2,0,0.3,0
			c0.1,0.1,0.1,0.1,0,0.2c0,0-0.1,0.1-0.2,0.2c0,0-0.1,0.1-0.2,0.2c0,0-0.1,0.1-0.2,0.2c-0.1,0.1-0.2,0.2-0.2,0.2
			c-0.1,0.1,0,0.2,0.1,0.3l0,0l0.8,0.6c0.1,0.1,0.2,0.2,0.1,0.3c-0.1,0.2-0.3,0.2-0.5,0l-0.7-0.6l-0.1-0.1c-0.2-0.2-0.3-0.1-0.5,0.1
			L56.6,169.9z"/>
	</g>
	<g>
		<path class="st0" d="M61.2,174.4c0,0.1,0,0.2,0.1,0.3c0,0.1,0,0.2,0,0.2c0,0-0.1,0.1-0.2,0.1c-0.4,0-0.6,0.1-0.8,0.1
			c-0.1,0.1-0.2,0.1-0.2,0c-0.1,0-0.1-0.1-0.1-0.2c0-0.2,0-0.4-0.1-0.6c0-0.1,0-0.2,0-0.2c0.1-0.1,0.1-0.1,0.3-0.1
			c0.1,0,0.3,0,0.3,0c0.1,0,0.2-0.1,0.3-0.1c0.1,0,0.2,0,0.2,0C61.2,173.9,61.2,173.9,61.2,174.4z"/>
	</g>
	<g>
		<path class="st0" d="M66.7,177.3c-0.2,0.1-0.3,0.2-0.3,0.2c-0.1,0.2,0.1,0.3,1.4,1c0.9,0.5,1.3,0.5,2,0.3c0.2-0.1,0.3-0.1,0.4,0
			c0.1,0.1,0.2,0.2,0.1,0.3c0,0-0.1,0.1-0.3,0.2l-1.4,0.7c-0.2,0.1-0.3,0.1-0.4,0.1c-0.1,0-0.2-0.1-0.3-0.2
			c-0.2-0.1-0.9-0.6-1.4-0.8c-0.7-0.4-1.5-0.8-1.7-0.8c-0.1,0-0.2-0.1-0.3-0.1c-0.1-0.1-0.2-0.2-0.1-0.3c0.1-0.1,0.1-0.1,0.5-0.3
			l1.9-0.8c0.7-0.3,2.5-1.2,3.2-1.7c1-0.6,1.6-1.3,2-1.9c0.4-0.7,0.2-1.3-0.4-1.6c-0.3-0.2-0.7-0.3-1.2-0.3c-0.2,0-0.2,0-0.9,0.2
			c-0.1,0-0.2,0-0.2,0c-0.1,0-0.1-0.2-0.1-0.2c0.1-0.2,0.7-0.4,1.3-0.5c0.6-0.1,1.3,0,1.8,0.3c1,0.6,1.4,1.6,0.9,2.5
			c-0.3,0.6-0.7,1-1.7,1.6c-0.6,0.4-1.5,0.9-2.4,1.3L66.7,177.3z"/>
	</g>
	<g>
		<path class="st0" d="M81.5,179.3c-0.5,1.2-1.5,2.6-2.6,3.5c-1,0.8-2.2,1.1-3.1,0.8c-1.4-0.6-1.8-2.5-0.8-4.9
			c0.5-1.3,1.4-2.5,2.4-3.3c1-0.9,2.1-1.1,3-0.7C82.1,175.3,82.4,177.1,81.5,179.3z M76.1,178.4c-0.9,2.1-0.6,4.1,0.6,4.6
			c0.5,0.2,1.1,0.1,1.7-0.4c0.7-0.6,1.4-1.5,1.8-2.6c0.9-2.3,0.8-4.3-0.4-4.8C78.7,174.7,77,176.2,76.1,178.4z"/>
	</g>
	<g>
		<path class="st0" d="M84.9,184.9c-0.2,0.1-0.2,0.2-0.3,0.3c-0.1,0.2,0.1,0.3,1.6,0.7c1,0.3,1.4,0.2,2-0.2c0.2-0.1,0.3-0.2,0.4-0.1
			c0.1,0,0.2,0.1,0.2,0.2c0,0-0.1,0.1-0.2,0.2l-1.2,1c-0.2,0.2-0.2,0.2-0.3,0.1c-0.1,0-0.2-0.1-0.3-0.1c-0.2-0.1-1.1-0.4-1.5-0.5
			c-0.7-0.2-1.6-0.4-1.8-0.4c-0.1,0-0.3,0-0.3,0c-0.1,0-0.2-0.2-0.2-0.3c0-0.1,0-0.1,0.4-0.4l1.7-1.2c0.6-0.4,2.1-1.8,2.7-2.4
			c0.8-0.8,1.3-1.6,1.4-2.3c0.2-0.7-0.1-1.3-0.8-1.5c-0.4-0.1-0.8-0.1-1.2,0c-0.1,0-0.1,0-0.8,0.4c-0.1,0-0.1,0-0.2,0
			c-0.1,0-0.2-0.1-0.1-0.2c0.1-0.2,0.5-0.5,1.2-0.8c0.6-0.2,1.3-0.3,1.9-0.1c1.1,0.3,1.8,1.2,1.5,2.2c-0.2,0.6-0.5,1.1-1.3,1.9
			c-0.5,0.6-1.3,1.2-2,1.8L84.9,184.9z"/>
	</g>
	<g>
		<path class="st0" d="M96.4,187.2c0,0.2-0.1,0.3-0.1,0.5c-0.1,0.5,0.1,0.8,0.7,0.9c0.3,0.1,0.4,0.1,0.4,0.3c0,0.1-0.1,0.2-0.3,0.2
			c-0.1,0-0.1,0-0.3-0.1c-0.5-0.1-0.7-0.2-1.2-0.2c-0.6-0.1-0.6-0.1-1.3-0.1c-0.2,0-0.2,0-0.3,0c-0.2,0-0.3-0.1-0.2-0.2
			c0-0.2,0.2-0.2,0.4-0.2c0.7,0.1,0.9-0.1,1.2-1.3l1.5-5.5c0.1-0.3,0.1-0.5,0.1-0.6c0-0.3-0.1-0.4-0.3-0.4c-0.1,0-0.3,0-0.5,0.1
			c-0.1,0-0.2,0-0.3,0c-0.1,0-0.2-0.1-0.1-0.2c0-0.2,0-0.2,1-0.5l0.6-0.2c0.3-0.1,0.4-0.2,0.7-0.4c0.2-0.1,0.3-0.1,0.3-0.1
			c0.1,0,0.2,0.1,0.1,0.2c0,0.1,0,0.2-0.2,0.4c-0.3,0.7-0.3,0.8-0.5,1.5L96.4,187.2z"/>
	</g>
	<g>
		<path class="st0" d="M114.1,179.3l1.1,12.5l-0.6,0.1l-1.1-12.5L114.1,179.3z"/>
	</g>
	<g>
		<path class="st0" d="M129,185.2c0,0.2,0.1,0.3,0.1,0.4c0.1,0.4,0.4,0.6,1,0.5c0.4,0,0.5,0,0.5,0.1c0,0.1-0.1,0.2-0.3,0.3
			c-0.1,0-0.1,0-0.2,0c-0.4,0.1-0.6,0.1-1,0.2c-0.4,0.1-0.5,0.2-0.8,0.3c-0.3,0.1-0.4,0.2-0.4,0.2c-0.1,0-0.3,0-0.3-0.1
			c0-0.1,0-0.1,0.2-0.3c0.5-0.3,0.5-0.4,0.4-1.2l-1.1-7.1c0-0.2-0.1-0.3-0.1-0.4c-0.1-0.4-0.4-0.6-0.9-0.5c-0.4,0-0.4,0-0.5-0.1
			c0-0.1,0-0.2,0.2-0.2c0.1,0,0.3-0.1,0.6-0.1c0.3,0,0.5-0.1,0.8-0.2c0.3-0.1,0.8-0.2,1.2-0.4c0.4-0.1,0.7-0.3,0.9-0.3
			c1.4-0.4,2.6,0.2,3,1.6c0.4,1.4-0.2,2.9-1.5,3.6c-0.2,0.1-0.4,0.2-0.7,0.3c-0.6,0.2-1,0.2-1.1,0.1c0-0.1,0-0.1,0.2-0.1l0.1,0
			c0.2,0,0.3-0.1,0.5-0.1c1.3-0.4,2-1.8,1.6-3.1c-0.2-0.7-0.7-1.2-1.5-1.4c-0.4-0.1-0.9-0.1-1.2,0c-0.5,0.2-0.6,0.3-0.4,1.4
			L129,185.2z"/>
	</g>
	<g>
		<path class="st0" d="M140.3,178.8c0.1,0.8,0.5,2,0.6,2.4c0.1,0.2,0.2,0.3,0.4,0.2c0.3-0.1,0.4-0.4,0.5-1.1c0-0.1,0.1-0.2,0.1-0.2
			c0.1,0,0.2,0,0.2,0.1c0.3,0.7-0.4,2.1-1.1,2.4c-0.3,0.1-0.6-0.1-0.7-0.5c-0.1-0.2-0.3-1-0.4-1.3c-0.1-0.5-0.1-0.5-0.2-0.9
			c-0.2,1.2-0.3,1.7-0.5,2.2c-0.3,0.9-0.8,1.6-1.2,1.8c-0.3,0.1-0.6-0.2-0.8-0.7c-0.1-0.3-0.3-0.9-0.4-1.4l-0.3-1.5
			c-0.1-0.3-0.2-0.6-0.2-0.8c-0.1-0.2-0.2-0.3-0.3-0.2c-0.2,0.1-0.3,0.5-0.3,0.9c0,0.2,0,0.3-0.1,0.3c-0.1,0-0.1,0-0.2-0.1
			c-0.3-0.7,0.1-2,0.7-2.2c0.3-0.1,0.7,0.1,0.9,0.7c0.1,0.2,0.1,0.3,0.2,0.5l0.6,2.5c0.1,0.3,0.2,0.8,0.3,0.9
			c0.1,0.2,0.2,0.2,0.3,0.2c0.3-0.1,0.7-1.2,1-2.5c0.2-0.9,0.2-2.1,0.1-3c0-0.4,0-0.5,0.2-0.6c0.2-0.1,0.4-0.1,0.5,0.1
			c0,0,0,0.1,0,0.2L140.3,178.8z"/>
	</g>
	<g>
		<path class="st0" d="M145.9,177.8c0.1,0.2,0.1,0.2,0.2,0.4c0.2,0.4,0.6,0.6,0.9,0.4c0.3-0.1,0.5-0.5,0.6-0.9
			c0-0.1,0.1-0.2,0.1-0.2c0.1,0,0.1,0,0.2,0c0.3,0.5-0.4,1.8-1,2.1c-0.5,0.3-1.1-0.1-1.5-0.7c-0.1-0.2-0.2-0.4-0.3-0.7l-1-2.6
			c-0.1-0.3-0.1-0.3-0.1-0.3c-0.1-0.1-0.2-0.1-0.3,0l-0.4,0.2c-0.1,0-0.2,0-0.2,0s0-0.2,0.1-0.4c0.3-0.4,0.5-1,0.6-1.6
			c0-0.2,0-0.2,0.1-0.3c0.1,0,0.2,0,0.2,0c0,0,0.1,0.1,0.1,0.2c0,0,0,0.2,0.1,0.3c0,0.1,0,0.1,0.1,0.2c0,0.2,0.1,0.2,0.1,0.3
			c0.1,0.1,0.2,0.1,0.3,0l0.1,0l0.9-0.5c0.1-0.1,0.2-0.1,0.3,0c0.1,0.2,0,0.4-0.2,0.5l-0.8,0.4l-0.1,0c-0.2,0.1-0.3,0.2-0.1,0.5
			L145.9,177.8z"/>
	</g>
	<g>
		<path class="st0" d="M150.8,173.3c0.2,0.4,0.2,0.5,0,0.8c-0.3,0.4-0.6,0.7-1.1,1.3c0,0.1-0.1,0.1-0.1,0.1c-0.1,0-0.1,0-0.2-0.2
			c-0.3-0.4-0.2-0.5,0.3-1c0.2-0.2,0.4-0.4,0.6-0.7c0.2-0.3,0.4-0.4,0.4-0.5C150.6,173.1,150.7,173.2,150.8,173.3z"/>
	</g>
	<g>
		<path class="st0" d="M151.5,166.4c0.2,0.1,0.3,0.1,0.3,0.1c0.1,0,0.2,0.1,0.3,0.1c0.1,0,0.1,0.1,0.1,0.1c0,0,0,0.1,0,0.2
			c0,0.1-0.1,0.2,0,0.3c0,0.1,0,0.2,0,0.3c0,0.1,0,0.1-0.1,0.2c0,0-0.1,0-0.2,0c-0.3-0.1-0.4-0.2-0.5-0.2c-0.1,0-0.1,0-0.1-0.1
			c-0.1-0.1-0.1-0.1,0-0.5c0-0.1,0-0.2,0-0.3c0-0.1,0-0.2,0.1-0.2C151.3,166.3,151.4,166.3,151.5,166.4z M152.9,170.3
			c-0.1-0.1-0.1-0.2-0.2-0.3c-0.1-0.2-0.2-0.2-0.5,0l-0.3,0.2c-0.2,0.1-0.3,0.2-0.3,0.1c-0.1-0.1-0.1-0.1,0.7-0.8
			c0.2-0.2,0.4-0.4,0.5-0.4c0.1-0.1,0.2-0.2,0.3-0.3c0.1-0.1,0.2,0,0.2,0.1l0,0.1l0.8,1.9c0.3,0.6,0.9,1.7,1.1,2
			c0.2,0.2,0.3,0.3,0.4,0.2c0.2-0.1,0.2-0.5,0.2-0.9c0-0.1,0-0.2,0-0.2c0.1,0,0.1,0,0.2,0c0.4,0.5,0.2,1.9-0.3,2.2
			c-0.2,0.2-0.7-0.1-1.1-0.7c-0.2-0.3-0.4-0.7-0.9-1.6L152.9,170.3z"/>
	</g>
	<g>
		<path class="st0" d="M159.1,168.9c-0.1-0.1-0.2-0.3-0.5-0.7c-0.3-0.5-0.5-0.8-0.7-0.9c-0.3-0.3-0.6-0.5-0.7-0.3
			c-0.1,0.1-0.2,0.5,0,0.8c0.1,0.2,0.1,0.3,0,0.3c-0.1,0.1-0.2,0-0.3-0.1c-0.4-0.5-0.5-1.7-0.1-2.1c0.3-0.2,0.7,0,1.2,0.5
			c0,0,0.1,0.1,0.2,0.2c0-0.6,0-1,0.1-1.4c0.2-0.6,0.4-1,0.7-1.2c0.5-0.4,1.3-0.2,1.9,0.5c0.2,0.2,0.4,0.5,0.7,0.8l1.1,1.5l0.1,0.1
			c0.2,0.2,0.3,0.2,0.4,0.1c0.2-0.1,0.3-0.5,0.2-0.8c0-0.2,0-0.3,0.1-0.3c0.1,0,0.1,0,0.2,0c0.3,0.4,0.1,1.8-0.3,2.2
			c-0.3,0.2-0.6,0.1-1-0.4c-0.1-0.2-0.3-0.3-0.4-0.5l-1.3-1.8c-0.1-0.1-0.1-0.2-0.2-0.3c-0.5-0.6-1.1-0.7-1.4-0.4
			c-0.6,0.5-0.4,1.8,0.6,3.2l1.2,1.9c0.2,0.2,0.1,0.4-0.1,0.6c-0.2,0.2-0.3,0.2-0.4,0.1c0,0,0,0-0.1-0.1L159.1,168.9z"/>
	</g>
	<g>
		<path class="st0" d="M165.6,161.1c0.3,0.3,0.3,0.5,0.1,0.8c-0.2,0.4-0.4,0.8-0.7,1.5c0,0.1-0.1,0.1-0.1,0.2
			c-0.1,0.1-0.1,0-0.3-0.1c-0.3-0.3-0.3-0.4,0.1-1.1c0.2-0.3,0.3-0.5,0.4-0.9c0.2-0.4,0.2-0.5,0.2-0.5
			C165.4,161,165.5,161,165.6,161.1z"/>
	</g>
	<g>
		<path class="st0" d="M164.7,154.6c-0.1-0.1-0.2-0.2-0.3-0.3c-0.3-0.3-0.6-0.3-1,0.1c-0.3,0.2-0.3,0.3-0.4,0.2
			c-0.1-0.1-0.1-0.2,0-0.3c0-0.1,0.1-0.1,0.2-0.2c0.2-0.2,0.3-0.3,0.4-0.4c0.1-0.1,0.4-0.5,0.7-1c0.2-0.3,0.4-0.6,0.7-0.9
			c0.7-0.9,1.2-1.3,1.9-1.4c0.6-0.1,1.2,0,1.7,0.4c0.8,0.6,1.1,1.6,0.8,2.8c0,0.1,0,0.2,0,0.2c0,0,0.1,0,0.2-0.1
			c0.9-0.6,2-0.6,2.8,0c0.7,0.5,1,1.4,1,2.4c0,0.9-0.3,1.6-1.1,2.6c-0.2,0.2-0.4,0.4-0.5,0.6c-0.4,0.4-0.7,0.8-0.7,0.8
			c-0.1,0.1-0.2,0.3-0.3,0.5c-0.1,0.2-0.3,0.4-0.4,0.5c-0.1,0.1-0.2,0.2-0.3,0.1c-0.1-0.1-0.1-0.1,0-0.3c0.2-0.5,0.2-0.7-0.4-1.2
			L164.7,154.6z M168.3,154.9c0.1,0,0.1-0.1,0.2-0.2c0.8-1,0.6-2.1-0.3-2.9c-0.4-0.3-0.9-0.5-1.4-0.5c-0.6,0.1-1,0.3-1.6,1
			c-0.5,0.7-0.5,0.8,0,1.3l1.8,1.9c0.1,0.1,0.2,0.2,0.3,0.2c0.2,0.1,0.2,0.1,0.4-0.1L168.3,154.9z M167.9,155.8l-0.1,0.1
			c-0.2,0.3-0.2,0.3,0.2,0.7l2.3,2.3c0.3,0.3,0.3,0.3,0.3,0.3c0.4,0.3,0.7,0.1,1.4-0.8c0.6-0.7,0.8-1.3,0.7-2.1
			c-0.1-0.7-0.4-1.2-0.9-1.7c-0.5-0.4-1.1-0.6-1.7-0.5c-0.6,0.1-1,0.3-1.5,0.9L167.9,155.8z"/>
	</g>
	<g>
		<path class="st0" d="M177.6,151.7c-0.4,0.6-1.2,0.7-1.9,0.3c-0.9-0.5-1.7-1.6-2.1-2.8c-0.4-1-0.3-1.9,0.1-2.6
			c0.1-0.2,0.3-0.4,0.5-0.6c0.1-0.1,0.2-0.1,0.2-0.2c0.1-0.1,0-0.3-0.1-0.7c-0.1-0.2-0.1-0.3-0.1-0.3c0,0,0.1,0,0.1,0
			c0.1,0,0.1,0.1,0.4,0.4c1,1,2.5,2.3,3.2,2.7c0.4,0.3,0.7,0.4,0.8,0.2c0.1-0.2,0-0.7-0.3-1c-0.1-0.2-0.1-0.2-0.1-0.3
			c0-0.1,0.1-0.1,0.2,0c0.5,0.3,1,1.8,0.7,2.3c-0.1,0.2-0.4,0.2-0.7,0.1c-0.2,0-0.4-0.1-1-0.4C178,149.9,178.1,150.9,177.6,151.7z
			 M174,148.7c0.4,0.9,1.2,1.9,1.9,2.3c0.6,0.3,1.1,0.3,1.4-0.3c0.3-0.4,0.3-1,0-1.8c-0.2-0.5-0.4-0.8-0.7-1
			c-0.3-0.3-0.9-0.8-1.6-1.4c-0.1-0.1-0.2-0.2-0.3-0.2c-0.2-0.1-0.6,0.1-0.9,0.5C173.6,147.2,173.7,147.9,174,148.7z"/>
	</g>
	<g>
		<path class="st0" d="M181.1,141.1c-0.8-0.7-1.3-1.1-2-1.5c-0.3-0.1-0.3-0.1-0.7-0.1c-0.2,0-0.4,0-0.5-0.1
			c-0.2-0.1-0.3-0.3-0.2-0.5c0.1-0.3,0.6-0.3,1-0.1c0.6,0.3,2.3,1.6,3.2,2.5c0.8,0.8,1.5,1.6,1.8,2.3c0.4,0.6,0.4,1.4,0.2,1.9
			c-0.2,0.4-0.7,0.7-1.1,0.5c-0.2-0.1-0.3-0.3-0.2-0.5c0.1-0.1,0.2-0.2,0.4-0.3c0.3-0.2,0.4-0.2,0.4-0.4c0.1-0.3,0.1-0.6-0.2-1.2
			c-0.3-0.6-0.8-1.3-1.1-1.4c-0.4-0.2-1.8-0.3-3-0.3c-0.6,0-1.3,0.1-1.6,0.2c-0.2,0.1-0.3,0.1-0.4,0.3c-0.2,0.3,0,0.6,0.5,1
			c0,0,0.1,0.1,0,0.2c0,0.1-0.2,0.1-0.4,0c-0.2-0.1-0.5-0.3-0.7-0.5c-0.4-0.4-0.5-0.8-0.3-1.2c0.3-0.6,1.6-0.8,3.6-0.7L181.1,141.1z
			"/>
	</g>
	<g>
		<path class="st0" d="M183.5,137.1c-0.1-0.2-0.2-0.3-0.1-0.4c0-0.1,0.2-0.2,0.5-0.3c0.4-0.1,0.8-0.1,1.2,0.1
			c0.6,0.2,1.1,0.7,1.4,1.4c0.2,0.4,0.3,0.8,0.3,0.9c0,0.1-0.1,0.1-0.2,0.1c-0.1,0-0.1-0.1-0.2-0.4c-0.2-0.4-0.6-0.9-1-1.1
			c-0.4-0.2-0.8-0.1-1.2,0.2c-0.1,0.1-0.1,0.1-0.2,0.1c-0.1,0-0.2-0.2-0.3-0.4L183.5,137.1z"/>
	</g>
	<g>
		<path class="st0" d="M185.3,115.6c1.2,0.2,2.5,0.9,3.3,1.8c1,1.1,1.4,2.6,1.1,4.3c-0.5,2.8-2.7,4.3-5.5,3.8
			c-3.1-0.6-5.1-3.4-4.6-6.2C180.1,116.6,182.5,115,185.3,115.6z M184.2,124.3c2.5,0.5,4.7-0.7,5.1-2.8c0.2-1.3-0.2-2.5-1.3-3.3
			c-0.8-0.7-1.9-1.2-3.1-1.4c-1.4-0.3-2.5-0.1-3.4,0.5c-0.8,0.5-1.4,1.4-1.6,2.3C179.5,121.7,181.4,123.7,184.2,124.3z"/>
	</g>
	<g>
		<path class="st0" d="M186.1,111.2c-0.9-0.8-1.2-1.4-1.2-2.1c0-0.7,0.6-1.2,1.6-1.1l0.5,0l1.8,0.3c0.2,0,0.2,0,0.6,0.1
			c0.4,0,0.7-0.1,0.7-0.3c0-0.3-0.3-0.7-0.7-1c-0.1-0.1-0.1-0.1-0.1-0.2c0-0.1,0.1-0.1,0.1-0.1c0.2,0,0.7,0.3,0.9,0.5
			c0.4,0.4,0.7,0.9,0.6,1.3c0,0.4-0.5,0.6-1.4,0.6c-0.3,0-0.4,0-0.6,0l-2-0.2l-0.4-0.1c-0.5,0-0.9,0.2-0.9,0.6c0,0.4,0.2,1,0.5,1.3
			c0.3,0.3,0.7,0.5,1.3,0.6l2.9,0.5c0.3,0,0.4,0.2,0.3,0.5c0,0.3-0.1,0.4-0.2,0.4l-0.2,0l-8.9-1.6c-0.2,0-0.3,0-0.4,0
			c-0.2,0-0.3,0.1-0.3,0.4l0,0.4c0,0.2,0,0.3-0.2,0.3c-0.1,0-0.2-0.1-0.2-0.3c0-0.3,0-1.1-0.1-1.2c0-0.1,0-0.3,0-0.3
			c0-0.1,0.1-0.1,0.2-0.1c0,0,0.1,0,0.1,0L186.1,111.2z"/>
	</g>
	<g>
		<path class="st0" d="M182.1,102.1c0.1-0.1,0.2-0.1,0.3-0.2c0.1,0,0.1-0.1,0.2-0.2c0.1,0,0.1-0.1,0.1-0.1c0.1,0,0.1,0,0.2,0.1
			c0.1,0.1,0.2,0.2,0.2,0.2c0.1,0.1,0.2,0.1,0.2,0.2c0.1,0.1,0.1,0.1,0.1,0.1c0,0.1,0,0.1-0.1,0.2c-0.3,0.1-0.4,0.2-0.5,0.3
			c-0.1,0.1-0.1,0.1-0.1,0.1c-0.1,0-0.1,0-0.4-0.3c0,0-0.1-0.1-0.3-0.2c-0.1-0.1-0.1-0.1-0.1-0.2S182,102.1,182.1,102.1z M186.1,103
			c-0.1,0-0.3,0-0.4,0c-0.2,0-0.3,0.1-0.3,0.4l0,0.4c0,0.2,0,0.3-0.1,0.3c-0.2,0-0.2,0-0.3-1c0-0.3-0.1-0.6-0.1-0.6
			c0-0.1-0.1-0.3-0.1-0.4c0-0.1,0.1-0.2,0.2-0.2l0.1,0l2,0.3c0.7,0.1,1.9,0.2,2.3,0.2c0.3,0,0.4-0.1,0.4-0.2c0-0.2-0.3-0.5-0.6-0.6
			c-0.1-0.1-0.2-0.1-0.2-0.2c0-0.1,0-0.1,0.1-0.1c0.6,0,1.7,0.9,1.7,1.5c0,0.3-0.5,0.5-1.2,0.5c-0.4,0-0.8,0-1.8-0.2L186.1,103z"/>
	</g>
	<g>
		<path class="st0" d="M186.5,93.3c0.9-0.1,2,0.1,2.7,0.5c0.7,0.4,1.2,1.2,1.3,1.9c0.2,1.2-0.7,2.2-2.1,2.4c-1,0.1-2.2-0.1-2.9-0.7
			c-0.6-0.4-1-1.1-1.1-1.8C184.2,94.5,185,93.5,186.5,93.3z M188.3,97.2c1.3-0.2,2-0.7,1.9-1.5c-0.1-0.6-0.5-1-1.2-1.2
			c-0.7-0.2-1.7-0.3-2.4-0.2c-1.2,0.2-1.9,0.6-1.8,1.4C184.9,96.8,186.4,97.5,188.3,97.2z"/>
	</g>
</g>
</svg>
